<?xml version="1.0" encoding="UTF-8" standalone="no"?>
<!DOCTYPE svg PUBLIC "-//W3C//DTD SVG 1.1//EN"
 "http://www.w3.org/Graphics/SVG/1.1/DTD/svg11.dtd">
<!-- Generated by graphviz version 2.47.3 (20210619.1520)
 -->
<!-- Title: dependencies Pages: 1 -->
<svg width="344pt" height="247pt"
 viewBox="0.00 0.00 344.00 246.80" xmlns="http://www.w3.org/2000/svg" xmlns:xlink="http://www.w3.org/1999/xlink">
<g id="graph0" class="graph" transform="scale(1 1) rotate(0) translate(4 242.8)">
<title>dependencies</title>
<polygon fill="white" stroke="transparent" points="-4,4 -4,-242.8 340,-242.8 340,4 -4,4"/>
<text text-anchor="middle" x="168" y="-8.2" font-family="sans-serif" font-size="14.00">dependencies</text>
<g id="clust1" class="cluster">
<title>cluster_CoreModule</title>
<polygon fill="none" stroke="black" stroke-dasharray="1,5" points="8,-32.8 8,-230.8 328,-230.8 328,-32.8 8,-32.8"/>
</g>
<g id="clust3" class="cluster">
<title>cluster_CoreModule_imports</title>
<polygon fill="none" stroke="black" points="206,-40.8 206,-92.8 320,-92.8 320,-40.8 206,-40.8"/>
</g>
<g id="clust6" class="cluster">
<title>cluster_CoreModule_providers</title>
<polygon fill="none" stroke="black" points="16,-40.8 16,-92.8 198,-92.8 198,-40.8 16,-40.8"/>
</g>
<g id="clust4" class="cluster">
<title>cluster_CoreModule_exports</title>
<polygon fill="none" stroke="black" points="125,-170.8 125,-222.8 243,-222.8 243,-170.8 125,-170.8"/>
</g>
<!-- SharedModule -->
<g id="node1" class="node">
<title>SharedModule</title>
<polygon fill="#8dd3c7" stroke="black" points="312.42,-84.8 309.42,-88.8 288.42,-88.8 285.42,-84.8 213.58,-84.8 213.58,-48.8 312.42,-48.8 312.42,-84.8"/>
<text text-anchor="middle" x="263" y="-62.6" font-family="Times,serif" font-size="14.00">SharedModule</text>
</g>
<!-- CoreModule -->
<g id="node2" class="node">
<title>CoreModule</title>
<polygon fill="#8dd3c7" stroke="black" points="227.26,-149.8 224.26,-153.8 203.26,-153.8 200.26,-149.8 140.74,-149.8 140.74,-113.8 227.26,-113.8 227.26,-149.8"/>
<text text-anchor="middle" x="184" y="-127.6" font-family="Times,serif" font-size="14.00">CoreModule</text>
</g>
<!-- SharedModule&#45;&gt;CoreModule -->
<g id="edge1" class="edge">
<title>SharedModule&#45;&gt;CoreModule</title>
<path fill="none" stroke="black" d="M220.58,-84.91C220.58,-84.91 220.58,-103.79 220.58,-103.79"/>
<polygon fill="black" stroke="black" points="217.08,-103.79 220.58,-113.79 224.08,-103.79 217.08,-103.79"/>
</g>
<!-- SharedModule  -->
<g id="node3" class="node">
<title>SharedModule </title>
<polygon fill="#fb8072" stroke="black" points="234.92,-214.8 133.08,-214.8 133.08,-178.8 234.92,-178.8 234.92,-214.8"/>
<text text-anchor="middle" x="184" y="-192.6" font-family="Times,serif" font-size="14.00">SharedModule </text>
</g>
<!-- CoreModule&#45;&gt;SharedModule  -->
<g id="edge2" class="edge">
<title>CoreModule&#45;&gt;SharedModule </title>
<path fill="none" stroke="black" stroke-dasharray="5,2" d="M184,-149.91C184,-149.91 184,-168.79 184,-168.79"/>
<polygon fill="black" stroke="black" points="180.5,-168.79 184,-178.79 187.5,-168.79 180.5,-168.79"/>
</g>
<!-- LicenseInterceptor -->
<g id="node4" class="node">
<title>LicenseInterceptor</title>
<ellipse fill="#fdb462" stroke="black" cx="107" cy="-66.8" rx="83.34" ry="18"/>
<text text-anchor="middle" x="107" y="-62.6" font-family="Times,serif" font-size="14.00">LicenseInterceptor</text>
</g>
<!-- LicenseInterceptor&#45;&gt;CoreModule -->
<g id="edge3" class="edge">
<title>LicenseInterceptor&#45;&gt;CoreModule</title>
<path fill="none" stroke="black" d="M165.52,-79.64C165.52,-79.64 165.52,-103.32 165.52,-103.32"/>
<polygon fill="black" stroke="black" points="162.02,-103.32 165.52,-113.32 169.02,-103.32 162.02,-103.32"/>
</g>
</g>
</svg>
