<?xml version="1.0" encoding="utf-8"?>
<!-- Generator: Adobe Illustrator 24.0.1, SVG Export Plug-In . SVG Version: 6.00 Build 0)  -->
<svg version="1.1" id="Layer_1" xmlns="http://www.w3.org/2000/svg" xmlns:xlink="http://www.w3.org/1999/xlink" x="0px" y="0px"
	 viewBox="0 0 221.8 36.2" style="enable-background:new 0 0 221.8 36.2;" xml:space="preserve">
<style type="text/css">
	.st0{fill:#3B3B97;}
	.st1{fill:#0D90CD;}
	.st2{fill:#2A5CAA;}
	.st3{fill:#5BBA47;}
	.st4{fill:#03B2C2;}
	.st5{fill:#3EB873;}
	.st6{fill:#636466;}
</style>
<g>
	<g>
		<g>
			<polygon class="st0" points="210.9,6.9 205,10.9 205.1,17.3 210.9,13.3 			"/>
			<polygon class="st1" points="197.2,22.6 202.9,18.7 202.9,12.3 197.2,16.2 			"/>
			<polygon class="st1" points="202.9,2.2 197.2,6.1 197.2,12.8 197.2,13.6 202.9,9.8 			"/>
			<polygon class="st0" points="218.6,26.9 212,24.3 206.7,28 213.3,30.6 			"/>
			<polygon class="st2" points="197.9,24.5 204.3,27 209.6,23.4 203.2,20.9 			"/>
			<polygon class="st0" points="206,18.9 205.3,19.4 211.7,21.9 217.9,17.7 211.5,15.1 			"/>
			<polygon class="st3" points="181.4,6.9 187.3,10.9 187.2,17.3 181.4,13.3 			"/>
			<polygon class="st4" points="195.1,22.6 189.4,18.7 189.4,12.3 195.1,16.2 			"/>
			<polygon class="st4" points="189.4,2.2 189.4,9.8 195.1,13.6 195.1,12.8 195.1,6.1 			"/>
			<polygon class="st3" points="173.8,26.9 180.4,24.3 185.6,28 179,30.6 			"/>
			<polygon class="st5" points="194.5,24.5 188,27 182.7,23.4 189.1,20.9 			"/>
			<polygon class="st3" points="186.3,18.9 187,19.4 180.6,21.9 174.4,17.7 180.8,15.1 			"/>
		</g>
	</g>
	<g>
		<g>
			<g>
				<path class="st6" d="M12.2,12.9c0-0.1,0-0.1,0.1-0.1H14c0.1,0,0.1,0,0.1,0.1v3.3c0,0.2,0.1,0.4,0.3,0.5c0.2,0.1,0.4,0.2,0.8,0.2
					h0.3c0.2,0,0.3,0.1,0.4,0.2c0.1,0.1,0.1,0.3,0.1,0.6c0,0.6-0.2,0.9-0.6,0.9c-0.3,0-0.7,0-0.9-0.1S14.2,18.3,14,18
					c-0.1,0.3-0.3,0.5-0.6,0.6c-0.3,0.1-0.7,0.1-1.2,0.1h-7c-0.6,0-1-0.1-1.3-0.4s-0.4-0.7-0.4-1.3v-3.1c0-0.1,0-0.1,0.1-0.1h1.7
					c0.1,0,0.1,0,0.1,0.1v2.4c0,0.3,0.1,0.5,0.2,0.6S6,17,6.2,17h5.3c0.3,0,0.5-0.1,0.6-0.2c0.1-0.1,0.1-0.4,0.1-0.8V12.9z M8,21.5
					c-0.1,0-0.1,0-0.1-0.1V20c0-0.1,0-0.1,0.1-0.1h1.7c0.1,0,0.1,0,0.1,0.1v1.4c0,0.1,0,0.1-0.1,0.1H8z"/>
				<path class="st6" d="M15.5,18.7c-0.2,0-0.3-0.1-0.4-0.2S15,18.2,15,17.9c0-0.6,0.2-0.9,0.6-0.9h0.9c0.2,0,0.4-0.1,0.5-0.2
					c0.1-0.1,0.2-0.3,0.2-0.6v-3.3c0-0.1,0-0.1,0.1-0.1h1.7c0.1,0,0.1,0,0.1,0.1v4c0,0.6-0.1,1.1-0.4,1.3s-0.7,0.4-1.3,0.4H15.5z
					 M16,21.5c-0.1,0-0.1,0-0.1-0.1V20c0-0.1,0-0.1,0.1-0.1h1.4c0.1,0,0.1,0,0.1,0.1v1.4c0,0.1,0,0.1-0.1,0.1H16z M18.2,21.5
					c-0.1,0-0.1,0-0.1-0.1V20c0-0.1,0-0.1,0.1-0.1h1.4c0.1,0,0.1,0,0.1,0.1v1.4c0,0.1,0,0.1-0.1,0.1H18.2z"/>
				<path class="st6" d="M20.2,21.5c-0.1,0-0.1,0-0.1-0.1V20c0-0.1,0-0.1,0.1-0.1h0.3c0.4,0,0.7-0.1,0.8-0.3
					c0.2-0.2,0.2-0.5,0.2-0.9v-5.8c0-0.1,0-0.1,0.1-0.1h1.7c0.1,0,0.1,0,0.1,0.1v5.8c0,1-0.2,1.7-0.7,2.1s-1.1,0.7-2.1,0.7H20.2z"/>
				<path class="st6" d="M27.5,17c0.2,0,0.4,0,0.6,0s0.2-0.1,0.3-0.2c0.1-0.1,0.1-0.2,0.1-0.3c0-0.1,0-0.3,0-0.5v-0.8
					c0-0.4-0.1-0.6-0.3-0.8s-0.5-0.2-1-0.2h-1.6c-0.1,0-0.1,0-0.1-0.1v-1.4c0-0.1,0-0.1,0.1-0.1h2.2c0.9,0,1.5,0.2,2,0.6
					c0.5,0.4,0.7,1,0.7,2v1.2c0,0.2,0.1,0.4,0.3,0.6c0.2,0.1,0.4,0.2,0.8,0.2H32c0.2,0,0.3,0.1,0.4,0.2s0.1,0.3,0.1,0.6
					c0,0.6-0.2,0.9-0.6,0.9c-0.4,0-0.7-0.1-1-0.2c-0.3-0.1-0.5-0.3-0.7-0.6c-0.2,0.3-0.4,0.5-0.7,0.6c-0.3,0.1-0.7,0.2-1.1,0.2h-3.4
					c-0.1,0-0.1,0-0.1-0.1v-1.4c0-0.1,0-0.1,0.1-0.1H27.5z"/>
				<path class="st6" d="M33.6,12.9c0-0.1,0-0.1,0.1-0.1h1.7c0.1,0,0.1,0,0.1,0.1v3.3c0,0.2,0.1,0.4,0.3,0.6
					c0.2,0.1,0.4,0.2,0.8,0.2H37c0.2,0,0.3,0.1,0.4,0.2s0.1,0.3,0.1,0.6c0,0.6-0.2,0.9-0.6,0.9c-0.4,0-0.7,0-0.9-0.1
					s-0.5-0.3-0.7-0.6c-0.2,0.3-0.4,0.5-0.7,0.6c-0.3,0.1-0.7,0.1-1.2,0.1h-1.5c-0.2,0-0.3-0.1-0.4-0.2s-0.1-0.3-0.1-0.7
					s0-0.5,0.1-0.7c0.1-0.1,0.2-0.2,0.4-0.2h0.9c0.3,0,0.5-0.1,0.6-0.3c0.1-0.2,0.1-0.5,0.1-0.9V12.9z M32.8,11.3
					c-0.1,0-0.1,0-0.1-0.1V9.8c0-0.1,0-0.1,0.1-0.1h1.4c0.1,0,0.1,0,0.1,0.1v1.4c0,0.1,0,0.1-0.1,0.1H32.8z M35,11.3
					c-0.1,0-0.1,0-0.1-0.1V9.8c0-0.1,0-0.1,0.1-0.1h1.4c0.1,0,0.1,0,0.1,0.1v1.4c0,0.1,0,0.1-0.1,0.1H35z"/>
				<path class="st6" d="M37,18.7c-0.2,0-0.3,0-0.4-0.1c-0.1-0.1-0.1-0.2-0.1-0.4c0-0.1,0-0.2,0-0.4s0.1-0.3,0.1-0.4
					c0-0.1,0.1-0.2,0.2-0.3S36.9,17,37,17h0.5c0.2,0,0.4-0.1,0.5-0.2c0.1-0.1,0.2-0.3,0.2-0.6v-7c0-0.1,0-0.1,0.1-0.1H40
					c0.1,0,0.1,0,0.1,0.1v7.7c0,0.6-0.1,1.1-0.4,1.3c-0.3,0.3-0.7,0.4-1.3,0.4H37z"/>
				<path class="st6" d="M43.8,18.5c0,0.1,0,0.1-0.1,0.1H42c-0.1,0-0.1,0-0.1-0.1V9.2c0-0.1,0-0.1,0.1-0.1h1.7c0.1,0,0.1,0,0.1,0.1
					V18.5z"/>
				<path class="st6" d="M46.6,21.5c-0.1,0-0.1,0-0.1-0.1V20c0-0.1,0-0.1,0.1-0.1h1.6c0.2,0,0.4,0,0.5,0c0.1,0,0.3-0.1,0.4-0.2
					c0.1-0.1,0.2-0.2,0.3-0.4c0.1-0.2,0.1-0.4,0.1-0.6h-0.6c-0.6,0-1.1,0-1.5-0.1c-0.4-0.1-0.8-0.2-1.1-0.4s-0.6-0.5-0.7-0.9
					s-0.2-0.9-0.2-1.5c0-0.6,0.1-1.1,0.3-1.5c0.2-0.4,0.4-0.7,0.7-1s0.6-0.4,1-0.5c0.4-0.1,0.8-0.2,1.1-0.2c0.4,0,0.8,0.1,1.2,0.2
					c0.4,0.1,0.7,0.3,1,0.5c0.3,0.2,0.5,0.6,0.7,1s0.2,0.9,0.2,1.5v3.3c0,0.9-0.2,1.5-0.7,2c-0.4,0.4-1.1,0.6-2.1,0.6H46.6z
					 M48.4,14.2c-0.4,0-0.7,0.1-0.9,0.4s-0.3,0.6-0.3,1.1c0,0.5,0.1,0.9,0.3,1c0.2,0.2,0.5,0.3,0.9,0.3h1.1v-1.4
					C49.5,14.7,49.1,14.2,48.4,14.2z"/>
				<path class="st6" d="M60.7,18.8c-0.4,0-0.8-0.1-1.2-0.2c-0.4-0.1-0.7-0.3-0.9-0.5c-0.1,0.1-0.1,0.2-0.2,0.2
					c-0.1,0.1-0.1,0.1-0.2,0.2S58,18.7,58,18.8s-0.1,0.2-0.1,0.4v2.4h-2v-2.7c0-0.3,0-0.6,0.1-0.8s0.2-0.4,0.3-0.5
					c0.1-0.1,0.2-0.2,0.4-0.3c0.1-0.1,0.3-0.2,0.4-0.3c0.1-0.1,0.2-0.2,0.3-0.3s0.1-0.3,0.2-0.4c0-0.1,0-0.2,0-0.3
					c0-0.1,0-0.2,0-0.3c0-0.6,0.1-1.1,0.3-1.5c0.2-0.4,0.4-0.7,0.7-1c0.3-0.2,0.6-0.4,1-0.5c0.4-0.1,0.8-0.2,1.2-0.2
					c0.4,0,0.8,0.1,1.2,0.2c0.4,0.1,0.7,0.3,1,0.5c0.3,0.2,0.5,0.6,0.7,1c0.2,0.4,0.3,0.9,0.3,1.5c0,0.1,0,0.1,0,0.2s0,0.1,0,0.2
					c0,0.3,0.1,0.5,0.3,0.7c0.2,0.1,0.4,0.2,0.6,0.2H65c0.2,0,0.3,0.1,0.4,0.2s0.1,0.3,0.1,0.6c0,0.6-0.2,0.9-0.6,0.9
					c-0.2,0-0.3,0-0.5,0s-0.3,0-0.5-0.1c-0.2-0.1-0.3-0.1-0.5-0.2c-0.2-0.1-0.3-0.3-0.4-0.4c-0.3,0.3-0.6,0.6-1.1,0.7
					S61.2,18.8,60.7,18.8z M60.7,14.2c-0.8,0-1.2,0.5-1.2,1.4c0,0.5,0.1,0.9,0.3,1.1s0.5,0.3,0.9,0.3c0.4,0,0.7-0.1,0.9-0.3
					s0.3-0.6,0.3-1.1C61.8,14.7,61.4,14.2,60.7,14.2z"/>
				<path class="st6" d="M66.6,12.9c0-0.1,0-0.1,0.1-0.1h1.7c0.1,0,0.1,0,0.1,0.1v3.3c0,0.2,0.1,0.4,0.3,0.6
					c0.2,0.1,0.4,0.2,0.8,0.2H70c0.2,0,0.3,0.1,0.4,0.2s0.1,0.3,0.1,0.6c0,0.6-0.2,0.9-0.6,0.9c-0.4,0-0.7,0-0.9-0.1
					s-0.5-0.3-0.7-0.6c-0.2,0.3-0.4,0.5-0.7,0.6c-0.3,0.1-0.7,0.1-1.2,0.1h-1.5c-0.2,0-0.3-0.1-0.4-0.2s-0.1-0.3-0.1-0.7
					s0-0.5,0.1-0.7c0.1-0.1,0.2-0.2,0.4-0.2h0.9c0.3,0,0.5-0.1,0.6-0.3c0.1-0.2,0.1-0.5,0.1-0.9V12.9z M65.7,21.5
					c-0.1,0-0.1,0-0.1-0.1V20c0-0.1,0-0.1,0.1-0.1h1.4c0.1,0,0.1,0,0.1,0.1v1.4c0,0.1,0,0.1-0.1,0.1H65.7z M67.9,21.5
					c-0.1,0-0.1,0-0.1-0.1V20c0-0.1,0-0.1,0.1-0.1h1.4c0.1,0,0.1,0,0.1,0.1v1.4c0,0.1,0,0.1-0.1,0.1H67.9z"/>
				<path class="st6" d="M71.2,9.2c0-0.1,0-0.1,0.1-0.1H73c0.1,0,0.1,0,0.1,0.1v7c0,0.2,0.1,0.4,0.3,0.6c0.2,0.1,0.4,0.2,0.8,0.2
					h0.3c0.2,0,0.3,0.1,0.4,0.2c0.1,0.1,0.1,0.3,0.1,0.6c0,0.6-0.2,0.9-0.6,0.9c-0.4,0-0.7,0-0.9-0.1S73.1,18.3,73,18
					c-0.1,0.3-0.3,0.5-0.6,0.6c-0.3,0.1-0.6,0.1-1.1,0.1H70c-0.2,0-0.3,0-0.4-0.1c-0.1-0.1-0.1-0.2-0.1-0.4c0-0.1,0-0.2,0-0.4
					s0.1-0.3,0.1-0.4c0-0.1,0.1-0.2,0.2-0.3S69.9,17,70,17h0.5c0.2,0,0.3,0,0.4-0.1c0.1-0.1,0.2-0.1,0.2-0.2c0-0.1,0.1-0.2,0.1-0.4
					c0-0.2,0-0.3,0-0.5V9.2z"/>
				<path class="st6" d="M78.6,12.5c0.6,0,1.1,0.1,1.5,0.2c0.4,0.1,0.8,0.3,1,0.5c0.3,0.2,0.5,0.4,0.6,0.7s0.2,0.6,0.2,0.9
					c0,0.3,0,0.5-0.1,0.7c-0.1,0.2-0.2,0.4-0.3,0.6c-0.1,0.2-0.3,0.4-0.4,0.5s-0.3,0.3-0.5,0.4c0.1,0,0.2,0,0.3,0c0.1,0,0.2,0,0.3,0
					h1.5c0.2,0,0.3,0.1,0.4,0.2c0.1,0.1,0.1,0.3,0.1,0.6c0,0.3,0,0.6-0.1,0.7s-0.2,0.2-0.4,0.2h-2.2c-0.3,0-0.7,0-1-0.1
					s-0.6-0.2-0.9-0.3c-0.3,0.2-0.6,0.3-1,0.3c-0.3,0.1-0.7,0.1-0.9,0.1h-2.1c-0.2,0-0.3-0.1-0.4-0.2C74,18.4,74,18.2,74,17.8
					c0-0.3,0-0.5,0.1-0.6c0.1-0.2,0.2-0.2,0.4-0.2H76c0.2,0,0.3,0,0.5,0c0.2,0,0.4,0,0.5-0.1c-0.1-0.4-0.3-0.7-0.6-1.1
					c-0.3-0.3-0.6-0.6-1-0.8c-0.1-0.1-0.1-0.1-0.2-0.2c0-0.1,0-0.2,0-0.3v-0.9c0-0.1,0.1-0.2,0.3-0.4c0.2-0.1,0.5-0.2,0.8-0.3
					c0.3-0.1,0.7-0.2,1.1-0.2C77.8,12.5,78.2,12.5,78.6,12.5z M78.7,16.6c0.3-0.2,0.6-0.4,0.8-0.7c0.2-0.3,0.3-0.6,0.3-0.9
					c0-0.3-0.1-0.5-0.3-0.7s-0.5-0.2-0.9-0.2c-0.3,0-0.6,0-0.8,0.1s-0.4,0.1-0.5,0.2c0.4,0.3,0.7,0.6,1,1
					C78.4,15.8,78.6,16.2,78.7,16.6z"/>
				<path class="st6" d="M84.2,12.9c0-0.1,0-0.1,0.1-0.1h1.7c0.1,0,0.1,0,0.1,0.1v3.3c0,0.2,0.1,0.4,0.3,0.6
					c0.2,0.1,0.4,0.2,0.8,0.2h0.3c0.2,0,0.3,0.1,0.4,0.2s0.1,0.3,0.1,0.6c0,0.6-0.2,0.9-0.6,0.9c-0.4,0-0.7,0-0.9-0.1
					S86.2,18.3,86,18c-0.2,0.3-0.4,0.5-0.7,0.6c-0.3,0.1-0.7,0.1-1.2,0.1h-1.5c-0.2,0-0.3-0.1-0.4-0.2s-0.1-0.3-0.1-0.7
					s0-0.5,0.1-0.7c0.1-0.1,0.2-0.2,0.4-0.2h0.9c0.3,0,0.5-0.1,0.6-0.3c0.1-0.2,0.1-0.5,0.1-0.9V12.9z M83.4,11.3
					c-0.1,0-0.1,0-0.1-0.1V9.8c0-0.1,0-0.1,0.1-0.1h1.4c0.1,0,0.1,0,0.1,0.1v1.4c0,0.1,0,0.1-0.1,0.1H83.4z M85.6,11.3
					c-0.1,0-0.1,0-0.1-0.1V9.8c0-0.1,0-0.1,0.1-0.1H87c0.1,0,0.1,0,0.1,0.1v1.4c0,0.1,0,0.1-0.1,0.1H85.6z"/>
				<path class="st6" d="M87.6,18.7c-0.2,0-0.3,0-0.4-0.1c-0.1-0.1-0.1-0.2-0.1-0.4c0-0.1,0-0.2,0-0.4s0.1-0.3,0.1-0.4
					c0-0.1,0.1-0.2,0.2-0.3s0.2-0.1,0.3-0.1h0.5c0.2,0,0.4-0.1,0.5-0.2c0.1-0.1,0.2-0.3,0.2-0.6v-7c0-0.1,0-0.1,0.1-0.1h1.7
					c0.1,0,0.1,0,0.1,0.1v7.7c0,0.6-0.1,1.1-0.4,1.3c-0.3,0.3-0.7,0.4-1.3,0.4H87.6z"/>
				<path class="st6" d="M94.4,18.5c0,0.1,0,0.1-0.1,0.1h-1.7c-0.1,0-0.1,0-0.1-0.1V9.2c0-0.1,0-0.1,0.1-0.1h1.7
					c0.1,0,0.1,0,0.1,0.1V18.5z"/>
				<path class="st6" d="M103.7,18.8c-0.4,0-0.8-0.1-1.2-0.2c-0.4-0.1-0.7-0.3-0.9-0.5c-0.1,0.1-0.1,0.2-0.2,0.2
					c-0.1,0.1-0.1,0.1-0.2,0.2s-0.1,0.2-0.2,0.3c0,0.1-0.1,0.2-0.1,0.4v2.4h-2v-2.7c0-0.3,0-0.6,0.1-0.8s0.2-0.4,0.3-0.5
					c0.1-0.1,0.2-0.2,0.4-0.3c0.1-0.1,0.3-0.2,0.4-0.3c0.1-0.1,0.2-0.2,0.3-0.3s0.1-0.3,0.2-0.4c0-0.1,0-0.2,0-0.3
					c0-0.1,0-0.2,0-0.3c0-0.6,0.1-1.1,0.3-1.5c0.2-0.4,0.4-0.7,0.7-1c0.3-0.2,0.6-0.4,1-0.5c0.4-0.1,0.8-0.2,1.2-0.2
					c0.4,0,0.8,0.1,1.2,0.2c0.4,0.1,0.7,0.3,1,0.5c0.3,0.2,0.5,0.6,0.7,1c0.2,0.4,0.3,0.9,0.3,1.5c0,0.1,0,0.1,0,0.2s0,0.1,0,0.2
					c0,0.3,0.1,0.5,0.3,0.7c0.2,0.1,0.4,0.2,0.6,0.2h0.4c0.2,0,0.3,0.1,0.4,0.2s0.1,0.3,0.1,0.6c0,0.6-0.2,0.9-0.6,0.9
					c-0.2,0-0.3,0-0.5,0s-0.3,0-0.5-0.1c-0.2-0.1-0.3-0.1-0.5-0.2c-0.2-0.1-0.3-0.3-0.4-0.4c-0.3,0.3-0.6,0.6-1.1,0.7
					S104.2,18.8,103.7,18.8z M103.7,14.2c-0.8,0-1.2,0.5-1.2,1.4c0,0.5,0.1,0.9,0.3,1.1s0.5,0.3,0.9,0.3c0.4,0,0.7-0.1,0.9-0.3
					s0.3-0.6,0.3-1.1C104.8,14.7,104.5,14.2,103.7,14.2z"/>
				<path class="st6" d="M108.1,18.7c-0.2,0-0.3-0.1-0.4-0.2s-0.1-0.3-0.1-0.6c0-0.6,0.2-0.9,0.6-0.9h0.9c0.2,0,0.4-0.1,0.5-0.2
					c0.1-0.1,0.2-0.3,0.2-0.6v-3.3c0-0.1,0-0.1,0.1-0.1h1.7c0.1,0,0.1,0,0.1,0.1v4c0,0.6-0.1,1.1-0.4,1.3s-0.7,0.4-1.3,0.4H108.1z
					 M108.6,21.5c-0.1,0-0.1,0-0.1-0.1V20c0-0.1,0-0.1,0.1-0.1h1.4c0.1,0,0.1,0,0.1,0.1v1.4c0,0.1,0,0.1-0.1,0.1H108.6z M110.7,21.5
					c-0.1,0-0.1,0-0.1-0.1V20c0-0.1,0-0.1,0.1-0.1h1.4c0.1,0,0.1,0,0.1,0.1v1.4c0,0.1,0,0.1-0.1,0.1H110.7z"/>
				<path class="st6" d="M114.5,21.5c-0.1,0-0.1,0-0.1-0.1V20c0-0.1,0-0.1,0.1-0.1h1.6c0.2,0,0.4,0,0.5,0c0.2,0,0.3-0.1,0.4-0.2
					c0.1-0.1,0.2-0.2,0.2-0.4c0.1-0.2,0.1-0.4,0.1-0.6H116c-0.9,0-1.6-0.2-2.1-0.7c-0.5-0.4-0.7-1.2-0.7-2.3c0-0.6,0.1-1.1,0.3-1.5
					c0.2-0.4,0.4-0.7,0.7-1s0.6-0.4,1-0.5c0.4-0.1,0.8-0.2,1.1-0.2c0.4,0,0.8,0.1,1.2,0.2c0.4,0.1,0.7,0.3,1,0.5
					c0.3,0.2,0.5,0.6,0.7,1s0.2,0.9,0.2,1.5V17h1c0.4,0,0.6,0.3,0.6,0.8c0,0.4,0,0.6-0.1,0.7c-0.1,0.1-0.2,0.2-0.4,0.2h-1v0.3
					c0,0.9-0.2,1.5-0.7,2c-0.4,0.4-1.1,0.6-2.1,0.6H114.5z M116.3,14.2c-0.4,0-0.7,0.1-0.9,0.4c-0.2,0.3-0.3,0.6-0.3,1.1
					c0,0.5,0.1,0.9,0.3,1c0.2,0.2,0.5,0.3,0.9,0.3h1.1v-1.4C117.4,14.7,117,14.2,116.3,14.2z"/>
				<path class="st6" d="M124.2,12.5c0.5,0,0.9,0.1,1.3,0.2s0.7,0.3,1,0.5s0.5,0.5,0.6,0.8s0.2,0.6,0.2,1c0,0.4-0.1,0.8-0.3,1.2
					c-0.2,0.4-0.5,0.6-0.8,0.9c0.1,0,0.2,0,0.2,0c0.1,0,0.2,0,0.2,0h1.4c0.2,0,0.3,0.1,0.4,0.2c0.1,0.1,0.1,0.3,0.1,0.7
					c0,0.3,0,0.5-0.1,0.7c-0.1,0.1-0.2,0.2-0.4,0.2h-2.1c-0.3,0-0.7,0-1,0c-0.3,0-0.6-0.1-0.9-0.3c-0.3,0.2-0.6,0.3-1,0.3
					c-0.4,0-0.7,0-0.9,0h-2c-0.2,0-0.3-0.1-0.4-0.2c-0.1-0.1-0.1-0.4-0.1-0.7c0-0.3,0-0.5,0.1-0.6c0.1-0.1,0.2-0.2,0.4-0.2h1.9
					c-0.3-0.2-0.6-0.5-0.8-0.9c-0.2-0.4-0.3-0.7-0.3-1.2c0-0.4,0.1-0.7,0.2-1c0.1-0.3,0.4-0.6,0.6-0.8c0.3-0.2,0.6-0.4,1-0.5
					S123.8,12.5,124.2,12.5z M122.5,11.3c-0.1,0-0.1,0-0.1-0.1V9.8c0-0.1,0-0.1,0.1-0.1h1.4c0.1,0,0.1,0,0.1,0.1v1.4
					c0,0.1,0,0.1-0.1,0.1H122.5z M124.2,13.9c-0.3,0-0.6,0.1-0.8,0.3c-0.2,0.2-0.3,0.5-0.3,0.9c0,0.4,0.1,0.8,0.3,1
					c0.2,0.3,0.5,0.5,0.8,0.6c0.3-0.2,0.6-0.4,0.8-0.6c0.2-0.3,0.3-0.6,0.3-1c0-0.4-0.1-0.7-0.4-0.9C124.8,14,124.5,13.9,124.2,13.9
					z M124.6,11.3c-0.1,0-0.1,0-0.1-0.1V9.8c0-0.1,0-0.1,0.1-0.1h1.4c0.1,0,0.1,0,0.1,0.1v1.4c0,0.1,0,0.1-0.1,0.1H124.6z"/>
				<path class="st6" d="M128.2,18.7c-0.2,0-0.3-0.1-0.4-0.2s-0.1-0.3-0.1-0.6c0-0.6,0.2-0.9,0.6-0.9h0.9c0.2,0,0.4-0.1,0.5-0.2
					c0.1-0.1,0.2-0.3,0.2-0.6v-3.3c0-0.1,0-0.1,0.1-0.1h1.7c0.1,0,0.1,0,0.1,0.1v4c0,0.6-0.1,1.1-0.4,1.3s-0.7,0.4-1.3,0.4H128.2z
					 M128.8,11.3c-0.1,0-0.1,0-0.1-0.1V9.8c0-0.1,0-0.1,0.1-0.1h1.4c0.1,0,0.1,0,0.1,0.1v1.4c0,0.1,0,0.1-0.1,0.1H128.8z M131,11.3
					c-0.1,0-0.1,0-0.1-0.1V9.8c0-0.1,0-0.1,0.1-0.1h1.4c0.1,0,0.1,0,0.1,0.1v1.4c0,0.1,0,0.1-0.1,0.1H131z"/>
				<path class="st6" d="M140.7,12.5v-0.6c0-0.1,0-0.1,0.1-0.1h1.7c0.1,0,0.1,0,0.1,0.1v4.3c0,0.3,0.1,0.5,0.2,0.6
					c0.1,0.1,0.3,0.2,0.5,0.2h0.4c0.4,0,0.6,0.3,0.6,0.9c0,0.3,0,0.6-0.1,0.7c-0.1,0.1-0.2,0.2-0.4,0.2h-1.5c-0.5,0-0.8-0.1-1.1-0.2
					c-0.3-0.1-0.4-0.4-0.5-0.8c-0.2,0.2-0.4,0.3-0.7,0.4s-0.6,0.1-0.9,0.1c-0.4,0-0.7-0.1-1-0.2s-0.6-0.3-0.9-0.5
					c-0.3-0.2-0.5-0.5-0.6-0.8s-0.2-0.8-0.2-1.3c0-0.6,0.1-1,0.2-1.4s0.4-0.7,0.6-0.9c0.3-0.2,0.6-0.4,0.9-0.5
					c0.3-0.1,0.7-0.1,1-0.1H140.7z M137.9,10.7c-0.1,0-0.1,0-0.1-0.1V9.2c0-0.1,0-0.1,0.1-0.1h1.4c0.1,0,0.1,0,0.1,0.1v1.4
					c0,0.1,0,0.1-0.1,0.1H137.9z M139.6,16.4c0.4,0,0.6-0.1,0.9-0.3c0.2-0.2,0.3-0.5,0.3-1v-1h-1.1c-0.4,0-0.6,0.1-0.9,0.3
					s-0.3,0.5-0.3,0.9c0,0.4,0.1,0.7,0.3,0.8S139.2,16.4,139.6,16.4z M140.1,10.7c-0.1,0-0.1,0-0.1-0.1V9.2c0-0.1,0-0.1,0.1-0.1h1.4
					c0.1,0,0.1,0,0.1,0.1v1.4c0,0.1,0,0.1-0.1,0.1H140.1z"/>
				<path class="st6" d="M147,18c-0.2,0.3-0.4,0.5-0.7,0.6c-0.3,0.1-0.7,0.1-1.2,0.1H144c-0.2,0-0.3,0-0.4-0.1s-0.1-0.2-0.1-0.4
					c0-0.1,0-0.3,0-0.4c0-0.1,0.1-0.3,0.1-0.4c0-0.1,0.1-0.2,0.2-0.3s0.2-0.1,0.3-0.1h0.5c0.3,0,0.5-0.1,0.6-0.2
					c0.1-0.2,0.1-0.5,0.1-0.9v-3c0-0.1,0.1-0.1,0.2-0.1s0.3,0,0.4,0h1.3c0.1,0,0.1,0,0.1,0.1v3.3c0,0.2,0.1,0.4,0.3,0.6
					c0.2,0.1,0.4,0.2,0.8,0.2h0.3c0.2,0,0.3,0.1,0.4,0.2s0.1,0.3,0.1,0.6c0,0.6-0.2,0.9-0.6,0.9c-0.4,0-0.7,0-0.9-0.1
					S147.2,18.3,147,18z M145.1,10.5c-0.1-0.1-0.1-0.2-0.1-0.3c0-0.1-0.1-0.2-0.1-0.4c0-0.2,0-0.3,0.1-0.5c0.1-0.2,0.2-0.3,0.3-0.4
					c0.1-0.1,0.3-0.2,0.5-0.3s0.4-0.1,0.7-0.1c0.3,0,0.6,0.1,0.8,0.2c0.2,0.1,0.4,0.2,0.5,0.4c0,0,0,0.1,0,0.1l-0.5,0.5
					c0,0-0.1,0-0.1,0c-0.1-0.1-0.2-0.2-0.3-0.2c-0.1-0.1-0.2-0.1-0.4-0.1c-0.2,0-0.3,0.1-0.4,0.2c-0.1,0.1-0.2,0.2-0.2,0.4
					c0,0.2,0,0.3,0.1,0.4c0.1,0.1,0.2,0.2,0.3,0.2h1.5c0.1,0,0.1,0,0.1,0.1v0.7c0,0.1,0,0.1-0.1,0.1h-3.2c-0.1,0-0.1,0-0.1-0.1v-0.7
					c0-0.1,0-0.1,0.1-0.1H145.1z"/>
				<path class="st6" d="M150.1,12.9c0-0.1,0-0.1,0.1-0.1h1.7c0.1,0,0.1,0,0.1,0.1v3.3c0,0.2,0.1,0.4,0.3,0.6
					c0.2,0.1,0.4,0.2,0.8,0.2h0.3c0.2,0,0.3,0.1,0.4,0.2s0.1,0.3,0.1,0.6c0,0.6-0.2,0.9-0.6,0.9c-0.4,0-0.7,0-0.9-0.1
					s-0.5-0.3-0.7-0.6c-0.2,0.3-0.4,0.5-0.7,0.6c-0.3,0.1-0.7,0.1-1.2,0.1h-1.5c-0.2,0-0.3-0.1-0.4-0.2s-0.1-0.3-0.1-0.7
					s0-0.5,0.1-0.7c0.1-0.1,0.2-0.2,0.4-0.2h0.9c0.3,0,0.5-0.1,0.6-0.3c0.1-0.2,0.1-0.5,0.1-0.9V12.9z M149.2,21.5
					c-0.1,0-0.1,0-0.1-0.1V20c0-0.1,0-0.1,0.1-0.1h1.4c0.1,0,0.1,0,0.1,0.1v1.4c0,0.1,0,0.1-0.1,0.1H149.2z M151.4,21.5
					c-0.1,0-0.1,0-0.1-0.1V20c0-0.1,0-0.1,0.1-0.1h1.4c0.1,0,0.1,0,0.1,0.1v1.4c0,0.1,0,0.1-0.1,0.1H151.4z"/>
				<path class="st6" d="M153.5,18.7c-0.2,0-0.3-0.1-0.4-0.2s-0.1-0.3-0.1-0.6c0-0.3,0-0.5,0.1-0.7c0.1-0.1,0.2-0.2,0.4-0.2h1.4
					c-0.1-0.3-0.2-0.6-0.2-1c0-0.4,0.1-0.7,0.2-1c0.1-0.3,0.3-0.5,0.5-0.7c0.2-0.2,0.4-0.3,0.7-0.4c0.3-0.1,0.5-0.1,0.8-0.1
					c0.7,0,1.3,0.2,1.7,0.5c0.4,0.3,0.6,0.9,0.6,1.6c0,0.2,0,0.4-0.1,0.5c-0.1,0.2-0.1,0.3-0.2,0.4c0.4,0,0.7-0.1,0.8-0.4
					c0.1-0.3,0.2-0.6,0.2-0.9c0-0.4-0.1-0.7-0.2-0.9c-0.1-0.3-0.3-0.5-0.5-0.6s-0.5-0.3-0.8-0.4c-0.3-0.1-0.6-0.1-1-0.1
					c-0.3,0-0.7,0-1,0.1c-0.4,0.1-0.7,0.1-1,0.2c0,0-0.1,0-0.1,0c-0.1,0-0.1,0-0.1-0.1l-0.3-1.1c0-0.1,0-0.1,0-0.1
					c0,0,0-0.1,0.1-0.1c0.5-0.2,0.9-0.3,1.4-0.4c0.4-0.1,1-0.2,1.6-0.2c0.8,0,1.4,0.1,2,0.3c0.5,0.2,0.9,0.5,1.2,0.8
					s0.5,0.7,0.6,1.2s0.2,0.9,0.2,1.3c0,0.5,0,1-0.1,1.4c-0.1,0.4-0.3,0.7-0.5,1c-0.2,0.3-0.5,0.4-0.9,0.6c-0.4,0.1-0.8,0.2-1.3,0.2
					H153.5z M156.9,15c-0.3,0-0.5,0.1-0.6,0.3c-0.1,0.2-0.2,0.4-0.2,0.7c0,0.3,0.1,0.6,0.2,0.7c0.1,0.2,0.3,0.2,0.5,0.3h0.2
					c0.2,0,0.4-0.1,0.5-0.3s0.2-0.4,0.2-0.7c0-0.3-0.1-0.6-0.2-0.7C157.3,15.1,157.1,15,156.9,15z"/>
			</g>
			<g>
				<path class="st6" d="M3.4,24.8C3.4,24.8,3.4,24.8,3.4,24.8l3.5-0.1c0.1,0,0.1,0,0.1,0.1v0.5c0,0.1,0,0.1-0.1,0.1H4.2
					c0,0-0.1,0-0.1,0.1v1.7c0,0,0,0,0.1,0h2.3c0.1,0,0.1,0,0.1,0.1v0.5c0,0.1,0,0.1-0.1,0.1H4.2c0,0-0.1,0-0.1,0.1v1.7
					c0,0,0,0,0.1,0h2.7c0.1,0,0.1,0,0.1,0.1v0.5c0,0.1,0,0.1-0.1,0.1H3.4c-0.1,0-0.1,0-0.1-0.1V24.8z"/>
				<path class="st6" d="M10.5,30.4C10.5,30.4,10.4,30.4,10.5,30.4l-0.1-0.5h0c-0.1,0.2-0.2,0.3-0.4,0.4c-0.2,0.1-0.4,0.2-0.7,0.2
					c-0.3,0-0.6-0.1-0.9-0.2c-0.2-0.2-0.4-0.4-0.5-0.7c-0.1-0.2-0.1-0.3-0.1-0.5c0-0.2,0-0.4,0-0.6c0-0.2,0-0.5,0-0.6
					c0-0.2,0.1-0.3,0.1-0.5C8,27,8.2,26.7,8.4,26.6c0.2-0.2,0.5-0.2,0.9-0.2c0.3,0,0.5,0.1,0.7,0.2s0.3,0.2,0.4,0.4h0v-2
					c0-0.1,0-0.1,0.1-0.1h0.5c0.1,0,0.1,0,0.1,0.1v5.5c0,0.1,0,0.1-0.1,0.1H10.5z M9.5,29.9c0.5,0,0.7-0.2,0.9-0.6
					c0-0.1,0.1-0.2,0.1-0.3c0-0.1,0-0.3,0-0.5c0-0.2,0-0.4,0-0.5c0-0.1,0-0.2-0.1-0.3C10.2,27.2,9.9,27,9.5,27
					c-0.4,0-0.7,0.2-0.9,0.6c0,0.1-0.1,0.2-0.1,0.4s0,0.3,0,0.5c0,0.2,0,0.3,0,0.5s0,0.3,0.1,0.4C8.7,29.7,9,29.9,9.5,29.9z"/>
				<path class="st6" d="M15,30.4C15,30.4,14.9,30.4,15,30.4L14.9,30h0c-0.1,0.2-0.2,0.3-0.4,0.4c-0.2,0.1-0.4,0.1-0.7,0.1
					c-0.4,0-0.8-0.1-1-0.4c-0.2-0.3-0.4-0.6-0.4-1.1v-2.5c0-0.1,0-0.1,0.1-0.1h0.5c0.1,0,0.1,0,0.1,0.1v2.3c0,0.3,0.1,0.6,0.2,0.8
					c0.1,0.2,0.4,0.3,0.7,0.3c0.3,0,0.5-0.1,0.7-0.3c0.2-0.2,0.2-0.4,0.2-0.7v-2.4c0-0.1,0-0.1,0.1-0.1h0.5c0.1,0,0.1,0,0.1,0.1v3.8
					c0,0.1,0,0.1-0.1,0.1H15z"/>
				<path class="st6" d="M16.8,28.4c0-0.2,0-0.4,0-0.6c0-0.2,0.1-0.3,0.1-0.4c0.1-0.3,0.3-0.6,0.6-0.8s0.6-0.3,1-0.3
					c0.3,0,0.6,0.1,0.8,0.2s0.4,0.3,0.6,0.5c0,0,0,0.1,0,0.1l-0.4,0.3c0,0-0.1,0-0.1,0c-0.1-0.1-0.2-0.3-0.4-0.3
					C18.8,27,18.7,27,18.5,27c-0.2,0-0.4,0.1-0.6,0.2c-0.2,0.1-0.3,0.3-0.3,0.5c0,0.1-0.1,0.2-0.1,0.3c0,0.1,0,0.3,0,0.5
					c0,0.2,0,0.3,0,0.5s0,0.2,0.1,0.4c0.1,0.2,0.2,0.4,0.3,0.5c0.2,0.1,0.3,0.2,0.6,0.2c0.2,0,0.4,0,0.5-0.1
					c0.1-0.1,0.2-0.2,0.4-0.3c0,0,0.1,0,0.1,0l0.4,0.3c0,0,0.1,0.1,0,0.1c-0.1,0.2-0.3,0.4-0.6,0.5s-0.5,0.2-0.8,0.2
					c-0.4,0-0.7-0.1-1-0.3s-0.5-0.4-0.6-0.8c0-0.1-0.1-0.3-0.1-0.4C16.8,28.8,16.8,28.6,16.8,28.4z"/>
				<path class="st6" d="M23.2,30.4C23.2,30.4,23.2,30.4,23.2,30.4L23.2,30h0c-0.1,0.1-0.2,0.3-0.4,0.4c-0.2,0.1-0.4,0.1-0.7,0.1
					c-0.2,0-0.4,0-0.5-0.1c-0.2,0-0.3-0.1-0.4-0.2c-0.1-0.1-0.2-0.2-0.3-0.4c-0.1-0.1-0.1-0.3-0.1-0.5c0-0.4,0.1-0.7,0.4-0.9
					c0.3-0.2,0.7-0.3,1.1-0.3h0.9c0,0,0,0,0,0v-0.3c0-0.3-0.1-0.5-0.2-0.6C22.8,27,22.6,27,22.2,27c-0.2,0-0.4,0-0.6,0.1
					c-0.2,0.1-0.3,0.1-0.4,0.2c-0.1,0-0.1,0-0.1,0l-0.2-0.4c0,0,0-0.1,0-0.1c0.2-0.1,0.3-0.2,0.6-0.3s0.5-0.1,0.8-0.1
					c0.6,0,1,0.1,1.2,0.3c0.2,0.2,0.4,0.6,0.4,1v2.6c0,0.1,0,0.1-0.1,0.1H23.2z M22.1,29.9c0.3,0,0.6-0.1,0.7-0.2
					c0.2-0.1,0.3-0.3,0.3-0.6v-0.4c0,0,0,0,0,0h-0.8c-0.3,0-0.6,0.1-0.8,0.2c-0.2,0.1-0.2,0.3-0.2,0.5c0,0.2,0.1,0.4,0.2,0.5
					C21.7,29.9,21.9,29.9,22.1,29.9z"/>
				<path class="st6" d="M26.3,30.5c-0.4,0-0.7-0.1-0.8-0.3c-0.2-0.2-0.2-0.5-0.2-0.9V27c0,0,0,0,0,0h-0.3c-0.1,0-0.1,0-0.1-0.1
					v-0.4c0-0.1,0-0.1,0.1-0.1h0.3c0,0,0,0,0,0v-1.1c0-0.1,0-0.1,0.1-0.1h0.5c0.1,0,0.1,0,0.1,0.1v1.1c0,0,0,0,0,0h0.6
					c0.1,0,0.1,0,0.1,0.1v0.4c0,0.1,0,0.1-0.1,0.1H26c0,0,0,0,0,0v2.3c0,0.2,0,0.3,0.1,0.4c0.1,0.1,0.2,0.1,0.4,0.1h0.2
					c0.1,0,0.1,0,0.1,0.1v0.5c0,0.1,0,0.1-0.1,0.1H26.3z"/>
				<path class="st6" d="M27.8,25.5C27.8,25.5,27.8,25.5,27.8,25.5l-0.1-0.7c0-0.1,0-0.1,0.1-0.1h0.6c0.1,0,0.1,0,0.1,0.1v0.6
					c0,0.1,0,0.1-0.1,0.1H27.8z M27.9,30.4C27.8,30.4,27.8,30.4,27.9,30.4l-0.1-3.9c0-0.1,0-0.1,0.1-0.1h0.5c0.1,0,0.1,0,0.1,0.1
					v3.8c0,0.1,0,0.1-0.1,0.1H27.9z"/>
				<path class="st6" d="M31.3,30.5c-0.4,0-0.7-0.1-1-0.3c-0.3-0.2-0.5-0.5-0.6-0.8c0-0.1-0.1-0.3-0.1-0.4c0-0.2,0-0.3,0-0.6
					c0-0.2,0-0.4,0-0.6s0.1-0.3,0.1-0.4c0.1-0.3,0.3-0.6,0.6-0.8c0.3-0.2,0.6-0.3,1-0.3s0.7,0.1,1,0.3c0.3,0.2,0.5,0.5,0.6,0.8
					c0,0.1,0.1,0.3,0.1,0.4c0,0.1,0,0.3,0,0.6c0,0.2,0,0.4,0,0.6c0,0.2-0.1,0.3-0.1,0.4c-0.1,0.3-0.3,0.6-0.6,0.8
					S31.7,30.5,31.3,30.5z M31.3,29.9c0.2,0,0.4-0.1,0.6-0.2c0.2-0.1,0.3-0.3,0.3-0.5c0-0.1,0.1-0.2,0.1-0.3c0-0.1,0-0.3,0-0.5
					c0-0.2,0-0.3,0-0.5c0-0.1,0-0.2-0.1-0.3c-0.1-0.2-0.2-0.4-0.3-0.5C31.7,27,31.5,27,31.3,27s-0.4,0.1-0.6,0.2
					c-0.2,0.1-0.3,0.3-0.3,0.5c0,0.1-0.1,0.2-0.1,0.3c0,0.1,0,0.3,0,0.5c0,0.2,0,0.4,0,0.5c0,0.1,0,0.2,0.1,0.3
					c0.1,0.2,0.2,0.4,0.3,0.5C30.9,29.8,31.1,29.9,31.3,29.9z"/>
				<path class="st6" d="M36.7,30.4C36.7,30.4,36.6,30.4,36.7,30.4L36.6,28c0-0.3-0.1-0.6-0.2-0.7c-0.1-0.2-0.4-0.3-0.7-0.3
					c-0.3,0-0.5,0.1-0.7,0.3s-0.3,0.4-0.3,0.7v2.4c0,0.1,0,0.1-0.1,0.1h-0.5c-0.1,0-0.1,0-0.1-0.1v-3.8c0-0.1,0-0.1,0.1-0.1h0.5
					c0.1,0,0.1,0,0.1,0.1v0.4h0c0.1-0.2,0.2-0.3,0.4-0.4s0.4-0.2,0.7-0.2c0.4,0,0.8,0.1,1,0.4s0.4,0.6,0.4,1.1v2.5
					c0,0.1,0,0.1-0.1,0.1H36.7z"/>
				<path class="st6" d="M40.6,29c0-0.3,0.1-0.6,0.3-0.9c0.2-0.3,0.5-0.6,0.9-0.9c-0.1-0.2-0.2-0.3-0.3-0.4
					c-0.1-0.1-0.2-0.2-0.2-0.3c-0.1-0.1-0.1-0.2-0.1-0.3c0-0.1,0-0.2,0-0.3c0-0.2,0-0.3,0.1-0.5s0.2-0.3,0.3-0.4
					c0.1-0.1,0.3-0.2,0.4-0.3s0.3-0.1,0.5-0.1c0.2,0,0.4,0,0.5,0.1c0.2,0.1,0.3,0.2,0.4,0.3c0.1,0.1,0.2,0.2,0.3,0.4
					c0.1,0.1,0.1,0.3,0.1,0.5c0,0.1,0,0.2-0.1,0.4s-0.1,0.2-0.2,0.3c-0.1,0.1-0.2,0.2-0.3,0.4c-0.1,0.1-0.3,0.3-0.5,0.4l1.1,1.4
					l0.6-0.7c0,0,0.1,0,0.1,0l0.3,0.3c0,0,0,0.1,0,0.1L44,29.2l0.3,0.4c0.1,0.1,0.1,0.1,0.2,0.1s0.1,0,0.2,0h0.1
					c0.1,0,0.1,0,0.1,0.1v0.5c0,0.1,0,0.1-0.1,0.1h-0.2c-0.2,0-0.3,0-0.4-0.1c-0.1-0.1-0.2-0.2-0.3-0.3l-0.2-0.3
					c-0.2,0.3-0.5,0.5-0.7,0.6s-0.5,0.2-0.8,0.2c-0.2,0-0.5,0-0.6-0.1c-0.2-0.1-0.3-0.2-0.5-0.3s-0.2-0.3-0.3-0.5S40.6,29.2,40.6,29
					z M41.2,29c0,0.3,0.1,0.5,0.2,0.7c0.2,0.2,0.4,0.2,0.7,0.2c0.2,0,0.4,0,0.5-0.1c0.2-0.1,0.4-0.3,0.6-0.5l-1.1-1.5
					c-0.3,0.2-0.5,0.4-0.6,0.6C41.3,28.6,41.2,28.8,41.2,29z M42.2,26.8c0.2-0.1,0.3-0.2,0.4-0.3c0.1-0.1,0.2-0.2,0.2-0.2
					c0-0.1,0.1-0.1,0.1-0.2c0-0.1,0-0.1,0-0.2c0-0.2-0.1-0.3-0.2-0.4s-0.3-0.2-0.5-0.2c-0.2,0-0.4,0.1-0.5,0.2
					c-0.1,0.1-0.2,0.3-0.2,0.4c0,0.1,0,0.1,0,0.2c0,0.1,0,0.1,0.1,0.2c0,0.1,0.1,0.2,0.2,0.2C42,26.6,42.1,26.7,42.2,26.8z"/>
				<path class="st6" d="M49.1,30.4C49.1,30.4,49,30.4,49.1,30.4L49,25.5c0,0,0-0.1,0-0.1h-1.5c-0.1,0-0.1,0-0.1-0.1v-0.5
					c0-0.1,0-0.1,0.1-0.1h3.9c0.1,0,0.1,0,0.1,0.1v0.5c0,0.1,0,0.1-0.1,0.1h-1.5c0,0,0,0,0,0.1v4.8c0,0.1,0,0.1-0.1,0.1H49.1z"/>
				<path class="st6" d="M52.4,30.4C52.3,30.4,52.3,30.4,52.4,30.4l-0.1-3.9c0-0.1,0-0.1,0.1-0.1h0.5c0.1,0,0.1,0,0.1,0.1v0.4h0
					c0.1-0.2,0.2-0.3,0.4-0.4c0.2-0.1,0.4-0.2,0.7-0.2c0.2,0,0.3,0,0.5,0.1s0.3,0.1,0.4,0.2c0,0,0,0.1,0,0.1l-0.3,0.4
					c0,0-0.1,0-0.1,0c-0.1-0.1-0.2-0.1-0.3-0.1c-0.1,0-0.2,0-0.3,0c-0.3,0-0.5,0.1-0.7,0.3c-0.1,0.2-0.2,0.5-0.2,0.8v2.2
					c0,0.1,0,0.1-0.1,0.1H52.4z"/>
				<path class="st6" d="M57.9,30.4C57.9,30.4,57.9,30.4,57.9,30.4L57.9,30h0c-0.1,0.1-0.2,0.3-0.4,0.4c-0.2,0.1-0.4,0.1-0.7,0.1
					c-0.2,0-0.4,0-0.5-0.1c-0.2,0-0.3-0.1-0.4-0.2c-0.1-0.1-0.2-0.2-0.3-0.4c-0.1-0.1-0.1-0.3-0.1-0.5c0-0.4,0.1-0.7,0.4-0.9
					c0.3-0.2,0.7-0.3,1.1-0.3h0.9c0,0,0,0,0,0v-0.3c0-0.3-0.1-0.5-0.2-0.6C57.5,27,57.3,27,56.9,27c-0.2,0-0.4,0-0.6,0.1
					c-0.2,0.1-0.3,0.1-0.4,0.2c-0.1,0-0.1,0-0.1,0l-0.2-0.4c0,0,0-0.1,0-0.1c0.2-0.1,0.3-0.2,0.6-0.3s0.5-0.1,0.8-0.1
					c0.6,0,1,0.1,1.2,0.3c0.2,0.2,0.4,0.6,0.4,1v2.6c0,0.1,0,0.1-0.1,0.1H57.9z M56.8,29.9c0.3,0,0.6-0.1,0.7-0.2
					c0.2-0.1,0.3-0.3,0.3-0.6v-0.4c0,0,0,0,0,0H57c-0.3,0-0.6,0.1-0.8,0.2c-0.2,0.1-0.2,0.3-0.2,0.5c0,0.2,0.1,0.4,0.2,0.5
					C56.4,29.9,56.6,29.9,56.8,29.9z"/>
				<path class="st6" d="M59.9,25.5C59.9,25.5,59.8,25.5,59.9,25.5l-0.1-0.7c0-0.1,0-0.1,0.1-0.1h0.6c0.1,0,0.1,0,0.1,0.1v0.6
					c0,0.1,0,0.1-0.1,0.1H59.9z M59.9,30.4C59.9,30.4,59.8,30.4,59.9,30.4l-0.1-3.9c0-0.1,0-0.1,0.1-0.1h0.5c0.1,0,0.1,0,0.1,0.1
					v3.8c0,0.1,0,0.1-0.1,0.1H59.9z"/>
				<path class="st6" d="M64.5,30.4C64.4,30.4,64.4,30.4,64.5,30.4L64.4,28c0-0.3-0.1-0.6-0.2-0.7C64,27.1,63.8,27,63.5,27
					c-0.3,0-0.5,0.1-0.7,0.3s-0.3,0.4-0.3,0.7v2.4c0,0.1,0,0.1-0.1,0.1H62c-0.1,0-0.1,0-0.1-0.1v-3.8c0-0.1,0-0.1,0.1-0.1h0.5
					c0.1,0,0.1,0,0.1,0.1v0.4h0c0.1-0.2,0.2-0.3,0.4-0.4s0.4-0.2,0.7-0.2c0.4,0,0.8,0.1,1,0.4s0.4,0.6,0.4,1.1v2.5
					c0,0.1,0,0.1-0.1,0.1H64.5z"/>
				<path class="st6" d="M66.5,25.5C66.4,25.5,66.4,25.5,66.5,25.5l-0.1-0.7c0-0.1,0-0.1,0.1-0.1h0.6c0.1,0,0.1,0,0.1,0.1v0.6
					c0,0.1,0,0.1-0.1,0.1H66.5z M66.5,30.4C66.5,30.4,66.4,30.4,66.5,30.4l-0.1-3.9c0-0.1,0-0.1,0.1-0.1h0.5c0.1,0,0.1,0,0.1,0.1
					v3.8c0,0.1,0,0.1-0.1,0.1H66.5z"/>
				<path class="st6" d="M71.1,30.4C71,30.4,71,30.4,71.1,30.4L71,28c0-0.3-0.1-0.6-0.2-0.7c-0.1-0.2-0.4-0.3-0.7-0.3
					c-0.3,0-0.5,0.1-0.7,0.3s-0.3,0.4-0.3,0.7v2.4c0,0.1,0,0.1-0.1,0.1h-0.5c-0.1,0-0.1,0-0.1-0.1v-3.8c0-0.1,0-0.1,0.1-0.1h0.5
					c0.1,0,0.1,0,0.1,0.1v0.4h0c0.1-0.2,0.2-0.3,0.4-0.4s0.4-0.2,0.7-0.2c0.4,0,0.8,0.1,1,0.4s0.4,0.6,0.4,1.1v2.5
					c0,0.1,0,0.1-0.1,0.1H71.1z"/>
				<path class="st6" d="M74.3,32c-0.3,0-0.6-0.1-0.8-0.2c-0.3-0.1-0.4-0.3-0.6-0.4c0,0,0-0.1,0-0.1l0.3-0.3c0,0,0.1,0,0.1,0
					c0.1,0.1,0.3,0.2,0.4,0.3c0.1,0.1,0.3,0.1,0.5,0.1c0.3,0,0.6-0.1,0.8-0.3c0.2-0.2,0.3-0.4,0.3-0.8v-0.5h0
					c-0.1,0.2-0.2,0.3-0.4,0.4c-0.2,0.1-0.4,0.1-0.7,0.1c-0.3,0-0.6-0.1-0.8-0.2c-0.2-0.2-0.4-0.4-0.5-0.7c-0.1-0.1-0.1-0.3-0.1-0.5
					s0-0.4,0-0.6s0-0.4,0-0.6s0.1-0.3,0.1-0.5c0.1-0.3,0.3-0.6,0.5-0.7c0.2-0.2,0.5-0.2,0.8-0.2c0.3,0,0.5,0.1,0.7,0.1
					c0.2,0.1,0.3,0.2,0.4,0.4h0v-0.4c0-0.1,0-0.1,0.1-0.1H76c0.1,0,0.1,0,0.1,0.1v3.7c0,0.6-0.1,1-0.4,1.3
					C75.3,31.9,74.9,32,74.3,32z M74.4,29.7c0.4,0,0.7-0.2,0.8-0.6c0-0.1,0.1-0.2,0.1-0.3s0-0.3,0-0.4s0-0.3,0-0.4
					c0-0.1,0-0.2-0.1-0.3c-0.1-0.4-0.4-0.6-0.8-0.6c-0.4,0-0.7,0.2-0.8,0.6c0,0.1-0.1,0.2-0.1,0.3s0,0.3,0,0.4c0,0.3,0,0.6,0.1,0.8
					C73.7,29.5,74,29.7,74.4,29.7z"/>
				<path class="st6" d="M79.4,24.8C79.4,24.8,79.5,24.8,79.4,24.8l3.5-0.1c0.1,0,0.1,0,0.1,0.1v0.5c0,0.1,0,0.1-0.1,0.1h-2.7
					c0,0,0,0,0,0.1v1.7c0,0,0,0,0,0h2.3c0.1,0,0.1,0,0.1,0.1v0.5c0,0.1,0,0.1-0.1,0.1h-2.3c0,0,0,0,0,0.1v1.7c0,0,0,0,0,0h2.7
					c0.1,0,0.1,0,0.1,0.1v0.5c0,0.1,0,0.1-0.1,0.1h-3.4c-0.1,0-0.1,0-0.1-0.1V24.8z"/>
				<path class="st6" d="M85,30.4C85,30.4,85,30.4,85,30.4l-1.5-3.9c0-0.1,0-0.1,0.1-0.1h0.6c0,0,0.1,0,0.1,0.1l1,2.9h0l1-2.9
					c0-0.1,0-0.1,0.1-0.1H87c0.1,0,0.1,0,0.1,0.1l-1.4,3.8c0,0.1-0.1,0.1-0.1,0.1H85z"/>
				<path class="st6" d="M90.3,30.4C90.3,30.4,90.2,30.4,90.3,30.4L90.2,30h0c-0.1,0.1-0.2,0.3-0.4,0.4c-0.2,0.1-0.4,0.1-0.7,0.1
					c-0.2,0-0.4,0-0.5-0.1c-0.2,0-0.3-0.1-0.4-0.2c-0.1-0.1-0.2-0.2-0.3-0.4c-0.1-0.1-0.1-0.3-0.1-0.5c0-0.4,0.1-0.7,0.4-0.9
					c0.3-0.2,0.7-0.3,1.1-0.3h0.9c0,0,0,0,0,0v-0.3c0-0.3-0.1-0.5-0.2-0.6C89.9,27,89.6,27,89.3,27c-0.2,0-0.4,0-0.6,0.1
					c-0.2,0.1-0.3,0.1-0.4,0.2c-0.1,0-0.1,0-0.1,0l-0.2-0.4c0,0,0-0.1,0-0.1c0.2-0.1,0.3-0.2,0.6-0.3s0.5-0.1,0.8-0.1
					c0.6,0,1,0.1,1.2,0.3c0.2,0.2,0.4,0.6,0.4,1v2.6c0,0.1,0,0.1-0.1,0.1H90.3z M89.2,29.9c0.3,0,0.6-0.1,0.7-0.2
					c0.2-0.1,0.3-0.3,0.3-0.6v-0.4c0,0,0,0,0,0h-0.8c-0.3,0-0.6,0.1-0.8,0.2c-0.2,0.1-0.2,0.3-0.2,0.5c0,0.2,0.1,0.4,0.2,0.5
					C88.7,29.9,88.9,29.9,89.2,29.9z"/>
				<path class="st6" d="M93.2,30.5c-0.3,0-0.6-0.1-0.7-0.3c-0.1-0.2-0.2-0.4-0.2-0.8v-4.6c0-0.1,0-0.1,0.1-0.1h0.5
					c0.1,0,0.1,0,0.1,0.1v4.5c0,0.2,0,0.3,0.1,0.3c0.1,0.1,0.2,0.1,0.3,0.1h0.2c0.1,0,0.1,0,0.1,0.1v0.5c0,0.1,0,0.1-0.1,0.1H93.2z"
					/>
				<path class="st6" d="M97,30.4C97,30.4,96.9,30.4,97,30.4L96.9,30h0c-0.1,0.2-0.2,0.3-0.4,0.4c-0.2,0.1-0.4,0.1-0.7,0.1
					c-0.4,0-0.8-0.1-1-0.4c-0.2-0.3-0.4-0.6-0.4-1.1v-2.5c0-0.1,0-0.1,0.1-0.1h0.5c0.1,0,0.1,0,0.1,0.1v2.3c0,0.3,0.1,0.6,0.2,0.8
					c0.1,0.2,0.4,0.3,0.7,0.3c0.3,0,0.5-0.1,0.7-0.3c0.2-0.2,0.2-0.4,0.2-0.7v-2.4c0-0.1,0-0.1,0.1-0.1h0.5c0.1,0,0.1,0,0.1,0.1v3.8
					c0,0.1,0,0.1-0.1,0.1H97z"/>
				<path class="st6" d="M101.4,30.4C101.4,30.4,101.3,30.4,101.4,30.4l-0.1-0.4h0c-0.1,0.1-0.2,0.3-0.4,0.4
					c-0.2,0.1-0.4,0.1-0.7,0.1c-0.2,0-0.4,0-0.5-0.1c-0.2,0-0.3-0.1-0.4-0.2c-0.1-0.1-0.2-0.2-0.3-0.4c-0.1-0.1-0.1-0.3-0.1-0.5
					c0-0.4,0.1-0.7,0.4-0.9c0.3-0.2,0.7-0.3,1.1-0.3h0.9c0,0,0,0,0,0v-0.3c0-0.3-0.1-0.5-0.2-0.6c-0.1-0.1-0.4-0.2-0.8-0.2
					c-0.2,0-0.4,0-0.6,0.1c-0.2,0.1-0.3,0.1-0.4,0.2c-0.1,0-0.1,0-0.1,0l-0.2-0.4c0,0,0-0.1,0-0.1c0.2-0.1,0.3-0.2,0.6-0.3
					s0.5-0.1,0.8-0.1c0.6,0,1,0.1,1.2,0.3c0.2,0.2,0.4,0.6,0.4,1v2.6c0,0.1,0,0.1-0.1,0.1H101.4z M100.3,29.9c0.3,0,0.6-0.1,0.7-0.2
					c0.2-0.1,0.3-0.3,0.3-0.6v-0.4c0,0,0,0,0,0h-0.8c-0.3,0-0.6,0.1-0.8,0.2c-0.2,0.1-0.2,0.3-0.2,0.5c0,0.2,0.1,0.4,0.2,0.5
					C99.8,29.9,100.1,29.9,100.3,29.9z"/>
				<path class="st6" d="M104.5,30.5c-0.4,0-0.7-0.1-0.8-0.3c-0.2-0.2-0.2-0.5-0.2-0.9V27c0,0,0,0,0,0H103c-0.1,0-0.1,0-0.1-0.1
					v-0.4c0-0.1,0-0.1,0.1-0.1h0.3c0,0,0,0,0,0v-1.1c0-0.1,0-0.1,0.1-0.1h0.5c0.1,0,0.1,0,0.1,0.1v1.1c0,0,0,0,0,0h0.6
					c0.1,0,0.1,0,0.1,0.1v0.4c0,0.1,0,0.1-0.1,0.1h-0.6c0,0,0,0,0,0v2.3c0,0.2,0,0.3,0.1,0.4c0.1,0.1,0.2,0.1,0.4,0.1h0.2
					c0.1,0,0.1,0,0.1,0.1v0.5c0,0.1,0,0.1-0.1,0.1H104.5z"/>
				<path class="st6" d="M106,25.5C106,25.5,105.9,25.5,106,25.5l-0.1-0.7c0-0.1,0-0.1,0.1-0.1h0.6c0.1,0,0.1,0,0.1,0.1v0.6
					c0,0.1,0,0.1-0.1,0.1H106z M106,30.4C106,30.4,106,30.4,106,30.4l-0.1-3.9c0-0.1,0-0.1,0.1-0.1h0.5c0.1,0,0.1,0,0.1,0.1v3.8
					c0,0.1,0,0.1-0.1,0.1H106z"/>
				<path class="st6" d="M109.5,30.5c-0.4,0-0.7-0.1-1-0.3c-0.3-0.2-0.5-0.5-0.6-0.8c0-0.1-0.1-0.3-0.1-0.4c0-0.2,0-0.3,0-0.6
					c0-0.2,0-0.4,0-0.6s0.1-0.3,0.1-0.4c0.1-0.3,0.3-0.6,0.6-0.8c0.3-0.2,0.6-0.3,1-0.3s0.7,0.1,1,0.3c0.3,0.2,0.5,0.5,0.6,0.8
					c0,0.1,0.1,0.3,0.1,0.4c0,0.1,0,0.3,0,0.6c0,0.2,0,0.4,0,0.6c0,0.2-0.1,0.3-0.1,0.4c-0.1,0.3-0.3,0.6-0.6,0.8
					S109.9,30.5,109.5,30.5z M109.5,29.9c0.2,0,0.4-0.1,0.6-0.2c0.2-0.1,0.3-0.3,0.3-0.5c0-0.1,0.1-0.2,0.1-0.3c0-0.1,0-0.3,0-0.5
					c0-0.2,0-0.3,0-0.5c0-0.1,0-0.2-0.1-0.3c-0.1-0.2-0.2-0.4-0.3-0.5c-0.2-0.1-0.3-0.2-0.6-0.2s-0.4,0.1-0.6,0.2
					c-0.2,0.1-0.3,0.3-0.3,0.5c0,0.1-0.1,0.2-0.1,0.3c0,0.1,0,0.3,0,0.5c0,0.2,0,0.4,0,0.5c0,0.1,0,0.2,0.1,0.3
					c0.1,0.2,0.2,0.4,0.3,0.5C109.1,29.8,109.3,29.9,109.5,29.9z"/>
				<path class="st6" d="M114.9,30.4C114.9,30.4,114.8,30.4,114.9,30.4l-0.1-2.4c0-0.3-0.1-0.6-0.2-0.7c-0.1-0.2-0.4-0.3-0.7-0.3
					c-0.3,0-0.5,0.1-0.7,0.3S113,27.7,113,28v2.4c0,0.1,0,0.1-0.1,0.1h-0.5c-0.1,0-0.1,0-0.1-0.1v-3.8c0-0.1,0-0.1,0.1-0.1h0.5
					c0.1,0,0.1,0,0.1,0.1v0.4h0c0.1-0.2,0.2-0.3,0.4-0.4s0.4-0.2,0.7-0.2c0.4,0,0.8,0.1,1,0.4s0.4,0.6,0.4,1.1v2.5
					c0,0.1,0,0.1-0.1,0.1H114.9z"/>
				<path class="st6" d="M118.8,29.2c0-0.1-0.1-0.2-0.1-0.3s0-0.2,0-0.3c0-0.1,0-0.3,0-0.4s0-0.4,0-0.6c0-0.2,0-0.4,0-0.6
					s0-0.3,0-0.4c0-0.1,0-0.2,0-0.3c0-0.1,0-0.2,0.1-0.3c0.1-0.4,0.4-0.8,0.7-1c0.3-0.2,0.7-0.3,1.2-0.3c0.4,0,0.8,0.1,1.1,0.3
					c0.3,0.2,0.6,0.5,0.7,0.8c0,0.1,0,0.1,0,0.1l-0.5,0.2c-0.1,0-0.1,0-0.1,0c-0.1-0.2-0.3-0.4-0.4-0.5c-0.2-0.1-0.4-0.2-0.7-0.2
					c-0.3,0-0.6,0.1-0.7,0.2c-0.2,0.1-0.3,0.3-0.4,0.6c0,0.1,0,0.1,0,0.2c0,0.1,0,0.2,0,0.3c0,0.1,0,0.2,0,0.4s0,0.3,0,0.6
					c0,0.2,0,0.4,0,0.6c0,0.2,0,0.3,0,0.4c0,0.1,0,0.2,0,0.3c0,0.1,0,0.1,0,0.2c0.1,0.3,0.2,0.5,0.4,0.6c0.2,0.1,0.4,0.2,0.7,0.2
					c0.3,0,0.5-0.1,0.7-0.2c0.2-0.1,0.3-0.3,0.4-0.5c0-0.1,0.1-0.1,0.1,0l0.5,0.2c0,0,0,0.1,0,0.1c-0.2,0.4-0.4,0.6-0.7,0.8
					c-0.3,0.2-0.7,0.3-1.1,0.3c-0.5,0-0.9-0.1-1.2-0.3C119.2,30,119,29.6,118.8,29.2z"/>
				<path class="st6" d="M125,30.5c-0.4,0-0.7-0.1-1-0.3c-0.3-0.2-0.5-0.5-0.6-0.8c0-0.1-0.1-0.3-0.1-0.4c0-0.2,0-0.3,0-0.6
					c0-0.2,0-0.4,0-0.6s0.1-0.3,0.1-0.4c0.1-0.3,0.3-0.6,0.6-0.8c0.3-0.2,0.6-0.3,1-0.3s0.7,0.1,1,0.3c0.3,0.2,0.5,0.5,0.6,0.8
					c0,0.1,0.1,0.3,0.1,0.4c0,0.1,0,0.3,0,0.6c0,0.2,0,0.4,0,0.6c0,0.2-0.1,0.3-0.1,0.4c-0.1,0.3-0.3,0.6-0.6,0.8
					S125.4,30.5,125,30.5z M125,29.9c0.2,0,0.4-0.1,0.6-0.2c0.2-0.1,0.3-0.3,0.3-0.5c0-0.1,0.1-0.2,0.1-0.3c0-0.1,0-0.3,0-0.5
					c0-0.2,0-0.3,0-0.5c0-0.1,0-0.2-0.1-0.3c-0.1-0.2-0.2-0.4-0.3-0.5c-0.2-0.1-0.3-0.2-0.6-0.2s-0.4,0.1-0.6,0.2
					c-0.2,0.1-0.3,0.3-0.3,0.5c0,0.1-0.1,0.2-0.1,0.3c0,0.1,0,0.3,0,0.5c0,0.2,0,0.4,0,0.5c0,0.1,0,0.2,0.1,0.3
					c0.1,0.2,0.2,0.4,0.3,0.5C124.6,29.8,124.8,29.9,125,29.9z"/>
				<path class="st6" d="M132.9,30.4C132.9,30.4,132.9,30.4,132.9,30.4l-0.1-2.4c0-0.3-0.1-0.6-0.2-0.7c-0.1-0.2-0.4-0.3-0.7-0.3
					c-0.3,0-0.5,0.1-0.7,0.3s-0.3,0.4-0.3,0.7v2.4c0,0.1,0,0.1-0.1,0.1h-0.5c-0.1,0-0.1,0-0.1-0.1V28c0-0.3-0.1-0.6-0.2-0.7
					c-0.1-0.2-0.4-0.3-0.7-0.3c-0.3,0-0.5,0.1-0.7,0.3s-0.3,0.4-0.3,0.7v2.4c0,0.1,0,0.1-0.1,0.1h-0.5c-0.1,0-0.1,0-0.1-0.1v-3.8
					c0-0.1,0-0.1,0.1-0.1h0.5c0.1,0,0.1,0,0.1,0.1v0.4h0c0.1-0.2,0.2-0.3,0.4-0.4s0.4-0.2,0.7-0.2c0.3,0,0.5,0.1,0.7,0.2
					c0.2,0.1,0.4,0.3,0.5,0.5h0c0.1-0.2,0.3-0.3,0.5-0.5c0.2-0.1,0.5-0.2,0.8-0.2c0.5,0,0.8,0.1,1.1,0.4s0.4,0.6,0.4,1.1v2.5
					c0,0.1,0,0.1-0.1,0.1H132.9z"/>
				<path class="st6" d="M140,30.4C139.9,30.4,139.9,30.4,140,30.4l-0.1-2.4c0-0.3-0.1-0.6-0.2-0.7c-0.1-0.2-0.4-0.3-0.7-0.3
					c-0.3,0-0.5,0.1-0.7,0.3s-0.3,0.4-0.3,0.7v2.4c0,0.1,0,0.1-0.1,0.1h-0.5c-0.1,0-0.1,0-0.1-0.1V28c0-0.3-0.1-0.6-0.2-0.7
					c-0.1-0.2-0.4-0.3-0.7-0.3c-0.3,0-0.5,0.1-0.7,0.3s-0.3,0.4-0.3,0.7v2.4c0,0.1,0,0.1-0.1,0.1H135c-0.1,0-0.1,0-0.1-0.1v-3.8
					c0-0.1,0-0.1,0.1-0.1h0.5c0.1,0,0.1,0,0.1,0.1v0.4h0c0.1-0.2,0.2-0.3,0.4-0.4s0.4-0.2,0.7-0.2c0.3,0,0.5,0.1,0.7,0.2
					c0.2,0.1,0.4,0.3,0.5,0.5h0c0.1-0.2,0.3-0.3,0.5-0.5c0.2-0.1,0.5-0.2,0.8-0.2c0.5,0,0.8,0.1,1.1,0.4s0.4,0.6,0.4,1.1v2.5
					c0,0.1,0,0.1-0.1,0.1H140z"/>
				<path class="st6" d="M142,25.5C141.9,25.5,141.9,25.5,142,25.5l-0.1-0.7c0-0.1,0-0.1,0.1-0.1h0.6c0.1,0,0.1,0,0.1,0.1v0.6
					c0,0.1,0,0.1-0.1,0.1H142z M142,30.4C142,30.4,141.9,30.4,142,30.4l-0.1-3.9c0-0.1,0-0.1,0.1-0.1h0.5c0.1,0,0.1,0,0.1,0.1v3.8
					c0,0.1,0,0.1-0.1,0.1H142z"/>
				<path class="st6" d="M145.4,30.5c-0.2,0-0.4,0-0.5-0.1c-0.2,0-0.3-0.1-0.5-0.1s-0.3-0.1-0.4-0.2s-0.2-0.1-0.3-0.2
					c0,0,0-0.1,0-0.1l0.3-0.4c0,0,0.1,0,0.1,0c0.1,0.1,0.3,0.2,0.5,0.3s0.4,0.1,0.7,0.1c0.3,0,0.5-0.1,0.7-0.2
					c0.1-0.1,0.2-0.3,0.2-0.4c0-0.2-0.1-0.3-0.2-0.4c-0.1-0.1-0.3-0.2-0.6-0.2l-0.4,0c-0.4,0-0.7-0.2-0.9-0.3
					c-0.2-0.2-0.3-0.4-0.3-0.8c0-0.4,0.1-0.7,0.4-0.9c0.3-0.2,0.6-0.3,1.1-0.3c0.3,0,0.6,0,0.8,0.1c0.2,0.1,0.4,0.2,0.6,0.3
					c0,0,0,0.1,0,0.1l-0.3,0.4c0,0-0.1,0-0.1,0c-0.1-0.1-0.3-0.2-0.5-0.2c-0.2-0.1-0.4-0.1-0.6-0.1c-0.2,0-0.4,0.1-0.6,0.2
					c-0.1,0.1-0.2,0.2-0.2,0.4c0,0.2,0.1,0.3,0.2,0.4s0.3,0.1,0.6,0.2l0.4,0c0.4,0,0.7,0.2,0.9,0.3c0.2,0.2,0.3,0.5,0.3,0.8
					c0,0.4-0.1,0.7-0.4,0.9C146.3,30.4,145.9,30.5,145.4,30.5z"/>
				<path class="st6" d="M149.4,30.5c-0.2,0-0.4,0-0.5-0.1c-0.2,0-0.3-0.1-0.5-0.1s-0.3-0.1-0.4-0.2s-0.2-0.1-0.3-0.2
					c0,0,0-0.1,0-0.1l0.3-0.4c0,0,0.1,0,0.1,0c0.1,0.1,0.3,0.2,0.5,0.3s0.4,0.1,0.7,0.1c0.3,0,0.5-0.1,0.7-0.2
					c0.1-0.1,0.2-0.3,0.2-0.4c0-0.2-0.1-0.3-0.2-0.4c-0.1-0.1-0.3-0.2-0.6-0.2l-0.4,0c-0.4,0-0.7-0.2-0.9-0.3
					c-0.2-0.2-0.3-0.4-0.3-0.8c0-0.4,0.1-0.7,0.4-0.9c0.3-0.2,0.6-0.3,1.1-0.3c0.3,0,0.6,0,0.8,0.1c0.2,0.1,0.4,0.2,0.6,0.3
					c0,0,0,0.1,0,0.1l-0.3,0.4c0,0-0.1,0-0.1,0c-0.1-0.1-0.3-0.2-0.5-0.2c-0.2-0.1-0.4-0.1-0.6-0.1c-0.2,0-0.4,0.1-0.6,0.2
					c-0.1,0.1-0.2,0.2-0.2,0.4c0,0.2,0.1,0.3,0.2,0.4s0.3,0.1,0.6,0.2l0.4,0c0.4,0,0.7,0.2,0.9,0.3c0.2,0.2,0.3,0.5,0.3,0.8
					c0,0.4-0.1,0.7-0.4,0.9C150.4,30.4,150,30.5,149.4,30.5z"/>
				<path class="st6" d="M152.2,25.5C152.2,25.5,152.1,25.5,152.2,25.5l-0.1-0.7c0-0.1,0-0.1,0.1-0.1h0.6c0.1,0,0.1,0,0.1,0.1v0.6
					c0,0.1,0,0.1-0.1,0.1H152.2z M152.2,30.4C152.2,30.4,152.1,30.4,152.2,30.4l-0.1-3.9c0-0.1,0-0.1,0.1-0.1h0.5
					c0.1,0,0.1,0,0.1,0.1v3.8c0,0.1,0,0.1-0.1,0.1H152.2z"/>
				<path class="st6" d="M155.7,30.5c-0.4,0-0.7-0.1-1-0.3c-0.3-0.2-0.5-0.5-0.6-0.8c0-0.1-0.1-0.3-0.1-0.4c0-0.2,0-0.3,0-0.6
					c0-0.2,0-0.4,0-0.6s0.1-0.3,0.1-0.4c0.1-0.3,0.3-0.6,0.6-0.8c0.3-0.2,0.6-0.3,1-0.3c0.4,0,0.7,0.1,1,0.3
					c0.3,0.2,0.5,0.5,0.6,0.8c0,0.1,0.1,0.3,0.1,0.4c0,0.1,0,0.3,0,0.6c0,0.2,0,0.4,0,0.6c0,0.2-0.1,0.3-0.1,0.4
					c-0.1,0.3-0.3,0.6-0.6,0.8S156.1,30.5,155.7,30.5z M155.7,29.9c0.2,0,0.4-0.1,0.6-0.2c0.2-0.1,0.3-0.3,0.3-0.5
					c0-0.1,0.1-0.2,0.1-0.3c0-0.1,0-0.3,0-0.5c0-0.2,0-0.3,0-0.5c0-0.1,0-0.2-0.1-0.3c-0.1-0.2-0.2-0.4-0.3-0.5
					c-0.2-0.1-0.3-0.2-0.6-0.2c-0.2,0-0.4,0.1-0.6,0.2c-0.2,0.1-0.3,0.3-0.3,0.5c0,0.1-0.1,0.2-0.1,0.3c0,0.1,0,0.3,0,0.5
					c0,0.2,0,0.4,0,0.5c0,0.1,0,0.2,0.1,0.3c0.1,0.2,0.2,0.4,0.3,0.5C155.3,29.8,155.5,29.9,155.7,29.9z"/>
				<path class="st6" d="M161.1,30.4C161,30.4,161,30.4,161.1,30.4L161,28c0-0.3-0.1-0.6-0.2-0.7c-0.1-0.2-0.4-0.3-0.7-0.3
					c-0.3,0-0.5,0.1-0.7,0.3s-0.3,0.4-0.3,0.7v2.4c0,0.1,0,0.1-0.1,0.1h-0.5c-0.1,0-0.1,0-0.1-0.1v-3.8c0-0.1,0-0.1,0.1-0.1h0.5
					c0.1,0,0.1,0,0.1,0.1v0.4h0c0.1-0.2,0.2-0.3,0.4-0.4s0.4-0.2,0.7-0.2c0.4,0,0.8,0.1,1,0.4s0.4,0.6,0.4,1.1v2.5
					c0,0.1,0,0.1-0.1,0.1H161.1z"/>
			</g>
		</g>
	</g>
</g>
</svg>
