<svg id="Layer_1" data-name="Layer 1" xmlns="http://www.w3.org/2000/svg" viewBox="0 0 286.01 109.06"><defs><style>.cls-1{fill:#3e3089;}.cls-2{fill:#0f8ecd;}.cls-3{fill:#2f52a0;}.cls-4{fill:#5eb130;}.cls-5{fill:#0badc2;}.cls-6{fill:#41af66;}.cls-7{fill:#646363;}</style></defs><title>logo</title><polygon class="cls-1" points="169.54 8.5 158.95 15.69 159.05 27.23 169.64 20.03 169.54 8.5"/><polygon class="cls-2" points="144.88 36.84 155.17 29.84 155.17 18.23 144.88 25.23 144.88 36.84"/><polygon class="cls-2" points="155.17 0 144.88 6.97 144.88 19.07 144.89 20.63 155.17 13.64 155.17 0"/><polygon class="cls-1" points="183.36 44.58 171.44 39.91 161.98 46.5 173.9 51.17 183.36 44.58"/><polygon class="cls-3" points="146.05 40.23 157.63 44.77 167.21 38.22 155.62 33.68 146.05 40.23"/><polygon class="cls-1" points="160.71 30.2 159.44 31.09 171 35.63 182.26 27.93 170.7 23.37 160.71 30.2"/><polygon class="cls-4" points="116.38 8.5 126.97 15.69 126.87 27.23 116.28 20.03 116.38 8.5"/><polygon class="cls-5" points="141.04 36.84 130.75 29.84 130.75 18.23 141.04 25.23 141.04 36.84"/><polygon class="cls-5" points="130.75 0 130.75 13.64 141.03 20.63 141.04 19.07 141.04 6.97 130.75 0"/><polygon class="cls-4" points="102.56 44.58 114.48 39.91 123.94 46.5 112.03 51.17 102.56 44.58"/><polygon class="cls-6" points="139.88 40.23 128.29 44.77 118.71 38.22 130.3 33.68 139.88 40.23"/><polygon class="cls-4" points="125.21 30.2 126.49 31.09 114.92 35.63 103.66 27.93 115.23 23.37 125.21 30.2"/><path class="cls-7" d="M28,84.36c0-.17.08-.26.25-.26h3.1c.17,0,.25.09.25.26v6a1.26,1.26,0,0,0,.55,1,2.31,2.31,0,0,0,1.38.36H34a.88.88,0,0,1,.76.35,2.06,2.06,0,0,1,.26,1.17c0,1-.34,1.55-1,1.55a5.53,5.53,0,0,1-1.65-.23,2.19,2.19,0,0,1-1.19-1,2,2,0,0,1-1.13,1,6.82,6.82,0,0,1-2.1.25H15.36A3,3,0,0,1,13.07,94a3.65,3.65,0,0,1-.68-2.43V86a.22.22,0,0,1,.25-.25h3.1A.22.22,0,0,1,16,86v4.39a1.53,1.53,0,0,0,.29,1.06,1.31,1.31,0,0,0,.93.29H26.7c.55,0,.89-.14,1-.41A3.42,3.42,0,0,0,28,89.82ZM20.38,100c-.17,0-.25-.09-.25-.26V97.25a.22.22,0,0,1,.25-.25h3.15c.17,0,.26.08.26.25v2.49a.23.23,0,0,1-.26.26Z" transform="translate(-12.15 -10)"/><path class="cls-7" d="M34,94.79a.91.91,0,0,1-.77-.32A1.84,1.84,0,0,1,33,93.34q0-1.62,1-1.62h1.57a1.31,1.31,0,0,0,.93-.29,1.53,1.53,0,0,0,.29-1.06v-6c0-.17.08-.26.25-.26h3.07a.23.23,0,0,1,.26.26v7.23A3.6,3.6,0,0,1,39.65,94a2.94,2.94,0,0,1-2.28.77ZM34.9,100a.23.23,0,0,1-.25-.26V97.25A.22.22,0,0,1,34.9,97h2.54c.17,0,.26.08.26.25v2.49a.23.23,0,0,1-.26.26Zm3.91,0c-.17,0-.25-.09-.25-.26V97.25a.22.22,0,0,1,.25-.25h2.57a.22.22,0,0,1,.25.25v2.49c0,.17-.08.26-.25.26Z" transform="translate(-12.15 -10)"/><path class="cls-7" d="M42.37,100a.23.23,0,0,1-.26-.26V97.18a.23.23,0,0,1,.26-.26h.56a1.82,1.82,0,0,0,1.48-.53,2.47,2.47,0,0,0,.45-1.62V84.36c0-.17.08-.26.25-.26h3.1c.17,0,.25.09.25.26V94.89a5.34,5.34,0,0,1-1.22,3.86,5,5,0,0,1-3.7,1.25Z" transform="translate(-12.15 -10)"/><path class="cls-7" d="M55.62,91.72a4.53,4.53,0,0,0,1-.09,1.17,1.17,0,0,0,.58-.29,1.09,1.09,0,0,0,.25-.53,4.75,4.75,0,0,0,.06-.82V88.62A1.69,1.69,0,0,0,57,87.19a2.73,2.73,0,0,0-1.71-.45H52.32c-.17,0-.26-.08-.26-.25V83.93a.23.23,0,0,1,.26-.26h4a5.69,5.69,0,0,1,3.65,1,4.32,4.32,0,0,1,1.28,3.54v2.11a1.31,1.31,0,0,0,.55,1,2.24,2.24,0,0,0,1.38.37h.56a.88.88,0,0,1,.76.35,2.07,2.07,0,0,1,.25,1.17c0,1-.34,1.55-1,1.55a5.27,5.27,0,0,1-1.82-.28,2.31,2.31,0,0,1-1.25-1.17,2.46,2.46,0,0,1-1.26,1.13,5.25,5.25,0,0,1-2,.32H51.25a.22.22,0,0,1-.25-.25V92a.22.22,0,0,1,.25-.25Z" transform="translate(-12.15 -10)"/><path class="cls-7" d="M66.59,84.36c0-.17.08-.26.25-.26h3.07a.23.23,0,0,1,.26.26v6a1.3,1.3,0,0,0,.54,1,2.24,2.24,0,0,0,1.38.37h.59a.88.88,0,0,1,.76.35,2.07,2.07,0,0,1,.25,1.17c0,1-.33,1.55-1,1.55A5.59,5.59,0,0,1,71,94.56a2.19,2.19,0,0,1-1.19-1,1.89,1.89,0,0,1-1.21,1,8.36,8.36,0,0,1-2.19.23H63.79a.89.89,0,0,1-.76-.32,2,2,0,0,1-.25-1.18A2.31,2.31,0,0,1,63,92.07a.88.88,0,0,1,.77-.35h1.58c.54,0,.88-.16,1-.47a4.33,4.33,0,0,0,.21-1.61Zm-1.48-2.82a.22.22,0,0,1-.25-.25V78.8c0-.17.08-.26.25-.26h2.54a.23.23,0,0,1,.26.26v2.49c0,.17-.09.25-.26.25Zm3.91,0a.22.22,0,0,1-.25-.25V78.8c0-.17.08-.26.25-.26h2.57c.17,0,.25.09.25.26v2.49a.22.22,0,0,1-.25.25Z" transform="translate(-12.15 -10)"/><path class="cls-7" d="M72.68,94.79a1.31,1.31,0,0,1-.76-.18.8.8,0,0,1-.26-.71,3.49,3.49,0,0,1,.07-.68,4.62,4.62,0,0,1,.17-.71,1.77,1.77,0,0,1,.31-.56.6.6,0,0,1,.47-.23h.89a1.27,1.27,0,0,0,.92-.29,1.48,1.48,0,0,0,.3-1.06V77.78a.22.22,0,0,1,.25-.25h3.1a.22.22,0,0,1,.25.25V91.59A3.6,3.6,0,0,1,77.7,94a2.91,2.91,0,0,1-2.28.77Z" transform="translate(-12.15 -10)"/><path class="cls-7" d="M85,94.54c0,.17-.09.25-.26.25H81.69a.22.22,0,0,1-.25-.25V77.78a.22.22,0,0,1,.25-.25h3.07c.17,0,.26.08.26.25Z" transform="translate(-12.15 -10)"/><path class="cls-7" d="M90.09,100c-.17,0-.25-.09-.25-.26V97.18c0-.17.08-.26.25-.26H93a6.36,6.36,0,0,0,.92-.06,1.4,1.4,0,0,0,1.15-.94,3.16,3.16,0,0,0,.17-1.13H94.18a18.75,18.75,0,0,1-2.73-.18,4.65,4.65,0,0,1-2-.75,3.57,3.57,0,0,1-1.3-1.6,8.51,8.51,0,0,1,0-5.49,4.63,4.63,0,0,1,3-2.79,6.88,6.88,0,0,1,2.07-.31,7.88,7.88,0,0,1,2.13.28,4.67,4.67,0,0,1,1.78.93,4.46,4.46,0,0,1,1.2,1.75,7.29,7.29,0,0,1,.45,2.73v5.91a4.78,4.78,0,0,1-1.21,3.56A5.24,5.24,0,0,1,93.8,100Zm3.15-13.26a1.84,1.84,0,0,0-1.57.71,3.14,3.14,0,0,0-.54,1.93,2.3,2.3,0,0,0,.6,1.87,2.48,2.48,0,0,0,1.56.47h2V89.26Q95.25,86.74,93.24,86.74Z" transform="translate(-12.15 -10)"/><path class="cls-7" d="M115.38,95a7.36,7.36,0,0,1-2.1-.28,4.15,4.15,0,0,1-1.66-.94,1.64,1.64,0,0,1-.38.43,3.17,3.17,0,0,0-.39.34,1.52,1.52,0,0,0-.32.46,1.65,1.65,0,0,0-.13.73V100h-3.6V95.17a4.05,4.05,0,0,1,.2-1.41,3.06,3.06,0,0,1,.52-.91,3,3,0,0,1,.69-.61l.71-.48a2.73,2.73,0,0,0,.58-.54,1.37,1.37,0,0,0,.29-.77c0-.15,0-.31,0-.48v-.54a7.46,7.46,0,0,1,.45-2.78,4.45,4.45,0,0,1,3-2.7,7.77,7.77,0,0,1,2.13-.28,7.88,7.88,0,0,1,2.13.28,4.66,4.66,0,0,1,1.79.94,4.49,4.49,0,0,1,1.23,1.76,7.25,7.25,0,0,1,.46,2.78c0,.12,0,.24,0,.35s0,.21,0,.31a1.79,1.79,0,0,0,.49,1.24,1.55,1.55,0,0,0,1.09.39h.71a.88.88,0,0,1,.76.35,2.07,2.07,0,0,1,.25,1.17c0,1-.34,1.55-1,1.55-.31,0-.62,0-.93,0a3.51,3.51,0,0,1-.91-.19,3.28,3.28,0,0,1-.85-.44,3,3,0,0,1-.74-.8,4,4,0,0,1-1.92,1.28A8.12,8.12,0,0,1,115.38,95Zm0-8.23c-1.39,0-2.08.86-2.08,2.57a3,3,0,0,0,.52,2,2.43,2.43,0,0,0,3.13,0,3.07,3.07,0,0,0,.51-2C117.46,87.6,116.77,86.74,115.38,86.74Z" transform="translate(-12.15 -10)"/><path class="cls-7" d="M126.12,84.36c0-.17.08-.26.25-.26h3.07a.23.23,0,0,1,.26.26v6a1.3,1.3,0,0,0,.54,1,2.24,2.24,0,0,0,1.38.37h.59a.88.88,0,0,1,.76.35,2.07,2.07,0,0,1,.25,1.17c0,1-.33,1.55-1,1.55a5.64,5.64,0,0,1-1.68-.23,2.19,2.19,0,0,1-1.19-1,1.89,1.89,0,0,1-1.21,1,8.36,8.36,0,0,1-2.19.23h-2.62a.9.9,0,0,1-.76-.32,2,2,0,0,1-.25-1.18,2.31,2.31,0,0,1,.24-1.22.88.88,0,0,1,.77-.35h1.58c.54,0,.88-.16,1-.47a4.33,4.33,0,0,0,.21-1.61ZM124.52,100a.23.23,0,0,1-.26-.26V97.25c0-.17.09-.25.26-.25h2.54a.22.22,0,0,1,.25.25v2.49a.23.23,0,0,1-.25.26Zm3.91,0a.23.23,0,0,1-.26-.26V97.25c0-.17.09-.25.26-.25H131a.22.22,0,0,1,.25.25v2.49c0,.17-.08.26-.25.26Z" transform="translate(-12.15 -10)"/><path class="cls-7" d="M134.32,77.78a.22.22,0,0,1,.25-.25h3.1a.22.22,0,0,1,.25.25V90.35a1.29,1.29,0,0,0,.53,1,2.34,2.34,0,0,0,1.4.36h.58a.9.9,0,0,1,.77.35,2.16,2.16,0,0,1,.25,1.17c0,1-.34,1.55-1,1.55a5.52,5.52,0,0,1-1.67-.23,2.15,2.15,0,0,1-1.19-1,2,2,0,0,1-1.11,1,5.79,5.79,0,0,1-2,.27h-2.28a1.31,1.31,0,0,1-.76-.18.8.8,0,0,1-.26-.71,3.49,3.49,0,0,1,.07-.68,4.62,4.62,0,0,1,.17-.71,1.77,1.77,0,0,1,.31-.56.6.6,0,0,1,.47-.23h.89a1.32,1.32,0,0,0,.68-.15.87.87,0,0,0,.37-.45,2.3,2.3,0,0,0,.14-.72q0-.44,0-1Z" transform="translate(-12.15 -10)"/><path class="cls-7" d="M147.7,83.67a11,11,0,0,1,2.67.29,5.48,5.48,0,0,1,1.87.83,3.23,3.23,0,0,1,1.08,1.26,3.56,3.56,0,0,1,.34,1.56,3.92,3.92,0,0,1-.21,1.29,5,5,0,0,1-.58,1.13,5.17,5.17,0,0,1-.8.94,6.9,6.9,0,0,1-.87.72,5.3,5.3,0,0,0,.57,0H155a.82.82,0,0,1,.74.34,2.22,2.22,0,0,1,.23,1.16,2,2,0,0,1-.27,1.25.85.85,0,0,1-.7.32h-4a8.86,8.86,0,0,1-1.74-.16A4.58,4.58,0,0,1,147.7,94a5.74,5.74,0,0,1-1.78.63,9.84,9.84,0,0,1-1.68.16h-3.83a.9.9,0,0,1-.74-.28,2.06,2.06,0,0,1-.23-1.19,3.12,3.12,0,0,1,.19-1.16.77.77,0,0,1,.78-.44h2.66l.93,0a3.7,3.7,0,0,0,.95-.15,5,5,0,0,0-1.14-1.91,10.41,10.41,0,0,0-1.73-1.52.78.78,0,0,1-.27-.36,1.67,1.67,0,0,1-.08-.6V85.5c0-.22.18-.44.53-.65a6.93,6.93,0,0,1,1.39-.58,12.61,12.61,0,0,1,1.91-.43A13.93,13.93,0,0,1,147.7,83.67Zm.27,7.44a5.12,5.12,0,0,0,1.41-1.24,2.5,2.5,0,0,0,.57-1.55,1.32,1.32,0,0,0-.59-1.2,3.11,3.11,0,0,0-1.66-.38,6.33,6.33,0,0,0-1.53.17,4.78,4.78,0,0,0-.89.29A6.17,6.17,0,0,1,147,89,7,7,0,0,1,148,91.11Z" transform="translate(-12.15 -10)"/><path class="cls-7" d="M157.9,84.36c0-.17.08-.26.25-.26h3.08a.23.23,0,0,1,.25.26v6a1.31,1.31,0,0,0,.55,1,2.24,2.24,0,0,0,1.38.37H164a.88.88,0,0,1,.76.35,2.06,2.06,0,0,1,.26,1.17c0,1-.34,1.55-1,1.55a5.52,5.52,0,0,1-1.67-.23,2.2,2.2,0,0,1-1.2-1,1.89,1.89,0,0,1-1.2,1,8.5,8.5,0,0,1-2.2.23h-2.61a.89.89,0,0,1-.76-.32,2,2,0,0,1-.26-1.18,2.31,2.31,0,0,1,.24-1.22.89.89,0,0,1,.78-.35h1.57c.54,0,.88-.16,1-.47a4.6,4.6,0,0,0,.2-1.61Zm-1.47-2.82c-.17,0-.26-.08-.26-.25V78.8a.23.23,0,0,1,.26-.26H159a.23.23,0,0,1,.25.26v2.49a.22.22,0,0,1-.25.25Zm3.91,0c-.17,0-.26-.08-.26-.25V78.8a.23.23,0,0,1,.26-.26h2.56a.23.23,0,0,1,.26.26v2.49c0,.17-.09.25-.26.25Z" transform="translate(-12.15 -10)"/><path class="cls-7" d="M164,94.79a1.33,1.33,0,0,1-.76-.18c-.17-.11-.25-.35-.25-.71a4.37,4.37,0,0,1,.06-.68,3.69,3.69,0,0,1,.18-.71,1.76,1.76,0,0,1,.3-.56.61.61,0,0,1,.47-.23h.89a1.31,1.31,0,0,0,.93-.29,1.53,1.53,0,0,0,.29-1.06V77.78a.22.22,0,0,1,.25-.25h3.1a.22.22,0,0,1,.25.25V91.59A3.6,3.6,0,0,1,169,94a2.94,2.94,0,0,1-2.28.77Z" transform="translate(-12.15 -10)"/><path class="cls-7" d="M176.33,94.54a.22.22,0,0,1-.25.25H173a.22.22,0,0,1-.25-.25V77.78a.22.22,0,0,1,.25-.25h3.08a.22.22,0,0,1,.25.25Z" transform="translate(-12.15 -10)"/><path class="cls-7" d="M193,95a7.36,7.36,0,0,1-2.1-.28,4.22,4.22,0,0,1-1.66-.94,1.48,1.48,0,0,1-.38.43,4.13,4.13,0,0,0-.39.34,1.52,1.52,0,0,0-.32.46,1.8,1.8,0,0,0-.13.73V100h-3.6V95.17a4.3,4.3,0,0,1,.2-1.41,3.06,3.06,0,0,1,.52-.91,3,3,0,0,1,.69-.61l.71-.48a2.73,2.73,0,0,0,.58-.54,1.37,1.37,0,0,0,.29-.77c0-.15,0-.31,0-.48v-.54a7.25,7.25,0,0,1,.46-2.78,4.49,4.49,0,0,1,1.23-1.76,4.59,4.59,0,0,1,1.79-.94,7.77,7.77,0,0,1,2.13-.28,7.88,7.88,0,0,1,2.13.28,4.66,4.66,0,0,1,1.79.94,4.49,4.49,0,0,1,1.23,1.76,7.25,7.25,0,0,1,.46,2.78c0,.12,0,.24,0,.35s0,.21,0,.31a1.79,1.79,0,0,0,.49,1.24,1.55,1.55,0,0,0,1.09.39h.71a.88.88,0,0,1,.76.35,2.07,2.07,0,0,1,.25,1.17c0,1-.33,1.55-1,1.55-.31,0-.61,0-.93,0a3.51,3.51,0,0,1-.91-.19,3.28,3.28,0,0,1-.85-.44,3,3,0,0,1-.74-.8,4,4,0,0,1-1.92,1.28A8.12,8.12,0,0,1,193,95Zm0-8.23c-1.39,0-2.08.86-2.08,2.57a3,3,0,0,0,.52,2,2.43,2.43,0,0,0,3.13,0,3.07,3.07,0,0,0,.51-2C195.09,87.6,194.4,86.74,193,86.74Z" transform="translate(-12.15 -10)"/><path class="cls-7" d="M200.88,94.79a.89.89,0,0,1-.76-.32,1.83,1.83,0,0,1-.26-1.13q0-1.62,1-1.62h1.57a1.29,1.29,0,0,0,.93-.29,1.53,1.53,0,0,0,.29-1.06v-6a.23.23,0,0,1,.26-.26H207c.17,0,.25.09.25.26v7.23a3.65,3.65,0,0,1-.68,2.43,3,3,0,0,1-2.29.77Zm.94,5.21a.23.23,0,0,1-.26-.26V97.25c0-.17.09-.25.26-.25h2.54a.22.22,0,0,1,.25.25v2.49c0,.17-.08.26-.25.26Zm3.91,0a.23.23,0,0,1-.26-.26V97.25c0-.17.09-.25.26-.25h2.56c.17,0,.26.08.26.25v2.49a.23.23,0,0,1-.26.26Z" transform="translate(-12.15 -10)"/><path class="cls-7" d="M212.53,100c-.17,0-.25-.09-.25-.26V97.18c0-.17.08-.26.25-.26h2.92a5.35,5.35,0,0,0,1-.08,1.67,1.67,0,0,0,.7-.32,1.4,1.4,0,0,0,.43-.65,3.26,3.26,0,0,0,.15-1.08h-2.43a5.55,5.55,0,0,1-3.82-1.19c-.89-.8-1.34-2.16-1.34-4.09a7.12,7.12,0,0,1,.47-2.74,4.83,4.83,0,0,1,1.25-1.8,4.55,4.55,0,0,1,1.77-1,6.88,6.88,0,0,1,2.07-.31,7.9,7.9,0,0,1,2.14.28,4.7,4.7,0,0,1,1.77.93,4.38,4.38,0,0,1,1.21,1.75,7.51,7.51,0,0,1,.44,2.73v2.36h1.73c.68,0,1,.51,1,1.52a2.19,2.19,0,0,1-.24,1.26,1,1,0,0,1-.77.29h-1.73v.48a4.77,4.77,0,0,1-1.2,3.56,5.26,5.26,0,0,1-3.77,1.17Zm3.15-13.26a1.85,1.85,0,0,0-1.56.71,3.07,3.07,0,0,0-.55,1.93,2.3,2.3,0,0,0,.6,1.87,2.48,2.48,0,0,0,1.56.47h2V89.26C217.68,87.58,217,86.74,215.68,86.74Z" transform="translate(-12.15 -10)"/><path class="cls-7" d="M230.07,83.67a8.87,8.87,0,0,1,2.34.29,5.59,5.59,0,0,1,1.77.84,3.61,3.61,0,0,1,1.13,1.36,4.48,4.48,0,0,1-.16,4,5,5,0,0,1-1.42,1.57,2.77,2.77,0,0,1,.42,0h3a.93.93,0,0,1,.76.32,2,2,0,0,1,.25,1.2,2.22,2.22,0,0,1-.24,1.21.87.87,0,0,1-.77.34h-3.79a15.64,15.64,0,0,1-1.72-.08,3.42,3.42,0,0,1-1.55-.53,4.37,4.37,0,0,1-1.79.53c-.64.06-1.2.08-1.69.08h-3.68a.9.9,0,0,1-.78-.35,2.31,2.31,0,0,1-.24-1.22,2.11,2.11,0,0,1,.24-1.16.89.89,0,0,1,.78-.34h3.45A4.65,4.65,0,0,1,225,90.18a4.25,4.25,0,0,1-.54-2.14,4.3,4.3,0,0,1,.39-1.88A3.7,3.7,0,0,1,226,84.8a5.54,5.54,0,0,1,1.78-.84A8.79,8.79,0,0,1,230.07,83.67Zm-3.17-2.13c-.17,0-.26-.08-.26-.25V78.8a.23.23,0,0,1,.26-.26h2.54c.17,0,.25.09.25.26v2.49a.22.22,0,0,1-.25.25Zm3.17,4.65a2.17,2.17,0,0,0-1.43.5,2,2,0,0,0-.62,1.63,2.74,2.74,0,0,0,.6,1.86,4.49,4.49,0,0,0,1.45,1.11,4.49,4.49,0,0,0,1.45-1.11,2.69,2.69,0,0,0,.61-1.86,2,2,0,0,0-.64-1.63A2.18,2.18,0,0,0,230.07,86.19Zm.74-4.65c-.17,0-.26-.08-.26-.25V78.8a.23.23,0,0,1,.26-.26h2.56a.23.23,0,0,1,.26.26v2.49c0,.17-.09.25-.26.25Z" transform="translate(-12.15 -10)"/><path class="cls-7" d="M237.16,94.79a.91.91,0,0,1-.77-.32,1.84,1.84,0,0,1-.25-1.13q0-1.62,1-1.62h1.57a1.31,1.31,0,0,0,.93-.29,1.53,1.53,0,0,0,.29-1.06v-6c0-.17.08-.26.25-.26h3.07a.23.23,0,0,1,.26.26v7.23a3.6,3.6,0,0,1-.69,2.43,2.94,2.94,0,0,1-2.28.77Zm1.16-13.25a.22.22,0,0,1-.25-.25V78.8c0-.17.08-.26.25-.26h2.54a.23.23,0,0,1,.26.26v2.49c0,.17-.09.25-.26.25Zm3.91,0a.22.22,0,0,1-.25-.25V78.8c0-.17.08-.26.25-.26h2.57c.17,0,.25.09.25.26v2.49a.22.22,0,0,1-.25.25Z" transform="translate(-12.15 -10)"/><path class="cls-7" d="M259.85,83.67V82.58a.22.22,0,0,1,.25-.25h3.1a.22.22,0,0,1,.25.25v7.79a1.48,1.48,0,0,0,.3,1.06,1.27,1.27,0,0,0,.92.29h.79c.68,0,1,.52,1,1.55a2.11,2.11,0,0,1-.24,1.2.91.91,0,0,1-.78.32h-2.64a4,4,0,0,1-1.94-.39,2.06,2.06,0,0,1-.93-1.49,3.65,3.65,0,0,1-1.29.69,5.28,5.28,0,0,1-1.55.23,6.55,6.55,0,0,1-1.89-.28,4.56,4.56,0,0,1-1.59-.87,3.82,3.82,0,0,1-1.08-1.52,5.94,5.94,0,0,1-.39-2.28,6.38,6.38,0,0,1,.44-2.53,4.35,4.35,0,0,1,1.17-1.6,4.17,4.17,0,0,1,1.65-.84,7.53,7.53,0,0,1,1.89-.24Zm-5.15-3.15c-.17,0-.26-.08-.26-.25V77.78c0-.17.09-.25.26-.25h2.54a.22.22,0,0,1,.25.25v2.49a.22.22,0,0,1-.25.25Zm3,10.23a2.14,2.14,0,0,0,1.54-.54,2.29,2.29,0,0,0,.57-1.71V86.74h-2a2.48,2.48,0,0,0-1.55.46,2,2,0,0,0-.58,1.68,1.68,1.68,0,0,0,.58,1.46A2.45,2.45,0,0,0,257.74,90.75Zm.87-10.23c-.17,0-.26-.08-.26-.25V77.78c0-.17.09-.25.26-.25h2.56a.22.22,0,0,1,.25.25v2.49a.22.22,0,0,1-.25.25Z" transform="translate(-12.15 -10)"/><path class="cls-7" d="M271.1,93.52a2,2,0,0,1-1.2,1,7.33,7.33,0,0,1-2.13.24h-2a1.41,1.41,0,0,1-.76-.16c-.17-.11-.26-.35-.26-.73a4.64,4.64,0,0,1,.06-.71,3.2,3.2,0,0,1,.17-.71,1.77,1.77,0,0,1,.33-.54.67.67,0,0,1,.51-.22h.84c.52,0,.86-.15,1-.44a3.93,3.93,0,0,0,.22-1.59V84.36c0-.14.12-.21.37-.23l.64,0h2.34c.17,0,.25.09.25.26v6a1.34,1.34,0,0,0,.55,1,2.24,2.24,0,0,0,1.38.37H274a.9.9,0,0,1,.76.35,2.07,2.07,0,0,1,.25,1.17c0,1-.34,1.55-1,1.55a5.54,5.54,0,0,1-1.68-.23A2.19,2.19,0,0,1,271.1,93.52Zm-3.48-13.45a2.58,2.58,0,0,1-.25-.56,2.16,2.16,0,0,1-.11-.71,2.52,2.52,0,0,1,.17-.9,2.19,2.19,0,0,1,.51-.8,2.32,2.32,0,0,1,.88-.57,3.84,3.84,0,0,1,2.77.08,2.39,2.39,0,0,1,1,.74.17.17,0,0,1,0,.25l-.81.87c-.07.07-.15,0-.23,0a2.9,2.9,0,0,0-.57-.41,1.54,1.54,0,0,0-.7-.15,1.08,1.08,0,0,0-.8.28,1,1,0,0,0-.29.76,1.16,1.16,0,0,0,.22.74,2,2,0,0,0,.51.43h2.67q.15,0,.15.18v1.19q0,.18-.15.18h-5.79q-.15,0-.15-.18V80.25q0-.18.15-.18Z" transform="translate(-12.15 -10)"/><path class="cls-7" d="M276.73,84.36a.23.23,0,0,1,.26-.26h3.07c.17,0,.25.09.25.26v6a1.31,1.31,0,0,0,.55,1,2.24,2.24,0,0,0,1.38.37h.59a.9.9,0,0,1,.76.35,2.16,2.16,0,0,1,.25,1.17c0,1-.34,1.55-1,1.55a5.54,5.54,0,0,1-1.68-.23,2.15,2.15,0,0,1-1.19-1,1.91,1.91,0,0,1-1.21,1,8.44,8.44,0,0,1-2.2.23h-2.61a.89.89,0,0,1-.76-.32,2,2,0,0,1-.26-1.18,2.31,2.31,0,0,1,.24-1.22.9.9,0,0,1,.78-.35h1.57c.54,0,.88-.16,1-.47a4.6,4.6,0,0,0,.2-1.61ZM275.13,100c-.17,0-.25-.09-.25-.26V97.25a.22.22,0,0,1,.25-.25h2.54a.22.22,0,0,1,.25.25v2.49c0,.17-.08.26-.25.26Zm3.91,0c-.17,0-.25-.09-.25-.26V97.25A.22.22,0,0,1,279,97h2.57a.22.22,0,0,1,.25.25v2.49c0,.17-.08.26-.25.26Z" transform="translate(-12.15 -10)"/><path class="cls-7" d="M282.83,94.79a.9.9,0,0,1-.77-.34,2,2,0,0,1-.25-1.16,2.25,2.25,0,0,1,.24-1.2.85.85,0,0,1,.78-.37h2.48a4.28,4.28,0,0,1-.35-1.78,4.14,4.14,0,0,1,.34-1.77,3.32,3.32,0,0,1,2.15-1.87,5.13,5.13,0,0,1,1.47-.22,4.44,4.44,0,0,1,3,.93A3.64,3.64,0,0,1,293,89.94a3.37,3.37,0,0,1-.13,1,6.05,6.05,0,0,1-.32.8,1.56,1.56,0,0,0,1.52-.7,3.46,3.46,0,0,0,.38-1.71,4,4,0,0,0-.32-1.7,3,3,0,0,0-.88-1.17,3.58,3.58,0,0,0-1.37-.67,6.6,6.6,0,0,0-1.77-.22,12.8,12.8,0,0,0-1.81.14,11.78,11.78,0,0,0-1.87.42,1.23,1.23,0,0,1-.25.08.18.18,0,0,1-.21-.13l-.53-1.91a.66.66,0,0,1,0-.26c0-.08.07-.14.19-.19a17.59,17.59,0,0,1,2.45-.76,12.64,12.64,0,0,1,2.86-.28,9.51,9.51,0,0,1,3.54.57,5.75,5.75,0,0,1,2.23,1.51,5.38,5.38,0,0,1,1.16,2.1,8.78,8.78,0,0,1,.33,2.39,11.28,11.28,0,0,1-.25,2.48,4.07,4.07,0,0,1-.86,1.74,3.53,3.53,0,0,1-1.57,1,7.65,7.65,0,0,1-2.42.33Zm6.11-6.55a1.36,1.36,0,0,0-1.1.47,2,2,0,0,0-.39,1.33,2,2,0,0,0,.35,1.31,1.38,1.38,0,0,0,1,.47h.28a1.31,1.31,0,0,0,1-.47,2.67,2.67,0,0,0,0-2.64A1.28,1.28,0,0,0,288.94,88.24Z" transform="translate(-12.15 -10)"/><path class="cls-7" d="M12.15,106.13a.13.13,0,0,1,.15-.15h6.15a.13.13,0,0,1,.15.15v.94a.13.13,0,0,1-.15.15H13.58a.08.08,0,0,0-.09.09v3a.08.08,0,0,0,.09.09h4.13a.13.13,0,0,1,.15.15v.94c0,.11-.05.16-.15.16H13.58a.08.08,0,0,0-.09.09v3.11a.08.08,0,0,0,.09.09h4.87a.13.13,0,0,1,.15.15V116a.13.13,0,0,1-.15.15H12.3a.13.13,0,0,1-.15-.15Z" transform="translate(-12.15 -10)"/><path class="cls-7" d="M25.09,116.19a.13.13,0,0,1-.15-.15v-.69h0a2,2,0,0,1-.75.72,2.55,2.55,0,0,1-1.3.29,2.69,2.69,0,0,1-1.57-.44,2.34,2.34,0,0,1-.91-1.29,3.91,3.91,0,0,1-.2-.9,13,13,0,0,1,0-2.28,4,4,0,0,1,.2-.89,2.37,2.37,0,0,1,.9-1.29,2.73,2.73,0,0,1,1.58-.44,2.56,2.56,0,0,1,1.3.28,1.91,1.91,0,0,1,.75.71h0v-3.69a.13.13,0,0,1,.15-.15h1a.13.13,0,0,1,.15.15V116a.13.13,0,0,1-.15.15Zm-1.91-1a1.53,1.53,0,0,0,1.6-1.1,2.44,2.44,0,0,0,.12-.61,9.92,9.92,0,0,0,0-1.78,2.53,2.53,0,0,0-.12-.61,1.52,1.52,0,0,0-1.6-1.09,1.52,1.52,0,0,0-1.58,1.09,3.11,3.11,0,0,0-.12.66,8.95,8.95,0,0,0,0,1.69,3,3,0,0,0,.12.65A1.53,1.53,0,0,0,23.18,115.19Z" transform="translate(-12.15 -10)"/><path class="cls-7" d="M33.19,116.19A.13.13,0,0,1,33,116v-.67h0a2.06,2.06,0,0,1-.77.72,2.41,2.41,0,0,1-1.19.27,2.32,2.32,0,0,1-1.84-.74,2.89,2.89,0,0,1-.66-2v-4.49a.13.13,0,0,1,.15-.15h1a.13.13,0,0,1,.15.15v4.19a2.13,2.13,0,0,0,.39,1.37,1.48,1.48,0,0,0,1.21.48,1.54,1.54,0,0,0,1.18-.48,1.88,1.88,0,0,0,.44-1.3v-4.26a.13.13,0,0,1,.15-.15h1a.13.13,0,0,1,.15.15V116a.13.13,0,0,1-.15.15Z" transform="translate(-12.15 -10)"/><path class="cls-7" d="M36.33,112.59a8,8,0,0,1,.06-1,4.66,4.66,0,0,1,.17-.77,2.6,2.6,0,0,1,1-1.44,3.45,3.45,0,0,1,3.24-.18,2.82,2.82,0,0,1,1,.9.14.14,0,0,1,0,.21l-.66.54a.14.14,0,0,1-.21,0,2.33,2.33,0,0,0-.66-.58,1.76,1.76,0,0,0-.88-.2,1.82,1.82,0,0,0-1,.28,1.54,1.54,0,0,0-.6.85,2.92,2.92,0,0,0-.13.63,8.63,8.63,0,0,0,0,1.66,2.9,2.9,0,0,0,.13.64,1.54,1.54,0,0,0,.6.85,1.82,1.82,0,0,0,1,.28,1.76,1.76,0,0,0,.88-.2,2.33,2.33,0,0,0,.66-.58.14.14,0,0,1,.21,0l.66.54a.14.14,0,0,1,0,.21,2.82,2.82,0,0,1-1,.9,3.45,3.45,0,0,1-3.24-.18,2.6,2.6,0,0,1-1-1.44,4.66,4.66,0,0,1-.17-.77A8.1,8.1,0,0,1,36.33,112.59Z" transform="translate(-12.15 -10)"/><path class="cls-7" d="M48,116.19a.13.13,0,0,1-.15-.15v-.63h0a2,2,0,0,1-.78.68,3,3,0,0,1-1.35.27,3.32,3.32,0,0,1-1-.14,2.12,2.12,0,0,1-.76-.4,1.82,1.82,0,0,1-.51-.68,2.13,2.13,0,0,1-.19-.94,2,2,0,0,1,.74-1.69,3.49,3.49,0,0,1,2.07-.54h1.63c.07,0,.09,0,.09-.09v-.53a1.41,1.41,0,0,0-.36-1.08,2.06,2.06,0,0,0-1.36-.33,3,3,0,0,0-1,.15,2.62,2.62,0,0,0-.73.36c-.09.07-.16.07-.21,0l-.4-.69a.17.17,0,0,1,0-.21,3.25,3.25,0,0,1,1-.51,4.75,4.75,0,0,1,1.43-.2,3.38,3.38,0,0,1,2.18.56,2.41,2.41,0,0,1,.64,1.89V116a.13.13,0,0,1-.15.15Zm-2-.91a2.17,2.17,0,0,0,1.33-.37,1.24,1.24,0,0,0,.48-1v-.79c0-.06,0-.09-.09-.09H46.32a2.55,2.55,0,0,0-1.37.28,1,1,0,0,0-.42.89,1,1,0,0,0,.4.84A1.86,1.86,0,0,0,46,115.28Z" transform="translate(-12.15 -10)"/><path class="cls-7" d="M53.57,116.27a1.93,1.93,0,0,1-1.5-.49,2.24,2.24,0,0,1-.44-1.56v-4.11a.08.08,0,0,0-.09-.09h-.6c-.11,0-.16,0-.16-.15v-.72c0-.1,0-.15.16-.15h.6a.08.08,0,0,0,.09-.09v-2a.13.13,0,0,1,.15-.15h1a.13.13,0,0,1,.15.15v2A.08.08,0,0,0,53,109h1.14a.13.13,0,0,1,.15.15v.72a.13.13,0,0,1-.15.15H53a.08.08,0,0,0-.09.09v4.07a.94.94,0,0,0,.22.73,1.07,1.07,0,0,0,.7.19h.31a.13.13,0,0,1,.15.15v.87a.13.13,0,0,1-.15.15Z" transform="translate(-12.15 -10)"/><path class="cls-7" d="M56.34,107.37a.13.13,0,0,1-.15-.15v-1.09a.13.13,0,0,1,.15-.15h1a.13.13,0,0,1,.15.15v1.09a.13.13,0,0,1-.15.15Zm0,8.82a.13.13,0,0,1-.15-.15v-6.89a.13.13,0,0,1,.15-.15h1a.13.13,0,0,1,.15.15V116a.13.13,0,0,1-.15.15Z" transform="translate(-12.15 -10)"/><path class="cls-7" d="M62.6,116.36a3.1,3.1,0,0,1-1.8-.51,2.69,2.69,0,0,1-1-1.43,4.8,4.8,0,0,1-.18-.79,9,9,0,0,1,0-2.08,4.92,4.92,0,0,1,.18-.78,2.67,2.67,0,0,1,1-1.44,3.47,3.47,0,0,1,3.59,0,2.66,2.66,0,0,1,1,1.44,4.94,4.94,0,0,1,.19.78,9,9,0,0,1,0,2.08,4.8,4.8,0,0,1-.19.79,2.67,2.67,0,0,1-1,1.43A3.09,3.09,0,0,1,62.6,116.36Zm0-1.17a1.72,1.72,0,0,0,1-.3,1.57,1.57,0,0,0,.6-.83,4.26,4.26,0,0,0,.13-.62c0-.22,0-.5,0-.85s0-.63,0-.84a4.26,4.26,0,0,0-.13-.62,1.57,1.57,0,0,0-.6-.83,1.9,1.9,0,0,0-2,0,1.57,1.57,0,0,0-.6.83,4.26,4.26,0,0,0-.13.62q0,.31,0,.84c0,.35,0,.63,0,.85a4.26,4.26,0,0,0,.13.62,1.57,1.57,0,0,0,.6.83A1.71,1.71,0,0,0,62.59,115.19Z" transform="translate(-12.15 -10)"/><path class="cls-7" d="M72.38,116.19a.13.13,0,0,1-.15-.15v-4.2a2.1,2.1,0,0,0-.4-1.36,1.49,1.49,0,0,0-1.21-.48,1.6,1.6,0,0,0-1.2.48,1.77,1.77,0,0,0-.45,1.28V116a.13.13,0,0,1-.15.15h-1a.13.13,0,0,1-.15-.15v-6.89a.13.13,0,0,1,.15-.15h1a.13.13,0,0,1,.15.15v.66h0a2,2,0,0,1,.77-.7,2.5,2.5,0,0,1,1.24-.28,2.34,2.34,0,0,1,1.84.74,2.83,2.83,0,0,1,.66,2V116a.13.13,0,0,1-.15.15Z" transform="translate(-12.15 -10)"/><path class="cls-7" d="M79.3,113.68a2.9,2.9,0,0,1,.48-1.59,7.13,7.13,0,0,1,1.55-1.61c-.23-.29-.42-.55-.58-.77a6.29,6.29,0,0,1-.4-.62,3,3,0,0,1-.22-.55,2,2,0,0,1-.08-.54,2.12,2.12,0,0,1,.18-.87,2,2,0,0,1,.49-.7,2.29,2.29,0,0,1,.74-.45,2.58,2.58,0,0,1,.94-.17,2.7,2.7,0,0,1,1,.17,2.32,2.32,0,0,1,.73.48,2,2,0,0,1,.48.7,2.13,2.13,0,0,1,.16.84,2,2,0,0,1-.1.65,2.29,2.29,0,0,1-.3.61,5,5,0,0,1-.56.65c-.23.22-.52.47-.86.74l1.94,2.49,1-1.27a.13.13,0,0,1,.21,0l.59.51a.13.13,0,0,1,0,.21l-1.18,1.49.5.64a1.19,1.19,0,0,0,.29.27.54.54,0,0,0,.31.09h.23a.13.13,0,0,1,.15.15V116a.13.13,0,0,1-.15.15h-.41a1.63,1.63,0,0,1-.72-.13,1.81,1.81,0,0,1-.59-.57l-.4-.53A5,5,0,0,1,83.44,116a3,3,0,0,1-1.45.34,3.19,3.19,0,0,1-1.15-.2,2.47,2.47,0,0,1-.84-.56,2.58,2.58,0,0,1-.52-.84A3.14,3.14,0,0,1,79.3,113.68Zm1.19-.07a1.69,1.69,0,0,0,.41,1.2,1.56,1.56,0,0,0,1.18.44,1.94,1.94,0,0,0,1-.27,4.4,4.4,0,0,0,1-.91L82,111.37a5.54,5.54,0,0,0-1.17,1.15A2,2,0,0,0,80.49,113.61Zm1.77-3.86c.28-.22.51-.42.69-.58a4.66,4.66,0,0,0,.4-.45,1.29,1.29,0,0,0,.18-.38,1.61,1.61,0,0,0,0-.37,1.06,1.06,0,0,0-.32-.78,1.17,1.17,0,0,0-.85-.31,1.1,1.1,0,0,0-.84.31,1.16,1.16,0,0,0-.29.8,1.13,1.13,0,0,0,0,.32,1.73,1.73,0,0,0,.15.36,5.35,5.35,0,0,0,.31.45Z" transform="translate(-12.15 -10)"/><path class="cls-7" d="M94.72,116.19a.13.13,0,0,1-.15-.15v-8.73a.08.08,0,0,0-.09-.09h-2.8a.13.13,0,0,1-.15-.15v-.94a.13.13,0,0,1,.15-.15h7.11a.13.13,0,0,1,.15.15v.94a.13.13,0,0,1-.15.15H96a.08.08,0,0,0-.09.09V116a.13.13,0,0,1-.15.15Z" transform="translate(-12.15 -10)"/><path class="cls-7" d="M100.66,116.19a.13.13,0,0,1-.15-.15v-6.89a.14.14,0,0,1,.16-.15h1a.13.13,0,0,1,.15.15v.73h0a1.94,1.94,0,0,1,.72-.76,2.25,2.25,0,0,1,1.19-.29,2.48,2.48,0,0,1,.82.14,2,2,0,0,1,.65.4.15.15,0,0,1,0,.21l-.55.74a.13.13,0,0,1-.21,0,2.37,2.37,0,0,0-.53-.26,1.83,1.83,0,0,0-.59-.09,1.29,1.29,0,0,0-1.18.58,2.89,2.89,0,0,0-.36,1.53V116a.13.13,0,0,1-.15.15Z" transform="translate(-12.15 -10)"/><path class="cls-7" d="M110.66,116.19a.13.13,0,0,1-.15-.15v-.63h0a2,2,0,0,1-.78.68,3,3,0,0,1-1.36.27,3.21,3.21,0,0,1-1-.14,2.17,2.17,0,0,1-.77-.4,2.06,2.06,0,0,1-.51-.68,2.28,2.28,0,0,1-.19-.94,1.94,1.94,0,0,1,.75-1.69,3.43,3.43,0,0,1,2.06-.54h1.64a.08.08,0,0,0,.09-.09v-.53a1.41,1.41,0,0,0-.36-1.08,2.07,2.07,0,0,0-1.37-.33,3,3,0,0,0-1,.15,2.7,2.7,0,0,0-.72.36c-.09.07-.16.07-.21,0l-.41-.69a.16.16,0,0,1,0-.21,3.25,3.25,0,0,1,1-.51,4.68,4.68,0,0,1,1.42-.2,3.34,3.34,0,0,1,2.18.56,2.41,2.41,0,0,1,.65,1.89V116a.13.13,0,0,1-.15.15Zm-2-.91a2.2,2.2,0,0,0,1.34-.37,1.24,1.24,0,0,0,.48-1v-.79a.08.08,0,0,0-.09-.09H109a2.53,2.53,0,0,0-1.37.28,1.13,1.13,0,0,0,0,1.73A1.86,1.86,0,0,0,108.66,115.28Z" transform="translate(-12.15 -10)"/><path class="cls-7" d="M114.22,107.37a.13.13,0,0,1-.15-.15v-1.09a.13.13,0,0,1,.15-.15h1c.11,0,.16,0,.16.15v1.09c0,.1-.05.15-.16.15Zm0,8.82a.13.13,0,0,1-.15-.15v-6.89a.13.13,0,0,1,.15-.15h1a.14.14,0,0,1,.15.15V116a.13.13,0,0,1-.15.15Z" transform="translate(-12.15 -10)"/><path class="cls-7" d="M122.5,116.19a.13.13,0,0,1-.15-.15v-4.2a2,2,0,0,0-.4-1.36,1.46,1.46,0,0,0-1.21-.48,1.57,1.57,0,0,0-1.19.48,1.73,1.73,0,0,0-.46,1.28V116a.13.13,0,0,1-.15.15h-1a.13.13,0,0,1-.15-.15v-6.89A.13.13,0,0,1,118,109h1a.13.13,0,0,1,.15.15v.66h0a1.92,1.92,0,0,1,.76-.7,2.54,2.54,0,0,1,1.25-.28,2.34,2.34,0,0,1,1.83.74,2.83,2.83,0,0,1,.66,2V116a.14.14,0,0,1-.16.15Z" transform="translate(-12.15 -10)"/><path class="cls-7" d="M126.12,107.37a.13.13,0,0,1-.15-.15v-1.09a.13.13,0,0,1,.15-.15h1a.13.13,0,0,1,.15.15v1.09a.13.13,0,0,1-.15.15Zm0,8.82A.13.13,0,0,1,126,116v-6.89a.13.13,0,0,1,.15-.15h1a.13.13,0,0,1,.15.15V116a.13.13,0,0,1-.15.15Z" transform="translate(-12.15 -10)"/><path class="cls-7" d="M134.4,116.19a.13.13,0,0,1-.15-.15v-4.2a2,2,0,0,0-.4-1.36,1.46,1.46,0,0,0-1.21-.48,1.57,1.57,0,0,0-1.19.48,1.73,1.73,0,0,0-.46,1.28V116a.13.13,0,0,1-.15.15h-1a.13.13,0,0,1-.15-.15v-6.89a.13.13,0,0,1,.15-.15h1a.13.13,0,0,1,.15.15v.66h0a1.92,1.92,0,0,1,.76-.7,2.54,2.54,0,0,1,1.25-.28,2.34,2.34,0,0,1,1.83.74,2.83,2.83,0,0,1,.66,2V116a.13.13,0,0,1-.15.15Z" transform="translate(-12.15 -10)"/><path class="cls-7" d="M140.25,119.06a3.54,3.54,0,0,1-1.45-.29,2.44,2.44,0,0,1-1.05-.77.14.14,0,0,1,0-.21l.62-.62a.14.14,0,0,1,.22,0,3,3,0,0,0,.77.53,2.12,2.12,0,0,0,.93.19,1.84,1.84,0,0,0,1.36-.47,2.09,2.09,0,0,0,.46-1.47v-.84h0a1.87,1.87,0,0,1-.73.72,2.55,2.55,0,0,1-1.27.27,2.52,2.52,0,0,1-1.53-.44,2.48,2.48,0,0,1-.89-1.3,4,4,0,0,1-.18-.83,7.89,7.89,0,0,1-.06-1.06,7.79,7.79,0,0,1,.06-1.06,3.93,3.93,0,0,1,.18-.84,2.48,2.48,0,0,1,.89-1.3,2.59,2.59,0,0,1,1.53-.44,2.55,2.55,0,0,1,1.27.27,1.87,1.87,0,0,1,.73.72h0v-.67a.13.13,0,0,1,.15-.15h1a.13.13,0,0,1,.15.15v6.73a3.2,3.2,0,0,1-.81,2.36A3.09,3.09,0,0,1,140.25,119.06Zm.18-4.11a1.48,1.48,0,0,0,1.53-1.09,3.33,3.33,0,0,0,.13-.6c0-.22,0-.48,0-.79s0-.58,0-.79a3.65,3.65,0,0,0-.13-.61,1.62,1.62,0,0,0-3.05,0,3.77,3.77,0,0,0-.13.62,6,6,0,0,0-.05.78,4.47,4.47,0,0,0,.18,1.39A1.48,1.48,0,0,0,140.43,115Z" transform="translate(-12.15 -10)"/><path class="cls-7" d="M149.49,106.13a.13.13,0,0,1,.15-.15h6.14c.11,0,.15,0,.15.15v.94c0,.1,0,.15-.15.15h-4.86a.08.08,0,0,0-.09.09v3a.08.08,0,0,0,.09.09h4.13a.13.13,0,0,1,.15.15v.94c0,.11,0,.16-.15.16h-4.13a.08.08,0,0,0-.09.09v3.11a.08.08,0,0,0,.09.09h4.86c.11,0,.15,0,.15.15V116c0,.1,0,.15-.15.15h-6.14a.13.13,0,0,1-.15-.15Z" transform="translate(-12.15 -10)"/><path class="cls-7" d="M159.57,116.19a.18.18,0,0,1-.18-.15l-2.58-6.89q0-.15.12-.15h1a.21.21,0,0,1,.2.15l1.86,5.17h0l1.82-5.17a.18.18,0,0,1,.18-.15h1q.17,0,.12.15L160.62,116a.18.18,0,0,1-.19.15Z" transform="translate(-12.15 -10)"/><path class="cls-7" d="M169.1,116.19A.13.13,0,0,1,169,116v-.63h0a2,2,0,0,1-.78.68,3,3,0,0,1-1.35.27,3.32,3.32,0,0,1-1-.14,2.12,2.12,0,0,1-.76-.4,1.82,1.82,0,0,1-.51-.68,2.13,2.13,0,0,1-.19-.94,2,2,0,0,1,.74-1.69,3.49,3.49,0,0,1,2.07-.54h1.64a.08.08,0,0,0,.09-.09v-.53a1.41,1.41,0,0,0-.36-1.08,2.09,2.09,0,0,0-1.37-.33,3,3,0,0,0-1,.15,2.7,2.7,0,0,0-.72.36c-.09.07-.16.07-.21,0l-.41-.69a.17.17,0,0,1,0-.21,3.25,3.25,0,0,1,1-.51,4.75,4.75,0,0,1,1.43-.2,3.36,3.36,0,0,1,2.18.56,2.41,2.41,0,0,1,.64,1.89V116a.13.13,0,0,1-.15.15Zm-2-.91a2.2,2.2,0,0,0,1.34-.37,1.24,1.24,0,0,0,.48-1v-.79a.08.08,0,0,0-.09-.09h-1.45a2.49,2.49,0,0,0-1.36.28,1.13,1.13,0,0,0,0,1.73A1.86,1.86,0,0,0,167.1,115.28Z" transform="translate(-12.15 -10)"/><path class="cls-7" d="M174.27,116.27a1.73,1.73,0,0,1-1.36-.46,2.12,2.12,0,0,1-.4-1.43v-8.25a.13.13,0,0,1,.15-.15h1a.13.13,0,0,1,.15.15v8.17a.88.88,0,0,0,.17.62.74.74,0,0,0,.55.18h.29a.13.13,0,0,1,.15.15v.87a.13.13,0,0,1-.15.15Z" transform="translate(-12.15 -10)"/><path class="cls-7" d="M181.22,116.19a.13.13,0,0,1-.15-.15v-.67h0a2.08,2.08,0,0,1-.78.72,2.41,2.41,0,0,1-1.19.27,2.34,2.34,0,0,1-1.84-.74,2.88,2.88,0,0,1-.65-2v-4.49a.13.13,0,0,1,.15-.15h1a.13.13,0,0,1,.15.15v4.19a2.13,2.13,0,0,0,.39,1.37,1.46,1.46,0,0,0,1.2.48,1.54,1.54,0,0,0,1.18-.48,1.83,1.83,0,0,0,.44-1.3v-4.26a.13.13,0,0,1,.15-.15h1a.14.14,0,0,1,.15.15V116a.14.14,0,0,1-.15.15Z" transform="translate(-12.15 -10)"/><path class="cls-7" d="M189.16,116.19A.13.13,0,0,1,189,116v-.63h0a2,2,0,0,1-.78.68,3,3,0,0,1-1.35.27,3.32,3.32,0,0,1-1-.14,2.12,2.12,0,0,1-.76-.4,1.82,1.82,0,0,1-.51-.68,2.13,2.13,0,0,1-.19-.94,2,2,0,0,1,.74-1.69,3.49,3.49,0,0,1,2.07-.54h1.64a.08.08,0,0,0,.09-.09v-.53a1.41,1.41,0,0,0-.36-1.08,2.09,2.09,0,0,0-1.37-.33,3,3,0,0,0-1,.15,2.7,2.7,0,0,0-.72.36c-.09.07-.16.07-.22,0l-.4-.69a.17.17,0,0,1,0-.21,3.25,3.25,0,0,1,1-.51,4.75,4.75,0,0,1,1.43-.2,3.36,3.36,0,0,1,2.18.56,2.41,2.41,0,0,1,.64,1.89V116a.13.13,0,0,1-.15.15Zm-2-.91a2.22,2.22,0,0,0,1.34-.37,1.24,1.24,0,0,0,.48-1v-.79a.08.08,0,0,0-.09-.09h-1.45a2.49,2.49,0,0,0-1.36.28,1.13,1.13,0,0,0,0,1.73A1.86,1.86,0,0,0,187.16,115.28Z" transform="translate(-12.15 -10)"/><path class="cls-7" d="M194.69,116.27a2,2,0,0,1-1.5-.49,2.29,2.29,0,0,1-.44-1.56v-4.11a.08.08,0,0,0-.09-.09h-.6a.13.13,0,0,1-.15-.15v-.72a.13.13,0,0,1,.15-.15h.6a.08.08,0,0,0,.09-.09v-2a.13.13,0,0,1,.15-.15h1a.13.13,0,0,1,.15.15v2a.08.08,0,0,0,.09.09h1.14a.13.13,0,0,1,.15.15v.72a.13.13,0,0,1-.15.15H194.1a.08.08,0,0,0-.09.09v4.07a.94.94,0,0,0,.22.73,1.08,1.08,0,0,0,.7.19h.31a.13.13,0,0,1,.15.15v.87a.13.13,0,0,1-.15.15Z" transform="translate(-12.15 -10)"/><path class="cls-7" d="M197.47,107.37a.13.13,0,0,1-.15-.15v-1.09a.13.13,0,0,1,.15-.15h1a.13.13,0,0,1,.15.15v1.09a.13.13,0,0,1-.15.15Zm0,8.82a.13.13,0,0,1-.15-.15v-6.89a.13.13,0,0,1,.15-.15h1a.13.13,0,0,1,.15.15V116a.13.13,0,0,1-.15.15Z" transform="translate(-12.15 -10)"/><path class="cls-7" d="M203.72,116.36a3.12,3.12,0,0,1-1.8-.51,2.67,2.67,0,0,1-1-1.43,4.8,4.8,0,0,1-.18-.79,9,9,0,0,1,0-2.08,4.92,4.92,0,0,1,.18-.78,2.66,2.66,0,0,1,1-1.44,3.2,3.2,0,0,1,1.8-.5,3.14,3.14,0,0,1,1.79.5,2.67,2.67,0,0,1,1.05,1.44,4.92,4.92,0,0,1,.18.78,9,9,0,0,1,0,2.08,4.8,4.8,0,0,1-.18.79,2.69,2.69,0,0,1-1.05,1.43A3.07,3.07,0,0,1,203.72,116.36Zm0-1.17a1.71,1.71,0,0,0,1-.3,1.57,1.57,0,0,0,.6-.83,4.26,4.26,0,0,0,.13-.62c0-.22,0-.5,0-.85s0-.63,0-.84a4.26,4.26,0,0,0-.13-.62,1.57,1.57,0,0,0-.6-.83,1.71,1.71,0,0,0-1-.3,1.76,1.76,0,0,0-1,.3,1.57,1.57,0,0,0-.6.83,3.24,3.24,0,0,0-.12.62,6.35,6.35,0,0,0,0,.84,6.61,6.61,0,0,0,0,.85,3.24,3.24,0,0,0,.12.62,1.57,1.57,0,0,0,.6.83A1.76,1.76,0,0,0,203.72,115.19Z" transform="translate(-12.15 -10)"/><path class="cls-7" d="M213.5,116.19a.13.13,0,0,1-.15-.15v-4.2a2,2,0,0,0-.4-1.36,1.49,1.49,0,0,0-1.21-.48,1.56,1.56,0,0,0-1.19.48,1.73,1.73,0,0,0-.46,1.28V116a.13.13,0,0,1-.15.15h-1a.13.13,0,0,1-.15-.15v-6.89A.13.13,0,0,1,209,109h1a.13.13,0,0,1,.15.15v.66h0a2,2,0,0,1,.77-.7,2.54,2.54,0,0,1,1.25-.28,2.34,2.34,0,0,1,1.83.74,2.83,2.83,0,0,1,.66,2V116a.13.13,0,0,1-.15.15Z" transform="translate(-12.15 -10)"/><path class="cls-7" d="M220.55,114a3.81,3.81,0,0,1-.13-.45,3.76,3.76,0,0,1-.08-.56c0-.22,0-.47-.05-.77s0-.67,0-1.08,0-.79,0-1.09,0-.56.05-.77a3.76,3.76,0,0,1,.08-.56,4.61,4.61,0,0,1,.13-.46,3.35,3.35,0,0,1,1.26-1.81,4.07,4.07,0,0,1,4.12-.06,3.35,3.35,0,0,1,1.29,1.53.14.14,0,0,1-.06.19l-.9.44c-.1,0-.17,0-.21-.08a3,3,0,0,0-.8-1,2.12,2.12,0,0,0-1.31-.38,2.16,2.16,0,0,0-1.35.39,2.34,2.34,0,0,0-.77,1.11c0,.11,0,.23-.08.35s0,.28-.06.47,0,.42,0,.69,0,.61,0,1,0,.73,0,1,0,.5,0,.69,0,.34.06.47,0,.25.08.35a2.34,2.34,0,0,0,.77,1.11,2.16,2.16,0,0,0,1.35.39,2.12,2.12,0,0,0,1.31-.38,3,3,0,0,0,.8-1c0-.1.11-.12.21-.07l.9.43a.15.15,0,0,1,.06.2,3.35,3.35,0,0,1-1.29,1.53,4,4,0,0,1-4.12-.07A3.27,3.27,0,0,1,220.55,114Z" transform="translate(-12.15 -10)"/><path class="cls-7" d="M231.75,116.36a3.07,3.07,0,0,1-1.79-.51,2.74,2.74,0,0,1-1.05-1.43,4.8,4.8,0,0,1-.18-.79,9,9,0,0,1,0-2.08,4.92,4.92,0,0,1,.18-.78,2.72,2.72,0,0,1,1.05-1.44,3.14,3.14,0,0,1,1.79-.5,3.17,3.17,0,0,1,1.8.5,2.66,2.66,0,0,1,1,1.44,4.92,4.92,0,0,1,.18.78,9,9,0,0,1,0,2.08,4.8,4.8,0,0,1-.18.79,2.67,2.67,0,0,1-1,1.43A3.1,3.1,0,0,1,231.75,116.36Zm0-1.17a1.72,1.72,0,0,0,1-.3,1.57,1.57,0,0,0,.6-.83,3.24,3.24,0,0,0,.12-.62,6.61,6.61,0,0,0,0-.85,6.35,6.35,0,0,0,0-.84,3.24,3.24,0,0,0-.12-.62,1.57,1.57,0,0,0-.6-.83,1.9,1.9,0,0,0-2.05,0,1.57,1.57,0,0,0-.6.83,4.26,4.26,0,0,0-.13.62q0,.31,0,.84c0,.35,0,.63,0,.85a4.26,4.26,0,0,0,.13.62,1.57,1.57,0,0,0,.6.83A1.71,1.71,0,0,0,231.75,115.19Z" transform="translate(-12.15 -10)"/><path class="cls-7" d="M246.06,116.19a.13.13,0,0,1-.15-.15v-4.2a2,2,0,0,0-.4-1.36,1.48,1.48,0,0,0-1.21-.48,1.55,1.55,0,0,0-1.18.48,1.7,1.7,0,0,0-.47,1.28V116a.13.13,0,0,1-.15.15h-1a.13.13,0,0,1-.15-.15v-4.2a2.1,2.1,0,0,0-.4-1.36,1.49,1.49,0,0,0-1.21-.48,1.6,1.6,0,0,0-1.2.48,1.77,1.77,0,0,0-.45,1.28V116a.13.13,0,0,1-.15.15h-1a.13.13,0,0,1-.15-.15v-6.89A.13.13,0,0,1,237,109h1a.13.13,0,0,1,.15.15v.66h0a2,2,0,0,1,.77-.7,2.5,2.5,0,0,1,1.24-.28,2.62,2.62,0,0,1,1.27.29,2.12,2.12,0,0,1,.84.84h0a2.77,2.77,0,0,1,.94-.83,2.94,2.94,0,0,1,1.39-.3,2.45,2.45,0,0,1,1.92.74,2.87,2.87,0,0,1,.65,2V116a.13.13,0,0,1-.15.15Z" transform="translate(-12.15 -10)"/><path class="cls-7" d="M258.76,116.19a.13.13,0,0,1-.15-.15v-4.2a2.1,2.1,0,0,0-.4-1.36A1.49,1.49,0,0,0,257,110a1.59,1.59,0,0,0-1.19.48,1.73,1.73,0,0,0-.46,1.28V116a.14.14,0,0,1-.15.15h-1a.13.13,0,0,1-.15-.15v-4.2a2,2,0,0,0-.4-1.36,1.46,1.46,0,0,0-1.2-.48,1.58,1.58,0,0,0-1.2.48,1.73,1.73,0,0,0-.46,1.28V116a.13.13,0,0,1-.15.15h-1a.13.13,0,0,1-.15-.15v-6.89a.13.13,0,0,1,.15-.15h1a.13.13,0,0,1,.15.15v.66h0a1.92,1.92,0,0,1,.76-.7,2.54,2.54,0,0,1,1.25-.28,2.68,2.68,0,0,1,1.27.29,2.1,2.1,0,0,1,.83.84h0a2.68,2.68,0,0,1,.94-.83,2.92,2.92,0,0,1,1.39-.3,2.41,2.41,0,0,1,1.91.74,2.83,2.83,0,0,1,.66,2V116a.13.13,0,0,1-.15.15Z" transform="translate(-12.15 -10)"/><path class="cls-7" d="M262.38,107.37a.13.13,0,0,1-.15-.15v-1.09a.13.13,0,0,1,.15-.15h1a.13.13,0,0,1,.15.15v1.09a.13.13,0,0,1-.15.15Zm0,8.82a.13.13,0,0,1-.15-.15v-6.89a.13.13,0,0,1,.15-.15h1a.13.13,0,0,1,.15.15V116a.13.13,0,0,1-.15.15Z" transform="translate(-12.15 -10)"/><path class="cls-7" d="M268.46,116.36a4.25,4.25,0,0,1-1-.1,4.4,4.4,0,0,1-.82-.25,4.06,4.06,0,0,1-.66-.35,3.68,3.68,0,0,1-.52-.38.13.13,0,0,1,0-.21l.61-.66a.13.13,0,0,1,.21,0,3.64,3.64,0,0,0,1,.58,3.19,3.19,0,0,0,1.24.24,1.85,1.85,0,0,0,1.18-.31.93.93,0,0,0,.4-.79.84.84,0,0,0-.28-.66,2.1,2.1,0,0,0-1.12-.34l-.77-.08a2.74,2.74,0,0,1-1.61-.63,1.82,1.82,0,0,1-.54-1.4,2,2,0,0,1,.7-1.61,3,3,0,0,1,2-.58,4.45,4.45,0,0,1,1.45.23,3.93,3.93,0,0,1,1.1.57q.12.08,0,.21l-.51.64a.15.15,0,0,1-.21,0,4.07,4.07,0,0,0-.86-.4,3.31,3.31,0,0,0-1.08-.18,1.57,1.57,0,0,0-1,.28.87.87,0,0,0-.35.71.81.81,0,0,0,.3.67,2.39,2.39,0,0,0,1.12.31l.75.07a2.63,2.63,0,0,1,1.63.63,1.9,1.9,0,0,1,.53,1.4,2.17,2.17,0,0,1-.74,1.71A3.22,3.22,0,0,1,268.46,116.36Z" transform="translate(-12.15 -10)"/><path class="cls-7" d="M275.82,116.36a4.25,4.25,0,0,1-1-.1A4.4,4.4,0,0,1,274,116a4.06,4.06,0,0,1-.66-.35,3.68,3.68,0,0,1-.52-.38.13.13,0,0,1,0-.21l.62-.66a.13.13,0,0,1,.21,0,3.58,3.58,0,0,0,1,.58,3.22,3.22,0,0,0,1.24.24,1.88,1.88,0,0,0,1.19-.31.94.94,0,0,0,.39-.79.84.84,0,0,0-.28-.66,2.1,2.1,0,0,0-1.12-.34l-.77-.08a2.71,2.71,0,0,1-1.6-.63,1.83,1.83,0,0,1-.55-1.4,2,2,0,0,1,.7-1.61,3,3,0,0,1,2-.58,4.45,4.45,0,0,1,1.45.23,3.79,3.79,0,0,1,1.1.57q.12.08,0,.21l-.51.64a.15.15,0,0,1-.21,0,4.07,4.07,0,0,0-.86-.4,3.31,3.31,0,0,0-1.08-.18,1.57,1.57,0,0,0-1,.28.86.86,0,0,0-.34.71.81.81,0,0,0,.3.67,2.31,2.31,0,0,0,1.11.31l.75.07a2.6,2.6,0,0,1,1.63.63,1.86,1.86,0,0,1,.53,1.4,2.14,2.14,0,0,1-.74,1.71A3.19,3.19,0,0,1,275.82,116.36Z" transform="translate(-12.15 -10)"/><path class="cls-7" d="M280.83,107.37a.13.13,0,0,1-.15-.15v-1.09a.13.13,0,0,1,.15-.15h1a.13.13,0,0,1,.15.15v1.09a.13.13,0,0,1-.15.15Zm0,8.82a.13.13,0,0,1-.15-.15v-6.89a.13.13,0,0,1,.15-.15h1a.13.13,0,0,1,.15.15V116a.13.13,0,0,1-.15.15Z" transform="translate(-12.15 -10)"/><path class="cls-7" d="M287.08,116.36a3.12,3.12,0,0,1-1.8-.51,2.72,2.72,0,0,1-1-1.43,4.8,4.8,0,0,1-.18-.79,9,9,0,0,1,0-2.08,4.92,4.92,0,0,1,.18-.78,2.71,2.71,0,0,1,1-1.44,3.2,3.2,0,0,1,1.8-.5,3.14,3.14,0,0,1,1.79.5,2.67,2.67,0,0,1,1.05,1.44,4.92,4.92,0,0,1,.18.78,9,9,0,0,1,0,2.08,4.8,4.8,0,0,1-.18.79,2.69,2.69,0,0,1-1.05,1.43A3.07,3.07,0,0,1,287.08,116.36Zm0-1.17a1.71,1.71,0,0,0,1-.3,1.57,1.57,0,0,0,.6-.83,4.26,4.26,0,0,0,.13-.62c0-.22,0-.5,0-.85s0-.63,0-.84a4.26,4.26,0,0,0-.13-.62,1.57,1.57,0,0,0-.6-.83,1.88,1.88,0,0,0-2,0,1.57,1.57,0,0,0-.6.83,3.25,3.25,0,0,0-.13.62,6.35,6.35,0,0,0,0,.84,6.61,6.61,0,0,0,0,.85,3.25,3.25,0,0,0,.13.62,1.57,1.57,0,0,0,.6.83A1.71,1.71,0,0,0,287.08,115.19Z" transform="translate(-12.15 -10)"/><path class="cls-7" d="M296.86,116.19a.13.13,0,0,1-.15-.15v-4.2a2,2,0,0,0-.4-1.36,1.48,1.48,0,0,0-1.21-.48,1.56,1.56,0,0,0-1.19.48,1.73,1.73,0,0,0-.46,1.28V116a.13.13,0,0,1-.15.15h-1a.13.13,0,0,1-.15-.15v-6.89a.13.13,0,0,1,.15-.15h1a.13.13,0,0,1,.15.15v.66h0a1.92,1.92,0,0,1,.76-.7,2.54,2.54,0,0,1,1.25-.28,2.34,2.34,0,0,1,1.83.74,2.83,2.83,0,0,1,.66,2V116a.13.13,0,0,1-.15.15Z" transform="translate(-12.15 -10)"/></svg>