	<svg
				xmlns="http://www.w3.org/2000/svg"
				xmlns:xlink="http://www.w3.org/1999/xlink"
				version="1.1"

				viewBox="0 0 256 256"
				xml:space="preserve"
        id="img"
			>
				<g transform="translate(128 128) scale(0.72 0.72)">
					<g
						style="
							stroke: none;
							stroke-width: 0;
							stroke-dasharray: none;
							stroke-linecap: butt;
							stroke-linejoin: miter;
							stroke-miterlimit: 10;
							fill: none;
							fill-rule: nonzero;
							opacity: 1;
						"
						transform="translate(-175.05 -175.05000000000004) scale(3.89 3.89)"
					>
						<path
							d="M 48.465 74.879 h -6.931 c -3.05 0 -5.531 -2.481 -5.531 -5.531 c 0 -1.327 -0.735 -2.528 -1.918 -3.136 c -0.679 -0.349 -1.354 -0.738 -2.005 -1.157 c -1.116 -0.718 -2.52 -0.753 -3.667 -0.09 c -2.643 1.525 -6.033 0.617 -7.557 -2.025 l -3.465 -6.002 c -0.738 -1.28 -0.935 -2.769 -0.553 -4.197 c 0.382 -1.427 1.297 -2.62 2.577 -3.359 c 1.148 -0.663 1.821 -1.898 1.757 -3.221 c -0.037 -0.772 -0.037 -1.551 0 -2.315 c 0.065 -1.329 -0.608 -2.566 -1.755 -3.228 c -0.007 -0.004 -0.015 -0.009 -0.022 -0.014 c -1.269 -0.739 -2.176 -1.926 -2.557 -3.346 c -0.383 -1.427 -0.186 -2.917 0.552 -4.197 l 3.465 -6.002 c 0.739 -1.279 1.932 -2.194 3.359 -2.577 c 1.428 -0.383 2.917 -0.187 4.197 0.553 c 1.147 0.661 2.579 0.611 3.737 -0.129 c 0.303 -0.194 0.611 -0.382 0.925 -0.563 c 0.313 -0.181 0.63 -0.354 0.949 -0.519 c 1.222 -0.632 1.981 -1.848 1.981 -3.172 c 0 -3.049 2.481 -5.531 5.531 -5.531 h 6.931 c 3.05 0 5.531 2.481 5.531 5.531 c 0 1.328 0.735 2.529 1.918 3.137 c 0.688 0.354 1.363 0.743 2.005 1.158 c 1.113 0.717 2.52 0.752 3.667 0.089 c 0.011 -0.006 0.021 -0.012 0.031 -0.018 c 1.272 -0.725 2.752 -0.915 4.167 -0.536 c 1.427 0.383 2.62 1.298 3.359 2.577 l 3.465 6.002 c 0.739 1.28 0.935 2.77 0.553 4.197 c -0.383 1.427 -1.297 2.62 -2.577 3.359 c -1.149 0.663 -1.822 1.897 -1.757 3.222 c 0.037 0.759 0.037 1.537 0 2.313 c -0.065 1.33 0.607 2.567 1.755 3.23 c 2.643 1.527 3.551 4.916 2.027 7.557 l -3.465 6.003 c -1.524 2.64 -4.913 3.547 -7.556 2.025 c -1.145 -0.662 -2.578 -0.613 -3.738 0.129 c -0.301 0.193 -0.609 0.381 -0.922 0.562 c -0.316 0.182 -0.633 0.354 -0.95 0.519 c -1.224 0.632 -1.983 1.847 -1.983 3.172 C 53.996 72.397 51.515 74.879 48.465 74.879 z M 30.174 62.49 c 1.039 0 2.076 0.296 2.989 0.883 c 0.595 0.384 1.213 0.74 1.836 1.059 c 1.853 0.953 3.004 2.835 3.004 4.913 c 0 1.948 1.584 3.534 3.532 3.534 h 6.931 c 1.947 0 3.532 -1.584 3.532 -3.532 c 0 -2.075 1.173 -3.971 3.062 -4.947 c 0.29 -0.15 0.581 -0.309 0.87 -0.475 c 0.283 -0.164 0.566 -0.336 0.842 -0.513 c 1.792 -1.147 4.02 -1.213 5.816 -0.178 c 1.684 0.972 3.851 0.394 4.824 -1.292 l 3.465 -6.003 c 0.471 -0.817 0.597 -1.769 0.353 -2.68 c -0.245 -0.912 -0.829 -1.673 -1.646 -2.145 c -1.802 -1.041 -2.856 -2.979 -2.755 -5.06 c 0.034 -0.711 0.034 -1.424 0 -2.119 c -0.101 -2.076 0.955 -4.011 2.753 -5.049 c 0.819 -0.473 1.404 -1.234 1.648 -2.146 c 0.244 -0.911 0.118 -1.863 -0.353 -2.68 l -3.465 -6.002 c -0.471 -0.817 -1.233 -1.401 -2.145 -1.645 c -0.913 -0.245 -1.864 -0.119 -2.68 0.353 c -0.011 0.006 -0.021 0.012 -0.031 0.017 c -1.795 1.021 -3.983 0.962 -5.719 -0.157 c -0.589 -0.379 -1.206 -0.736 -1.836 -1.06 c -1.853 -0.952 -3.004 -2.834 -3.004 -4.913 c 0 -1.95 -1.584 -3.534 -3.532 -3.534 h -6.931 c -1.947 0 -3.532 1.585 -3.532 3.532 c 0 2.075 -1.173 3.971 -3.062 4.948 c -0.291 0.151 -0.58 0.308 -0.867 0.474 c -0.288 0.166 -0.57 0.338 -0.846 0.514 c -1.79 1.147 -4.019 1.215 -5.816 0.178 l 0 0 c -0.817 -0.471 -1.768 -0.597 -2.68 -0.353 c -0.911 0.244 -1.673 0.828 -2.145 1.645 l -3.465 6.002 c -0.471 0.817 -0.597 1.769 -0.353 2.68 c 0.244 0.911 0.829 1.673 1.646 2.144 c 0.007 0.004 0.015 0.009 0.022 0.014 c 1.787 1.042 2.833 2.972 2.732 5.045 c -0.035 0.7 -0.035 1.414 0 2.121 c 0.101 2.075 -0.955 4.01 -2.753 5.049 c -1.687 0.974 -2.268 3.138 -1.293 4.825 l 3.465 6.002 c 0.973 1.687 3.137 2.266 4.825 1.293 C 28.272 62.737 29.224 62.49 30.174 62.49 z M 45.022 58.838 c -1.202 0 -2.411 -0.158 -3.603 -0.477 c -3.569 -0.956 -6.552 -3.245 -8.4 -6.445 l 0 0 c -1.847 -3.2 -2.338 -6.927 -1.382 -10.496 c 0.956 -3.569 3.245 -6.552 6.445 -8.4 c 3.199 -1.848 6.928 -2.338 10.497 -1.382 c 3.569 0.956 6.551 3.245 8.399 6.445 c 1.847 3.2 2.338 6.927 1.381 10.497 c -0.956 3.569 -3.245 6.551 -6.445 8.399 C 49.785 58.21 47.419 58.838 45.022 58.838 z M 44.981 33.161 c -2.051 0 -4.074 0.537 -5.898 1.591 c -2.738 1.58 -4.695 4.132 -5.514 7.185 c -0.818 3.053 -0.398 6.242 1.183 8.979 l 0 0 c 1.58 2.737 4.132 4.695 7.185 5.513 c 3.053 0.818 6.242 0.399 8.979 -1.182 c 2.737 -1.58 4.695 -4.132 5.513 -7.185 c 0.818 -3.053 0.398 -6.243 -1.182 -8.98 c -1.58 -2.738 -4.132 -4.695 -7.185 -5.514 C 47.043 33.297 46.008 33.161 44.981 33.161 z"
							style="
								stroke: none;
								stroke-width: 1;
								stroke-dasharray: none;
								stroke-linecap: butt;
								stroke-linejoin: miter;
								stroke-miterlimit: 10;
								fill: var(--svg-color);
								fill-rule: nonzero;
								opacity: 1;
							"
							transform=" matrix(1 0 0 1 0 0) "
							stroke-linecap="round"
						/>
						<path
							d="M 8.054 69.864 c -0.328 0 -0.65 -0.161 -0.841 -0.458 c -9.189 -14.251 -9.634 -32.22 -1.162 -46.894 C 12.057 12.109 21.756 4.667 33.36 1.558 c 11.604 -3.109 23.725 -1.513 34.128 4.493 c 0.478 0.276 0.642 0.887 0.366 1.366 c -0.276 0.478 -0.889 0.641 -1.366 0.366 c -9.94 -5.739 -21.521 -7.264 -32.611 -4.294 C 22.789 6.46 13.522 13.571 7.782 23.512 c -8.096 14.022 -7.67 31.193 1.11 44.81 c 0.299 0.464 0.165 1.083 -0.298 1.382 C 8.427 69.812 8.239 69.864 8.054 69.864 z"
							style="
								stroke: none;
								stroke-width: 1;
								stroke-dasharray: none;
								stroke-linecap: butt;
								stroke-linejoin: miter;
								stroke-miterlimit: 10;
								fill: var(--svg-color);
								fill-rule: nonzero;
								opacity: 1;
							"
							transform=" matrix(1 0 0 1 0 0) "
							stroke-linecap="round"
						/>
						<path
							d="M 44.927 89.994 c -7.794 0 -15.484 -2.043 -22.414 -6.044 c -0.478 -0.276 -0.642 -0.887 -0.366 -1.366 s 0.885 -0.643 1.366 -0.366 c 9.941 5.741 21.523 7.264 32.61 4.294 c 11.088 -2.971 20.355 -10.083 26.095 -20.024 c 7.321 -12.68 7.706 -28.043 1.03 -41.095 c -0.251 -0.492 -0.057 -1.094 0.435 -1.345 c 0.49 -0.252 1.093 -0.058 1.345 0.434 c 6.986 13.659 6.582 29.736 -1.079 43.005 C 77.943 77.891 68.244 85.334 56.64 88.443 C 52.766 89.48 48.833 89.994 44.927 89.994 z"
							style="
								stroke: none;
								stroke-width: 1;
								stroke-dasharray: none;
								stroke-linecap: butt;
								stroke-linejoin: miter;
								stroke-miterlimit: 10;
								fill:  var(--svg-color);
								fill-rule: nonzero;
								opacity: 1;
							"
							transform=" matrix(1 0 0 1 0 0) "
							stroke-linecap="round"
						/>
						<path
							d="M 71.545 15.829 c -1.087 0 -2.16 -0.285 -3.127 -0.843 c -1.452 -0.838 -2.489 -2.191 -2.924 -3.809 c -0.433 -1.619 -0.211 -3.31 0.627 -4.761 c 1.73 -2.996 5.575 -4.024 8.571 -2.296 c 1.452 0.838 2.489 2.191 2.923 3.81 c 0.433 1.618 0.211 3.309 -0.627 4.76 c -0.839 1.451 -2.191 2.489 -3.809 2.923 C 72.638 15.758 72.09 15.829 71.545 15.829 z M 71.563 5.28 c -1.479 0 -2.919 0.767 -3.709 2.136 c -0.571 0.989 -0.722 2.141 -0.427 3.243 c 0.295 1.103 1.003 2.025 1.991 2.595 c 2.042 1.178 4.659 0.476 5.839 -1.564 c 0.571 -0.989 0.722 -2.141 0.428 -3.243 c -0.296 -1.103 -1.003 -2.025 -1.991 -2.595 C 73.021 5.464 72.287 5.28 71.563 5.28 z"
							style="
								stroke: none;
								stroke-width: 1;
								stroke-dasharray: none;
								stroke-linecap: butt;
								stroke-linejoin: miter;
								stroke-miterlimit: 10;
								fill:  var(--svg-color);
								fill-rule: nonzero;
								opacity: 1;
							"
							transform=" matrix(1 0 0 1 0 0) "
							stroke-linecap="round"
						/>
						<path
							d="M 71.545 15.829 c -1.087 0 -2.16 -0.285 -3.127 -0.843 c -1.452 -0.838 -2.489 -2.191 -2.924 -3.809 c -0.433 -1.619 -0.211 -3.31 0.627 -4.761 c 1.73 -2.996 5.575 -4.024 8.571 -2.296 c 1.452 0.838 2.489 2.191 2.923 3.81 c 0.433 1.618 0.211 3.309 -0.627 4.76 c -0.839 1.451 -2.191 2.489 -3.809 2.923 C 72.638 15.758 72.09 15.829 71.545 15.829 z M 71.563 5.28 c -1.479 0 -2.919 0.767 -3.709 2.136 c -0.571 0.989 -0.722 2.141 -0.427 3.243 c 0.295 1.103 1.003 2.025 1.991 2.595 c 2.042 1.178 4.659 0.476 5.839 -1.564 c 0.571 -0.989 0.722 -2.141 0.428 -3.243 c -0.296 -1.103 -1.003 -2.025 -1.991 -2.595 C 73.021 5.464 72.287 5.28 71.563 5.28 z"
							style="
								stroke: none;
								stroke-width: 1;
								stroke-dasharray: none;
								stroke-linecap: butt;
								stroke-linejoin: miter;
								stroke-miterlimit: 10;
								fill: var(--svg-color);
								fill-rule: nonzero;
								opacity: 1;
							"
							transform=" matrix(1 0 0 1 0 0) "
							stroke-linecap="round"
						/>
						<path
							d="M 18.434 86.723 c -1.087 0 -2.16 -0.285 -3.126 -0.842 c -1.451 -0.839 -2.489 -2.192 -2.923 -3.81 c -0.433 -1.618 -0.211 -3.309 0.627 -4.761 c 0.838 -1.452 2.191 -2.489 3.81 -2.923 c 1.619 -0.431 3.309 -0.211 4.76 0.627 c 2.996 1.73 4.026 5.574 2.297 8.57 c -0.838 1.452 -2.191 2.489 -3.81 2.924 C 19.528 86.651 18.98 86.723 18.434 86.723 z M 18.452 76.173 c -1.478 0 -2.918 0.766 -3.708 2.136 c -1.179 2.041 -0.477 4.661 1.564 5.839 c 0.989 0.572 2.141 0.725 3.243 0.427 c 1.103 -0.295 2.025 -1.003 2.596 -1.991 c 1.178 -2.041 0.476 -4.66 -1.565 -5.839 C 19.911 76.358 19.176 76.173 18.452 76.173 z"
							style="
								stroke: none;
								stroke-width: 1;
								stroke-dasharray: none;
								stroke-linecap: butt;
								stroke-linejoin: miter;
								stroke-miterlimit: 10;
								fill: var(--svg-color);
								fill-rule: nonzero;
								opacity: 1;
							"
							transform=" matrix(1 0 0 1 0 0) "
							stroke-linecap="round"
						/>
					</g>
				</g>
			</svg>