<svg>
	<symbol id="grid-icon"
		xmlns="http://www.w3.org/2000/svg" xml:space="preserve" viewBox="0 0 26.002 25.999">
		<path id="Union_9" d="M-4628-12146a1,1,0,0,1-1-1v-4a1,1,0,0,1,1-1h4a1,1,0,0,1,1,1v4a1,1,0,0,1-1,1Zm-10,0a1,1,0,0,1-1-1v-4a1,1,0,0,1,1-1h4a1,1,0,0,1,1,1v4a1,1,0,0,1-1,1Zm-10,0a1,1,0,0,1-1-1v-4a1,1,0,0,1,1-1h4a1,1,0,0,1,1,1v4a1,1,0,0,1-1,1Zm20-10a1,1,0,0,1-1-1v-4a1,1,0,0,1,1-1h4a1,1,0,0,1,1,1v4a1,1,0,0,1-1,1Zm-10,0a1,1,0,0,1-1-1v-4a1,1,0,0,1,1-1h4a1,1,0,0,1,1,1v4a1,1,0,0,1-1,1Zm-10,0a1,1,0,0,1-1-1v-4a1,1,0,0,1,1-1h4a1,1,0,0,1,1,1v4a1,1,0,0,1-1,1Zm20-10a1,1,0,0,1-1-1v-4a1,1,0,0,1,1-1h4a1,1,0,0,1,1,1v4a1,1,0,0,1-1,1Zm-10,0a1,1,0,0,1-1-1v-4a1,1,0,0,1,1-1h4a1,1,0,0,1,1,1v4a1,1,0,0,1-1,1Zm-10,0a1,1,0,0,1-1-1v-4a1,1,0,0,1,1-1h4a1,1,0,0,1,1,1v4a1,1,0,0,1-1,1Z" transform="translate(4649.001 12172)" fill="currentcolor"></path>
	</symbol>

	<symbol id="grid-list"
		xmlns="http://www.w3.org/2000/svg" width="26.002" height="25.999" viewBox="0 0 26.002 25.999">
		<path id="Union_8" data-name="Union 8" d="M-4628-12146h-10a1,1,0,0,1-1-1v-4a1,1,0,0,1,1-1h14a1,1,0,0,1,1,1v4a1,1,0,0,1-1,1Zm-20,0a1,1,0,0,1-1-1v-4a1,1,0,0,1,1-1h4a1,1,0,0,1,1,1v4a1,1,0,0,1-1,1Zm20-10h-10a1,1,0,0,1-1-1v-4a1,1,0,0,1,1-1h14a1,1,0,0,1,1,1v4a1,1,0,0,1-1,1Zm-20,0a1,1,0,0,1-1-1v-4a1,1,0,0,1,1-1h4a1,1,0,0,1,1,1v4a1,1,0,0,1-1,1Zm20-10h-10a1,1,0,0,1-1-1v-4a1,1,0,0,1,1-1h14a1,1,0,0,1,1,1v4a1,1,0,0,1-1,1Zm-20,0a1,1,0,0,1-1-1v-4a1,1,0,0,1,1-1h4a1,1,0,0,1,1,1v4a1,1,0,0,1-1,1Z" transform="translate(4649.001 12172)" fill="currentcolor" />
	</symbol>
</svg>