<svg xmlns="http://www.w3.org/2000/svg" xmlns:xlink="http://www.w3.org/1999/xlink" width="878.455" height="223.093" viewBox="0 0 878.455 223.093">
  <defs>
    <linearGradient id="linear-gradient" y1="0.5" x2="1" y2="0.5" gradientUnits="objectBoundingBox">
      <stop offset="0" stop-color="#d1d5de"/>
      <stop offset="1" stop-color="#dbdbdb"/>
    </linearGradient>
  </defs>
  <g id="Group_19527" data-name="Group 19527" transform="translate(-19155.018 -11294.413)">
    <path id="Path_20440" data-name="Path 20440" d="M680.863,498.993c3.982-22.545,9.94-66.6,9.633-89.5-.5-37.388-18.42-74.234-47.68-97.514S573.5,279.529,537.08,288c-23.031,5.356-44.683,17.336-68.308,18.31-24.258,1-47.309-9.72-71.189-14.1-56.7-10.409-117.47,18.123-149.2,66.253S211.6,446.23,234.816,498.993Z" transform="translate(19340 11017.183)" opacity="0.2" fill="url(#linear-gradient)" style="mix-blend-mode: multiply;isolation: isolate"/>
    <path id="Path_20441" data-name="Path 20441" d="M89.658,592.877c-5.194-14.9-3.766-31.264-1.021-46.8s6.757-31.022,6.546-46.8a88.649,88.649,0,0,0-32.865-67.216,87.193,87.193,0,0,0-72.883-16.532c-15.875,3.693-30.8,11.95-47.084,12.622-16.721.689-32.61-6.7-49.07-9.722-39.082-7.175-80.971,12.492-102.84,45.668s-23.946,77.678-7.941,114.047,55.146,55.4,55.934,55.844,202.378,0,202.378,0c1.637-.08,39.448-6.974,57.265.911l25.878-13.665C108.18,620.806,94.852,607.778,89.658,592.877Z" transform="translate(19383 10882.612)" opacity="0.2" fill="url(#linear-gradient)" style="mix-blend-mode: multiply;isolation: isolate"/>
    <path id="Path_20445" data-name="Path 20445" d="M696.652,241.144v221.13H384.18a136.875,136.875,0,0,1,5.86-27.026,133.173,133.173,0,0,1,57.691-71.955,115.65,115.65,0,0,1,46.4-15.922c21.465-2.4,45.664.5,62.209-13.385,9.951-8.354,14.786-21.107,20.987-32.527,17.664-32.493,50.934-57.366,87.826-59.98C675.734,240.728,686.462,238.052,696.652,241.144Z" transform="translate(19336.82 11054.726)" fill="#f8e6cb" opacity="0.2" style="mix-blend-mode: overlay;isolation: isolate"/>
    <path id="Path_20446" data-name="Path 20446" d="M647.26,500.005H161.33a155.913,155.913,0,0,1,9.92-40.06c11.72-29.92,35.16-58.44,66.97-62.98,13.72-1.96,27.2.7,40.25,5.54a47.126,47.126,0,0,0,52.48-13.99A84.822,84.822,0,0,1,440,370.1a127.9,127.9,0,0,1,18.58,14.03c16.7,14.72,31.71,31.94,52.74,38.34,21.87,6.64,45.77-.03,68.18,4.45,32.85,6.57,56.99,36.54,66.53,68.65Q646.69,497.77,647.26,500.005Z" transform="translate(19298 11016.906)" opacity="0.2" fill="url(#linear-gradient)" style="mix-blend-mode: soft-light;isolation: isolate"/>
  </g>
</svg>
