<svg xmlns="http://www.w3.org/2000/svg" xmlns:xlink="http://www.w3.org/1999/xlink" viewBox="0 0 149.762 99.655">
  <defs>
    <style>
      .cls-1 {
        fill: none;
      }

      .cls-2 {
        fill: #708187;
      }

      .cls-3 {
        clip-path: url(#clip-path);
      }

      .cls-4 {
        clip-path: url(#clip-path-2);
      }

      .cls-5 {
        fill: #273777;
      }

      .cls-6 {
        fill: #a9aaac;
      }

      .cls-7 {
        fill: #ccd433;
      }

      .cls-8 {
        fill: #71b545;
      }

      .cls-9 {
        fill: #26b3ba;
      }

      .cls-10 {
        fill: #59b15a;
      }

      .cls-11 {
        fill: #2785c6;
      }

      .cls-12 {
        fill: #1d3a6c;
      }

      .cls-13 {
        fill: #6f777e;
      }
    </style>
    <clipPath id="clip-path">
      <path id="Clip_6" data-name="Clip 6" class="cls-1" d="M0,0H3.689V3.476H0Z" transform="translate(0.325 0.345)"/>
    </clipPath>
    <clipPath id="clip-path-2">
      <path id="Clip_9" data-name="Clip 9" class="cls-1" d="M0,99.655H149.762V0H0Z" transform="translate(0 0.345)"/>
    </clipPath>
  </defs>
  <g id="logo" transform="translate(0 -0.345)">
    <path id="Fill_1" data-name="Fill 1" class="cls-2" d="M0,2H2V0H0Z" transform="translate(89 3)"/>
    <path id="Fill_1-2" data-name="Fill 1" class="cls-2" d="M0,2H2V0H0Z" transform="translate(92 3)"/>
    <path id="Fill_2" data-name="Fill 2" class="cls-2" d="M0,2H2V0H0Z" transform="translate(124 23)"/>
    <path id="Fill_2-2" data-name="Fill 2" class="cls-2" d="M0,2H2V0H0Z" transform="translate(120 23)"/>
    <g id="Group_153" data-name="Group 153">
      <path id="Fill_3" data-name="Fill 3" class="cls-2" d="M2.894,15.652a2.461,2.461,0,0,0,1-.846,3.609,3.609,0,0,0,.536-1.337A9,9,0,0,0,4.589,11.7V0H2.9V11.7a8.287,8.287,0,0,1-.074,1.2,2.236,2.236,0,0,1-.252.794,1.062,1.062,0,0,1-.485.439,1.961,1.961,0,0,1-.789.135,3.3,3.3,0,0,1-.4-.021,3.3,3.3,0,0,1-.463-.1L0,15.756a5.192,5.192,0,0,0,1.368.188,3.566,3.566,0,0,0,1.526-.293" transform="translate(140.825 5.494)"/>
      <g id="Group_7" data-name="Group 7" transform="translate(133.914)">
        <path id="Clip_6-2" data-name="Clip 6" class="cls-1" d="M0,0H3.689V3.476H0Z" transform="translate(0.325 0.345)"/>
        <g id="Group_7-2" data-name="Group 7" class="cls-3">
          <path id="Fill_5" data-name="Fill 5" class="cls-2" d="M3.689,2.187H1.377V1.8a.771.771,0,0,1,.136-.49.684.684,0,0,1,.519-.145H3.189V0H2A2.051,2.051,0,0,0,.515.5,2.181,2.181,0,0,0,0,2.11V3.476H3.689Z" transform="translate(0.325 0.345)"/>
        </g>
      </g>
      <path id="Clip_9-2" data-name="Clip 9" class="cls-1" d="M0,99.655H149.762V0H0Z" transform="translate(0 0.345)"/>
      <g class="cls-4">
        <path id="Fill_11" data-name="Fill 11" class="cls-2" d="M4.968,15.944a6.489,6.489,0,0,1-1.5-.177,15.566,15.566,0,0,1-1.716-.532l.526-1.609a8.206,8.206,0,0,0,1.421.5,6.165,6.165,0,0,0,1.4.147,3.52,3.52,0,0,0,2.127-.564,2.2,2.2,0,0,0,.758-1.881v-1.66l-.566,1.179H6.968a10.714,10.714,0,0,1-2.673-.324,6.7,6.7,0,0,1-2.221-1A4.923,4.923,0,0,1,.558,8.286,5.4,5.4,0,0,1,0,5.747,5.257,5.257,0,0,1,.5,3.459,5.385,5.385,0,0,1,1.926,1.641a6.9,6.9,0,0,1,2.2-1.2A8.775,8.775,0,0,1,6.968,0H9.662V11.661a4.339,4.339,0,0,1-1.116,3.124A4.808,4.808,0,0,1,4.968,15.944ZM6.219,1.692a5.153,5.153,0,0,0-1.652.293,4.8,4.8,0,0,0-1.462.825A4.139,4.139,0,0,0,2.074,4.1a3.546,3.546,0,0,0-.39,1.651,3.765,3.765,0,0,0,.358,1.672,3.557,3.557,0,0,0,.989,1.233,4.478,4.478,0,0,0,1.463.762,5.879,5.879,0,0,0,1.778.263H7.979V2.169l.961-.477Z" transform="translate(128.266 5.493)"/>
        <path id="Fill_12" data-name="Fill 12" class="cls-2" d="M44.618,15.774H13.913a3.559,3.559,0,0,1-1.526-.293,2.462,2.462,0,0,1-1-.846c-.029-.042-.055-.089-.081-.134l-.023-.04v1.252h-3.5a7.687,7.687,0,0,1-5.637-2.336A7.88,7.88,0,0,1,0,7.9V7.856a7.914,7.914,0,0,1,2.167-5.5A7.725,7.725,0,0,1,7.826,0h4.55V11.532a8.39,8.39,0,0,0,.073,1.2,2.261,2.261,0,0,0,.252.795,1.069,1.069,0,0,0,.484.438,1.968,1.968,0,0,0,.79.136H42.934V0h1.685V15.773ZM7.782,1.584A5.978,5.978,0,0,0,1.793,7.813v.043a6.091,6.091,0,0,0,6.034,6.272h3.285a4.033,4.033,0,0,1-.261-.832,9.01,9.01,0,0,1-.158-1.766V2.1l1.031-.511Z" transform="translate(80.901 5.494)"/>
        <path id="Fill_13" data-name="Fill 13" class="cls-2" d="M11.634,11.579l.733,1.926L1.672,0H0V15.7H1.74V3.866L.75,1.578l11.2,14.12h1.423V0H11.634Z" transform="translate(60.844 5.476)"/>
        <path id="Fill_14" data-name="Fill 14" class="cls-2" d="M18.485,15.519l9.709-9.2V0H2.249V7.187h13.3L20.49,4.034,8.172,16.335,9.49,21.672H13c4.718,0,7.515,1.743,7.515,4.847v.108c0,2.832-2.249,4.628-5.43,4.628-3.895,0-6.637-1.633-9.27-4.574L0,32.182c3.291,3.866,8.063,6.589,14.975,6.589,8.557,0,13.823-5.282,13.823-12.47v-.109c0-7.08-5.1-9.8-10.313-10.673" transform="translate(77.976 30.737)"/>
        <path id="Fill_15" data-name="Fill 15" class="cls-2" d="M8.042,16.236a7.943,7.943,0,0,1-5.825-2.414A8.144,8.144,0,0,1,0,8.162V8.118A8.178,8.178,0,0,1,2.239,2.436,7.982,7.982,0,0,1,8.087,0a7.944,7.944,0,0,1,5.825,2.413,8.141,8.141,0,0,1,2.216,5.659v.046A8.178,8.178,0,0,1,13.89,13.8,7.982,7.982,0,0,1,8.042,16.236Zm0-14.6A6.177,6.177,0,0,0,1.852,8.072v.046A6.293,6.293,0,0,0,8.087,14.6a6.177,6.177,0,0,0,6.188-6.436V8.118A6.293,6.293,0,0,0,8.042,1.637Z" transform="translate(41.795 5.207)"/>
        <path id="Fill_16" data-name="Fill 16" class="cls-2" d="M20.351,39.425A20.632,20.632,0,0,1,5.732,33.687,19.265,19.265,0,0,1,0,19.822v-.11A19.355,19.355,0,0,1,5.787,5.792,20.718,20.718,0,0,1,20.46,0,20.632,20.632,0,0,1,35.078,5.738,19.264,19.264,0,0,1,40.811,19.6v.109a19.358,19.358,0,0,1-5.787,13.921A20.717,20.717,0,0,1,20.351,39.425Zm0-31.693c-6.567,0-11.52,5.1-11.52,11.87v.109A11.683,11.683,0,0,0,20.46,31.693c6.567,0,11.52-5.1,11.52-11.871v-.11A11.682,11.682,0,0,0,20.351,7.733Z" transform="translate(108.952 30.083)"/>
        <path id="Fill_17" data-name="Fill 17" class="cls-2" d="M0,15.7H1.784V0H0Z" transform="translate(36.932 5.476)"/>
        <path id="Fill_18" data-name="Fill 18" class="cls-2" d="M7.916,34.308l1.63-1.249,8.391-6.431c6.8-5.228,10.093-8.386,10.093-14.757v-.108C28.03,4.629,22.764,0,14.811,0,7.954,0,4.279,2.778.493,7.9l5.924,4.737C9.27,9.148,11.3,7.516,14.262,7.516c3.017,0,5.157,1.742,5.157,4.956,0,3.158-1.865,5.227-6.637,9.148L0,32.02v6.644H28.414V31.42H13.773Z" transform="translate(0.348 30.191)"/>
        <path id="Fill_19" data-name="Fill 19" class="cls-2" d="M8.381,15.81,15.18,0H13.26L7.886,12.868l.172,1.725-.446-1.071L2.96,2.338,1.988,0H0L6.8,15.81Z" transform="translate(0 5.476)"/>
        <path id="Fill_20" data-name="Fill 20" class="cls-2" d="M0,15.7H1.784V0H0Z" transform="translate(17.604 5.476)"/>
        <path id="Fill_21" data-name="Fill 21" class="cls-2" d="M6.709,7.221c-3.479-.74-4.292-1.57-4.292-3.05V4.127c0-1.413,1.31-2.534,3.366-2.534a6.975,6.975,0,0,1,4.563,1.7L11.385,1.93A8.285,8.285,0,0,0,5.828,0c-3,0-5.2,1.817-5.2,4.284v.044c0,2.58,1.671,3.745,5.308,4.53,3.321.7,4.112,1.525,4.112,2.983v.044c0,1.548-1.4,2.668-3.524,2.668a7.56,7.56,0,0,1-5.422-2.219L0,13.635a9.286,9.286,0,0,0,6.46,2.512c3.14,0,5.4-1.75,5.4-4.44v-.044c0-2.4-1.626-3.678-5.15-4.441" transform="translate(22.129 5.251)"/>
        <path id="Fill_22" data-name="Fill 22" class="cls-2" d="M0,.983H.99V0H0Z" transform="translate(7.8 87.895)"/>
        <path id="Fill_23" data-name="Fill 23" class="cls-2" d="M14.892,6.494H3.977A5.889,5.889,0,0,1,2.458,6.3a3.729,3.729,0,0,1-1.265-.586,2.934,2.934,0,0,1-.868-1A3.077,3.077,0,0,1,0,3.253,2.988,2.988,0,0,1,.284,1.962a3.049,3.049,0,0,1,.8-1.036A3.81,3.81,0,0,1,2.337.245,5.206,5.206,0,0,1,3.977,0H5.495V5.537H9.327V0h.964V5.537h3.639V0h.963V6.493ZM3.578.957a2.973,2.973,0,0,0-.964.161,2.688,2.688,0,0,0-.837.466,2.375,2.375,0,0,0-.59.73,2,2,0,0,0-.223.939,2.193,2.193,0,0,0,.205.963,2.113,2.113,0,0,0,.56.718,2.54,2.54,0,0,0,.832.449,3.283,3.283,0,0,0,1.018.154h.952V.957Z" transform="translate(59.513 80.265)"/>
        <path id="Fill_24" data-name="Fill 24" class="cls-2" d="M0,8.585H.964V0H0Z" transform="translate(53.788 78.175)"/>
        <path id="Fill_25" data-name="Fill 25" class="cls-2" d="M0,.983H.99V0H0Z" transform="translate(64.013 78.175)"/>
        <path id="Fill_26" data-name="Fill 26" class="cls-2" d="M0,.982H.99V0H0Z" transform="translate(73.428 87.884)"/>
        <path id="Fill_27" data-name="Fill 27" class="cls-2" d="M0,.983H.99V0H0Z" transform="translate(9.488 87.895)"/>
        <path id="Fill_28" data-name="Fill 28" class="cls-2" d="M2.844,11.218a3.736,3.736,0,0,1-.861-.1,8.707,8.707,0,0,1-.982-.3l.3-.922a4.779,4.779,0,0,0,.813.288,3.575,3.575,0,0,0,.8.083,2.006,2.006,0,0,0,1.216-.323A1.258,1.258,0,0,0,4.567,8.86V8.585H3.989A6.159,6.159,0,0,1,2.458,8.4a3.827,3.827,0,0,1-1.271-.573,2.806,2.806,0,0,1-.868-.994A3.081,3.081,0,0,1,0,5.379,3,3,0,0,1,.29,4.07,3.072,3.072,0,0,1,1.1,3.029a3.953,3.953,0,0,1,1.259-.688,5.036,5.036,0,0,1,1.627-.251H5.531V7.628H8.869l-1.7-4.007a8.321,8.321,0,0,1,.8-.634,5.922,5.922,0,0,1,.891-.515A5.739,5.739,0,0,1,9.8,2.132a3.544,3.544,0,0,1,1.867,0,5.32,5.32,0,0,1,.928.347,7.3,7.3,0,0,1,.891.515,8.412,8.412,0,0,1,.82.628L12.615,7.628h5.062V2.688h.963v4.94h1.867a2.056,2.056,0,0,0,.615-.09,1.44,1.44,0,0,0,.518-.286A1.386,1.386,0,0,0,22,6.75,1.89,1.89,0,0,0,22.134,6V2.688H23.1V6.073a1.636,1.636,0,0,0,.157.653,1.684,1.684,0,0,0,.4.532,1.9,1.9,0,0,0,.6.359,2.183,2.183,0,0,0,.77.131,1.732,1.732,0,0,0,1.35-.5,1.914,1.914,0,0,0,.446-1.322V2.688h.964V5.774a4.089,4.089,0,0,1-.085.9,1.777,1.777,0,0,0,.76.717,3.025,3.025,0,0,0,1.326.239h1.578V0h.964V8.585H29.545V8.574a3.673,3.673,0,0,1-.693-.085,2.694,2.694,0,0,1-.67-.251,1.7,1.7,0,0,1-.451-.353,2.627,2.627,0,0,1-.3-.4,2.063,2.063,0,0,1-.934.922,3.344,3.344,0,0,1-1.476.3,3.023,3.023,0,0,1-1.434-.322,2.455,2.455,0,0,1-.952-.9,2.481,2.481,0,0,1-.886.8,2.569,2.569,0,0,1-1.247.3H5.531v.18a2.483,2.483,0,0,1-.639,1.788A2.753,2.753,0,0,1,2.844,11.218Zm7.892-8.159a3.5,3.5,0,0,0-1.222.215,3.834,3.834,0,0,0-1.139.682L9.881,7.628H11.6l1.507-3.672a3.857,3.857,0,0,0-1.084-.64A3.437,3.437,0,0,0,10.736,3.059Zm-7.145,0a2.915,2.915,0,0,0-.977.167,2.747,2.747,0,0,0-.837.472,2.343,2.343,0,0,0-.59.735,2.04,2.04,0,0,0-.222.945,2.153,2.153,0,0,0,.2.958,2.029,2.029,0,0,0,.566.706,2.587,2.587,0,0,0,.838.437,3.41,3.41,0,0,0,1.018.149h.976V3.059Z" transform="translate(18.652 78.175)"/>
        <path id="Fill_29" data-name="Fill 29" class="cls-2" d="M0,.983H.99V0H0Z" transform="translate(4.5 78.175)"/>
        <path id="Fill_30" data-name="Fill 30" class="cls-2" d="M0,.983H.99V0H0Z" transform="translate(101.993 78.175)"/>
        <path id="Fill_31" data-name="Fill 31" class="cls-2" d="M0,8.585H.964V0H0Z" transform="translate(93.455 78.175)"/>
        <path id="Fill_32" data-name="Fill 32" class="cls-2" d="M0,.983H.99V0H0Z" transform="translate(62.325 78.175)"/>
        <path id="Fill_33" data-name="Fill 33" class="cls-2" d="M5.482,2.727a3.554,3.554,0,0,0-.151-1.053A2.2,2.2,0,0,0,4.868.837,2.59,2.59,0,0,0,4.006.208,2.882,2.882,0,0,0,2.844,0H2.133V.956h.843a1.524,1.524,0,0,1,.663.149,1.559,1.559,0,0,1,.518.389,1.451,1.451,0,0,1,.283.55,2.859,2.859,0,0,1,.079.718V5.537H0v.957H5.482Z" transform="translate(11.64 80.266)"/>
        <path id="Fill_34" data-name="Fill 34" class="cls-2" d="M0,8.585H.964V0H0Z" transform="translate(144.45 78.175)"/>
        <path id="Fill_35" data-name="Fill 35" class="cls-2" d="M0,.983H.99V0H0Z" transform="translate(103.681 78.175)"/>
        <path id="Fill_36" data-name="Fill 36" class="cls-2" d="M34.967,9.674a3.371,3.371,0,0,1-1.4-.293,3.486,3.486,0,0,1-1.116-.8H28.207a3.424,3.424,0,0,1-1.15.8,3.629,3.629,0,0,1-1.441.287,3.377,3.377,0,0,1-1.4-.293,3.5,3.5,0,0,1-1.115-.8H3.976a5.881,5.881,0,0,1-1.517-.192,3.747,3.747,0,0,1-1.265-.585A2.934,2.934,0,0,1,.326,6.8,3.068,3.068,0,0,1,0,5.343,2.988,2.988,0,0,1,.284,4.053a3.041,3.041,0,0,1,.8-1.036,3.8,3.8,0,0,1,1.252-.681,5.2,5.2,0,0,1,1.639-.245H5.495V7.628h8.917V6.163a3.093,3.093,0,0,0-.072-.693,1.3,1.3,0,0,0-.278-.552,1.372,1.372,0,0,0-.536-.375,2.019,2.019,0,0,0-.789-.139H7.82a1.7,1.7,0,0,1-.283-.43,2.057,2.057,0,0,1-.151-.538L9.237,0h1.049L8.471,3.448h4.265a3.047,3.047,0,0,1,1.193.2,2.444,2.444,0,0,1,.843.623,2.133,2.133,0,0,1,.458.842,3.751,3.751,0,0,1,.145,1.048V7.628h3.071V0h.965V7.628h3.06a4.067,4.067,0,0,1-.21-.676,3.342,3.342,0,0,1-.079-.735A3.463,3.463,0,0,1,24.267,3a3.35,3.35,0,0,1,1.349-.275,3.6,3.6,0,0,1,1.392.269,3.448,3.448,0,0,1,1.114.736,3.413,3.413,0,0,1,.742,1.105,3.542,3.542,0,0,1,.271,1.382,3.37,3.37,0,0,1-.3,1.411h2.988a4.156,4.156,0,0,1-.211-.676,3.4,3.4,0,0,1-.078-.735A3.46,3.46,0,0,1,33.617,3a3.352,3.352,0,0,1,1.35-.275,3.594,3.594,0,0,1,1.391.269,3.463,3.463,0,0,1,1.115.736,3.425,3.425,0,0,1,.741,1.105,3.527,3.527,0,0,1,.271,1.382,3.37,3.37,0,0,1-.3,1.411H41.5V0h.964V8.585h-4.9a3.432,3.432,0,0,1-1.151.8A3.627,3.627,0,0,1,34.967,9.674Zm0-5.992a2.424,2.424,0,0,0-.994.2,2.451,2.451,0,0,0-.777.545,2.534,2.534,0,0,0-.512.8,2.574,2.574,0,0,0-.187.976,2.529,2.529,0,0,0,.7,1.765,2.472,2.472,0,0,0,.784.537,2.444,2.444,0,0,0,.982.2,2.724,2.724,0,0,0,1.006-.184A2.429,2.429,0,0,0,37.322,7.2a2.481,2.481,0,0,0,.2-1,2.6,2.6,0,0,0-.193-1.011,2.421,2.421,0,0,0-.536-.8,2.556,2.556,0,0,0-.807-.526A2.687,2.687,0,0,0,34.967,3.682Zm-9.351,0a2.4,2.4,0,0,0-1.769.747,2.541,2.541,0,0,0-.514.8,2.618,2.618,0,0,0-.186.976,2.565,2.565,0,0,0,.186.968,2.536,2.536,0,0,0,.518.8,2.472,2.472,0,0,0,.784.537,2.441,2.441,0,0,0,.981.2,2.727,2.727,0,0,0,1.007-.184,2.463,2.463,0,0,0,1.548-2.315,2.6,2.6,0,0,0-.193-1.011,2.378,2.378,0,0,0-.536-.8,2.556,2.556,0,0,0-.807-.526A2.69,2.69,0,0,0,25.616,3.682ZM3.578,3.047a2.965,2.965,0,0,0-.964.161,2.7,2.7,0,0,0-.837.466,2.41,2.41,0,0,0-.59.73,1.985,1.985,0,0,0-.223.939,2.206,2.206,0,0,0,.205.964,2.114,2.114,0,0,0,.56.717,2.53,2.53,0,0,0,.832.449,3.282,3.282,0,0,0,1.018.155H4.53V3.047Z" transform="translate(99.181 78.175)"/>
        <path id="Fill_37" data-name="Fill 37" class="cls-2" d="M10.291,6.494H3.976A5.9,5.9,0,0,1,2.458,6.3a3.745,3.745,0,0,1-1.264-.586,2.934,2.934,0,0,1-.868-1A3.077,3.077,0,0,1,0,3.253,2.988,2.988,0,0,1,.283,1.962a3.058,3.058,0,0,1,.8-1.036A3.822,3.822,0,0,1,2.337.245,5.211,5.211,0,0,1,3.976,0H5.494V5.537H9.327V0h.964V6.493ZM3.579.957a2.973,2.973,0,0,0-.964.161,2.69,2.69,0,0,0-.838.466,2.4,2.4,0,0,0-.59.73,2,2,0,0,0-.223.939,2.193,2.193,0,0,0,.205.963,2.122,2.122,0,0,0,.56.718,2.559,2.559,0,0,0,.832.449,3.278,3.278,0,0,0,1.019.154h.951V.957Z" transform="translate(0 80.266)"/>
        <path id="Fill_38" data-name="Fill 38" class="cls-2" d="M0,.983H.99V0H0Z" transform="translate(69.905 87.895)"/>
        <path id="Fill_39" data-name="Fill 39" class="cls-2" d="M0,.983H.99V0H0Z" transform="translate(68.216 87.895)"/>
        <path id="Fill_40" data-name="Fill 40" class="cls-2" d="M.783,11.218A2.986,2.986,0,0,1,0,11.11l.253-.922a1.894,1.894,0,0,0,.264.06,1.9,1.9,0,0,0,.229.012,1.115,1.115,0,0,0,.452-.078.6.6,0,0,0,.277-.25,1.268,1.268,0,0,0,.145-.455,4.81,4.81,0,0,0,.041-.688v-6.7h.965V7.628h3.59l-1.7-4.007a8.575,8.575,0,0,1,.8-.634,5.943,5.943,0,0,1,.893-.515,5.688,5.688,0,0,1,.932-.341,3.656,3.656,0,0,1,.941-.125,3.559,3.559,0,0,1,.928.125,5.28,5.28,0,0,1,.927.347,7.257,7.257,0,0,1,.893.515,8.683,8.683,0,0,1,.819.628L9.964,7.628h4.1V0h.965V8.585H2.626v.2A5.108,5.108,0,0,1,2.535,9.8a2.065,2.065,0,0,1-.307.765,1.406,1.406,0,0,1-.572.484A2.041,2.041,0,0,1,.783,11.218Zm7.3-8.159a3.5,3.5,0,0,0-1.222.215,3.86,3.86,0,0,0-1.139.682L7.229,7.628H8.951l1.506-3.672a3.882,3.882,0,0,0-1.084-.64A3.434,3.434,0,0,0,8.084,3.059Z" transform="translate(75.624 78.175)"/>
        <path id="Fill_41" data-name="Fill 41" class="cls-2" d="M0,.983H.99V0H0Z" transform="translate(2.812 78.175)"/>
        <path id="Fill_42" data-name="Fill 42" class="cls-2" d="M5.97,0H4.485L1.21,3.437V0H0V6.835H1.21V4.853L2.283,3.759l2.35,3.076H6.1l-2.99-3.9Z" transform="translate(0.944 93.048)"/>
        <path id="Fill_43" data-name="Fill 43" class="cls-2" d="M0,6.835H1.21V0H0Z" transform="translate(8.145 93.048)"/>
        <path id="Fill_44" data-name="Fill 44" class="cls-2" d="M4.809,4.726,1.122,0H0V6.834H1.19V1.972l3.8,4.862H6V0H4.809Z" transform="translate(11.218 93.048)"/>
        <path id="Fill_45" data-name="Fill 45" class="cls-2" d="M3.511,4.179H5.272V5.458a2.825,2.825,0,0,1-1.663.517,2.289,2.289,0,0,1-2.34-2.44v-.02A2.318,2.318,0,0,1,3.5,1.1a2.708,2.708,0,0,1,1.927.732L6.2.928A3.737,3.737,0,0,0,3.551,0,3.5,3.5,0,0,0,0,3.535v.019A3.4,3.4,0,0,0,3.57,7.07,4.4,4.4,0,0,0,6.443,6V3.135H3.511Z" transform="translate(18.716 92.931)"/>
        <path id="Fill_46" data-name="Fill 46" class="cls-2" d="M2.567,6.835H0V0H2.567A3.42,3.42,0,0,1,6.226,3.4v.018A3.428,3.428,0,0,1,2.567,6.835ZM1.211,1.094V5.741H2.567a2.246,2.246,0,0,0,2.39-2.3V3.416a2.255,2.255,0,0,0-2.39-2.323Z" transform="translate(26.829 93.048)"/>
        <path id="Fill_47" data-name="Fill 47" class="cls-2" d="M3.589,7.069A3.474,3.474,0,0,1,0,3.555v-.02A3.507,3.507,0,0,1,1.012,1.046,3.617,3.617,0,0,1,3.609,0,3.476,3.476,0,0,1,7.2,3.515v.02A3.5,3.5,0,0,1,6.188,6.024,3.62,3.62,0,0,1,3.589,7.069Zm0-5.965a2.315,2.315,0,0,0-2.32,2.411v.02a2.362,2.362,0,0,0,2.34,2.432A2.316,2.316,0,0,0,5.931,3.555v-.02A2.335,2.335,0,0,0,3.589,1.1Z" transform="translate(34.188 92.93)"/>
        <path id="Fill_48" data-name="Fill 48" class="cls-2" d="M3.384,3.232,1.288,0H0V6.835H1.19V1.953l2.154,3.2h.039L5.556,1.933v4.9h1.21V0H5.478Z" transform="translate(42.89 93.048)"/>
        <path id="Fill_49" data-name="Fill 49" class="cls-2" d="M3.589,7.069A3.474,3.474,0,0,1,0,3.555v-.02A3.507,3.507,0,0,1,1.012,1.046,3.617,3.617,0,0,1,3.609,0,3.476,3.476,0,0,1,7.2,3.515v.02A3.5,3.5,0,0,1,6.188,6.024,3.62,3.62,0,0,1,3.589,7.069Zm0-5.965a2.315,2.315,0,0,0-2.32,2.411v.02a2.362,2.362,0,0,0,2.34,2.432A2.316,2.316,0,0,0,5.931,3.555v-.02A2.335,2.335,0,0,0,3.589,1.1Z" transform="translate(54.076 92.93)"/>
        <path id="Fill_50" data-name="Fill 50" class="cls-2" d="M0,6.835H1.21V4.052H4.682V2.959H1.21V1.094H5.124V0H0Z" transform="translate(62.78 93.048)"/>
        <path id="Fill_51" data-name="Fill 51" class="cls-2" d="M3.118,2.968C1.8,2.656,1.485,2.421,1.485,1.894V1.875c0-.45.413-.811,1.121-.811a3.141,3.141,0,0,1,1.869.7L5.124.859A3.833,3.833,0,0,0,2.626,0,2.1,2.1,0,0,0,.275,1.981V2c0,1.26.826,1.69,2.292,2.041,1.279.293,1.554.557,1.554,1.046v.019c0,.518-.473.86-1.219.86A3.179,3.179,0,0,1,.728,5.076L0,5.936A4.262,4.262,0,0,0,2.872,7.03c1.446,0,2.459-.762,2.459-2.041v-.02c0-1.132-.758-1.649-2.213-2" transform="translate(71.722 92.951)"/>
        <path id="Fill_52" data-name="Fill 52" class="cls-2" d="M1.24,6.884H0L3.029,0H4.15L7.179,6.882H5.9l-.7-1.65H1.947L1.24,6.883ZM3.57,1.436,2.39,4.17H4.761Z" transform="translate(77.731 92.999)"/>
        <path id="Fill_53" data-name="Fill 53" class="cls-2" d="M4.682,3.936c0,1.259-.659,1.9-1.731,1.9S1.21,5.156,1.21,3.887V0H0V3.936A2.7,2.7,0,0,0,2.931,6.943,2.74,2.74,0,0,0,5.892,3.877V0H4.682Z" transform="translate(85.622 93.048)"/>
        <path id="Fill_54" data-name="Fill 54" class="cls-2" d="M2.567,6.835H0V0H2.567A3.419,3.419,0,0,1,6.225,3.4v.018A3.428,3.428,0,0,1,2.567,6.835ZM1.211,1.094V5.741H2.567a2.246,2.246,0,0,0,2.39-2.3V3.416a2.255,2.255,0,0,0-2.39-2.323Z" transform="translate(93.284 93.048)"/>
        <path id="Fill_55" data-name="Fill 55" class="cls-2" d="M0,6.835H1.21V0H0Z" transform="translate(101.043 93.048)"/>
        <path id="Fill_56" data-name="Fill 56" class="cls-2" d="M1.24,6.884H0L3.029,0H4.15L7.179,6.882H5.9l-.7-1.65H1.947L1.24,6.883ZM3.57,1.436,2.39,4.17H4.761Z" transform="translate(106.454 92.999)"/>
        <path id="Fill_57" data-name="Fill 57" class="cls-2" d="M1.21,6.836H0V0H3.068A2.79,2.79,0,0,1,5.056.683a2.06,2.06,0,0,1,.57,1.474v.02A2.053,2.053,0,0,1,3.983,4.248L5.841,6.833l-1.425,0L2.724,4.451H1.21V6.835Zm0-5.742V3.388H2.98c.861,0,1.417-.448,1.417-1.142v-.02c0-.72-.52-1.132-1.426-1.132Z" transform="translate(114.777 93.048)"/>
        <path id="Fill_58" data-name="Fill 58" class="cls-2" d="M1.24,6.884H0L3.029,0H4.151L7.179,6.882H5.9l-.7-1.65H1.947L1.24,6.883ZM3.57,1.436,2.39,4.17H4.761Z" transform="translate(121.509 92.999)"/>
        <path id="Fill_59" data-name="Fill 59" class="cls-2" d="M3.187,6.835H0V0H3.089a2.5,2.5,0,0,1,1.8.606,1.524,1.524,0,0,1,.462,1.132v.02A1.615,1.615,0,0,1,4.367,3.28,1.675,1.675,0,0,1,5.734,4.941V4.96C5.734,6.134,4.782,6.835,3.187,6.835ZM1.19,3.9V5.771H3.2c.844,0,1.328-.342,1.328-.938v-.02c0-.6-.49-.918-1.416-.918Zm0-2.831V2.88H2.842c.825,0,1.3-.338,1.3-.927v-.02c0-.544-.453-.868-1.211-.868Z" transform="translate(129.832 93.048)"/>
        <path id="Fill_60" data-name="Fill 60" class="cls-2" d="M0,6.835H1.21V0H0Z" transform="translate(137.063 93.048)"/>
        <path id="Fill_61" data-name="Fill 61" class="cls-2" d="M1.24,6.884H0L3.029,0H4.15L7.18,6.882H5.9l-.7-1.65H1.947L1.24,6.883ZM3.57,1.436,2.39,4.17H4.761Z" transform="translate(139.428 92.999)"/>
        <path id="Fill_62" data-name="Fill 62" class="cls-5" d="M1.866,0,3.811,1.853,1.944,3.783,0,1.93Z" transform="translate(49.848 27.575)"/>
        <path id="Fill_63" data-name="Fill 63" class="cls-6" d="M0,1.93,1.944,3.783,3.81,1.853,1.866,0Z" transform="translate(56.165 27.575)"/>
        <path id="Fill_64" data-name="Fill 64" class="cls-7" d="M0,1.5,1.515,2.945l1.452-1.5L1.453,0Z" transform="translate(53.427 30.436)"/>
        <path id="Fill_65" data-name="Fill 65" class="cls-8" d="M0,1.5,1.514,2.946l1.452-1.5L1.452,0Z" transform="translate(58.978 31.261)"/>
        <path id="Fill_66" data-name="Fill 66" class="cls-7" d="M0,1.5,1.514,2.946l1.452-1.5L1.454,0Z" transform="translate(50.951 32.734)"/>
        <path id="Fill_67" data-name="Fill 67" class="cls-9" d="M0,1.5,1.513,2.946l1.453-1.5L1.452,0Z" transform="translate(56.031 32.908)"/>
        <path id="Fill_68" data-name="Fill 68" class="cls-8" d="M0,1.058,1.065,2.073,2.087,1.015,1.022,0Z" transform="translate(54.044 35.083)"/>
        <path id="Fill_69" data-name="Fill 69" class="cls-10" d="M0,1.057,1.065,2.072,2.088,1.014,1.023,0Z" transform="translate(58.062 35.88)"/>
        <path id="Fill_70" data-name="Fill 70" class="cls-11" d="M0,.6.6,3.881l3.3-.6L3.3,0Z" transform="translate(66.836 28.295)"/>
        <path id="Fill_71" data-name="Fill 71" class="cls-12" d="M0,.482.485,3.114l2.651-.482L2.651,0Z" transform="translate(62.525 29.785)"/>
        <path id="Fill_72" data-name="Fill 72" class="cls-9" d="M0,.481.485,3.113l2.65-.482L2.651,0Z" transform="translate(67.647 33.456)"/>
        <path id="Fill_73" data-name="Fill 73" class="cls-7" d="M0,.375.377,2.424l2.065-.375L2.063,0Z" transform="translate(63.993 33.945)"/>
        <path id="Fill_74" data-name="Fill 74" class="cls-6" d="M0,.375.377,2.424l2.065-.375L2.063,0Z" transform="translate(68.008 37.838)"/>
        <path id="Fill_75" data-name="Fill 75" class="cls-9" d="M0,.375.377,2.424,2.442,2.05,2.064,0Z" transform="translate(60.9 34.779)"/>
        <path id="Fill_76" data-name="Fill 76" class="cls-8" d="M0,.375.377,2.424l2.065-.374L2.063,0Z" transform="translate(64.647 37.462)"/>
        <path id="Fill_77" data-name="Fill 77" class="cls-6" d="M0,.264.266,1.706l1.452-.264L1.452,0Z" transform="translate(62.017 37.821)"/>
        <path id="Fill_78" data-name="Fill 78" class="cls-10" d="M0,.264.265,1.705l1.452-.264L1.451,0Z" transform="translate(64.806 40.802)"/>
        <path id="Fill_79" data-name="Fill 79" class="cls-5" d="M1.444,0,0,3.012,3.034,4.444,4.477,1.433Z" transform="translate(75.218 39.64)"/>
        <path id="Fill_80" data-name="Fill 80" class="cls-9" d="M1.158,0,0,2.416,2.433,3.565,3.591,1.149Z" transform="translate(71.198 38.248)"/>
        <path id="Fill_81" data-name="Fill 81" class="cls-8" d="M1.158,0,0,2.417,2.434,3.565,3.592,1.149Z" transform="translate(73.189 44.199)"/>
        <path id="Fill_82" data-name="Fill 82" class="cls-7" d="M.9,0,0,1.882l1.9.895L2.8.895Z" transform="translate(70.257 42.388)"/>
        <path id="Fill_83" data-name="Fill 83" class="cls-7" d="M.9,0,0,1.881l1.895.895L2.8.895Z" transform="translate(71.218 47.877)"/>
        <path id="Fill_84" data-name="Fill 84" class="cls-11" d="M.9,0,0,1.882l1.9.894L2.8.895Z" transform="translate(67.257 41.267)"/>
        <path id="Fill_85" data-name="Fill 85" class="cls-6" d="M.9,0,0,1.881l1.895.895L2.8.895Z" transform="translate(68.714 45.62)"/>
        <path id="Fill_86" data-name="Fill 86" class="cls-8" d="M.635,0,0,1.324l1.333.629L1.968.63Z" transform="translate(66.702 44.294)"/>
        <path id="Fill_87" data-name="Fill 87" class="cls-9" d="M.633,0,0,1.324l1.332.629L1.967.63Z" transform="translate(67.208 48.33)"/>
        <path id="Fill_88" data-name="Fill 88" class="cls-11" d="M2.945,0,0,1.6,1.615,4.528l2.946-1.6Z" transform="translate(75.351 54.061)"/>
        <path id="Fill_89" data-name="Fill 89" class="cls-9" d="M2.362,0,0,1.287,1.3,3.632,3.658,2.345Z" transform="translate(73.262 50.431)"/>
        <path id="Fill_90" data-name="Fill 90" class="cls-9" d="M2.363,0,0,1.287,1.3,3.633,3.659,2.346Z" transform="translate(71.37 56.414)"/>
        <path id="Fill_91" data-name="Fill 91" class="cls-5" d="M1.839,0,0,1,1.009,2.828l1.841-1Z" transform="translate(70.374 53.092)"/>
        <path id="Fill_92" data-name="Fill 92" class="cls-10" d="M1.84,0,0,1,1.009,2.828l1.84-1Z" transform="translate(67.919 58.103)"/>
        <path id="Fill_93" data-name="Fill 93" class="cls-12" d="M1.84,0,0,1,1.009,2.829l1.841-1Z" transform="translate(68.601 50.442)"/>
        <path id="Fill_94" data-name="Fill 94" class="cls-7" d="M1.84,0,0,1,1.009,2.828l1.84-1Z" transform="translate(67.218 54.818)"/>
        <path id="Fill_95" data-name="Fill 95" class="cls-6" d="M1.295,0,0,.7.71,1.99,2,1.285Z" transform="translate(66.697 52.419)"/>
        <path id="Fill_96" data-name="Fill 96" class="cls-9" d="M1.295,0,0,.705.709,1.99,2,1.285Z" transform="translate(64.728 55.985)"/>
        <path id="Fill_97" data-name="Fill 97" class="cls-8" d="M3.747.41.412,0,0,3.31l3.334.41Z" transform="translate(67.376 66.295)"/>
        <path id="Fill_98" data-name="Fill 98" class="cls-12" d="M3.006.33.331,0,0,2.655l2.674.329Z" transform="translate(68.09 61.88)"/>
        <path id="Fill_99" data-name="Fill 99" class="cls-9" d="M3.006.33.332,0,0,2.655l2.675.33Z" transform="translate(63.028 65.633)"/>
        <path id="Fill_100" data-name="Fill 100" class="cls-8" d="M2.34.256.258,0,0,2.068l2.082.256Z" transform="translate(64.421 62.131)"/>
        <path id="Fill_101" data-name="Fill 101" class="cls-6" d="M2.341.256.259,0,0,2.068l2.083.256Z" transform="translate(59.476 64.768)"/>
        <path id="Fill_102" data-name="Fill 102" class="cls-6" d="M2.34.257.257,0,0,2.068l2.082.256Z" transform="translate(64.546 58.951)"/>
        <path id="Fill_103" data-name="Fill 103" class="cls-8" d="M2.34.257.257,0,0,2.068l2.082.256Z" transform="translate(60.844 61.696)"/>
        <path id="Fill_104" data-name="Fill 104" class="cls-6" d="M1.646.18.181,0,0,1.454l1.464.18Z" transform="translate(62.088 59.207)"/>
        <path id="Fill_105" data-name="Fill 105" class="cls-6" d="M1.646.18.181,0,0,1.454l1.465.18Z" transform="translate(58.389 60.956)"/>
        <path id="Fill_106" data-name="Fill 106" class="cls-7" d="M4.747,2.27,2.285,0,0,2.444,2.462,4.713Z" transform="translate(53.106 70.523)"/>
        <path id="Fill_107" data-name="Fill 107" class="cls-8" d="M4.747,2.27,2.285,0,0,2.444,2.462,4.713Z" transform="translate(52.652 23.81)"/>
        <path id="Fill_108" data-name="Fill 108" class="cls-9" d="M3.808,1.82,1.833,0,0,1.961,1.975,3.78Z" transform="translate(56.672 67.31)"/>
        <path id="Fill_109" data-name="Fill 109" class="cls-8" d="M3.81,1.82,1.833,0,0,1.961,1.975,3.78Z" transform="translate(50.355 67.414)"/>
        <path id="Fill_110" data-name="Fill 110" class="cls-11" d="M2.965,1.417,1.427,0,0,1.526,1.537,2.943Z" transform="translate(53.895 65.339)"/>
        <path id="Fill_111" data-name="Fill 111" class="cls-7" d="M2.965,1.417,1.428,0,0,1.526,1.539,2.944Z" transform="translate(48.332 64.606)"/>
        <path id="Fill_112" data-name="Fill 112" class="cls-7" d="M2.965,1.417,1.427,0,0,1.526,1.537,2.943Z" transform="translate(55.87 62.834)"/>
        <path id="Fill_113" data-name="Fill 113" class="cls-6" d="M2.965,1.417,1.427,0,0,1.526,1.537,2.944Z" transform="translate(51.251 62.91)"/>
        <path id="Fill_114" data-name="Fill 114" class="cls-12" d="M2.086,1,1,0,0,1.074l1.082,1Z" transform="translate(54.088 61.568)"/>
        <path id="Fill_115" data-name="Fill 115" class="cls-6" d="M2.086,1,1,0,0,1.073l1.081,1Z" transform="translate(50.057 60.838)"/>
        <path id="Fill_116" data-name="Fill 116" class="cls-11" d="M3.953,3.27,3.295,0,0,.654l.66,3.27Z" transform="translate(39.551 66.751)"/>
        <path id="Fill_117" data-name="Fill 117" class="cls-9" d="M3.171,2.624,2.642,0,0,.526.529,3.149Z" transform="translate(44.622 65.954)"/>
        <path id="Fill_118" data-name="Fill 118" class="cls-8" d="M3.171,2.624,2.642,0,0,.526.529,3.149Z" transform="translate(39.438 62.369)"/>
        <path id="Fill_119" data-name="Fill 119" class="cls-7" d="M2.47,2.043,2.058,0,0,.408.413,2.451Z" transform="translate(43.787 62.507)"/>
        <path id="Fill_120" data-name="Fill 120" class="cls-5" d="M2.47,2.043,2.058,0,0,.408.413,2.452Z" transform="translate(46.865 61.623)"/>
        <path id="Fill_121" data-name="Fill 121" class="cls-11" d="M2.469,2.043,2.057,0,0,.409.411,2.452Z" transform="translate(43.075 59.001)"/>
        <path id="Fill_122" data-name="Fill 122" class="cls-8" d="M1.736,1.437,1.447,0,0,.287.289,1.724Z" transform="translate(46.433 59.316)"/>
        <path id="Fill_123" data-name="Fill 123" class="cls-6" d="M1.736,1.437,1.447,0,0,.287.289,1.724Z" transform="translate(43.595 56.382)"/>
        <path id="Fill_124" data-name="Fill 124" class="cls-9" d="M3.058,4.417,4.45,1.383,1.392,0,0,3.034Z" transform="translate(30.444 55.021)"/>
        <path id="Fill_125" data-name="Fill 125" class="cls-7" d="M2.453,3.543,3.57,1.109,1.118,0,0,2.434Z" transform="translate(35.377 57.216)"/>
        <path id="Fill_126" data-name="Fill 126" class="cls-11" d="M2.452,3.544,3.57,1.11,1.117,0,0,2.436Z" transform="translate(33.286 51.297)"/>
        <path id="Fill_127" data-name="Fill 127" class="cls-9" d="M1.909,2.76l.869-1.9L.87,0,0,1.9Z" transform="translate(37.049 53.842)"/>
        <path id="Fill_128" data-name="Fill 128" class="cls-6" d="M1.91,2.759l.87-1.9L.871,0,0,1.9Z" transform="translate(39.603 58.582)"/>
        <path id="Fill_129" data-name="Fill 129" class="cls-5" d="M1.91,2.76l.869-1.9L.871,0,0,1.9Z" transform="translate(35.995 48.369)"/>
        <path id="Fill_130" data-name="Fill 130" class="cls-10" d="M1.91,2.76l.869-1.9L.871,0,0,1.9Z" transform="translate(40.066 54.912)"/>
        <path id="Fill_131" data-name="Fill 131" class="cls-7" d="M1.909,2.76l.87-1.9L.87,0,0,1.9Z" transform="translate(38.537 50.584)"/>
        <path id="Fill_132" data-name="Fill 132" class="cls-12" d="M1.344,1.942,1.956.608.612,0,0,1.334Z" transform="translate(41.404 52.691)"/>
        <path id="Fill_133" data-name="Fill 133" class="cls-8" d="M1.344,1.942,1.956.608.612,0,0,1.334Z" transform="translate(40.832 48.663)"/>
        <path id="Fill_134" data-name="Fill 134" class="cls-9" d="M1.664,4.549,4.583,2.9,2.918,0,0,1.652Z" transform="translate(29.961 40.498)"/>
        <path id="Fill_135" data-name="Fill 135" class="cls-8" d="M1.335,3.649,3.676,2.324,2.34,0,0,1.326Z" transform="translate(33.023 44.983)"/>
        <path id="Fill_136" data-name="Fill 136" class="cls-12" d="M1.335,3.65,3.676,2.325,2.34,0,0,1.326Z" transform="translate(34.815 38.969)"/>
        <path id="Fill_137" data-name="Fill 137" class="cls-11" d="M1.04,2.842,2.862,1.809,1.823,0,0,1.032Z" transform="translate(36.684 43.074)"/>
        <path id="Fill_138" data-name="Fill 138" class="cls-8" d="M1.04,2.842,2.862,1.809,1.823,0,0,1.032Z" transform="translate(39.056 38.023)"/>
        <path id="Fill_139" data-name="Fill 139" class="cls-9" d="M1.039,2.842,2.862,1.81,1.823,0,0,1.032Z" transform="translate(38.5 45.695)"/>
        <path id="Fill_140" data-name="Fill 140" class="cls-7" d="M1.039,2.842,2.862,1.81,1.823,0,0,1.032Z" transform="translate(39.812 41.296)"/>
        <path id="Fill_141" data-name="Fill 141" class="cls-6" d="M.731,2l1.282-.726L1.282,0,0,.725Z" transform="translate(41.226 44.521)"/>
        <path id="Fill_142" data-name="Fill 142" class="cls-8" d="M.732,2l1.283-.726L1.283,0,0,.726Z" transform="translate(43.135 40.923)"/>
        <path id="Fill_143" data-name="Fill 143" class="cls-8" d="M0,3.316l3.34.355L3.7.355.358,0Z" transform="translate(38.588 28.971)"/>
        <path id="Fill_144" data-name="Fill 144" class="cls-6" d="M0,2.66l2.68.285L2.966.285.286,0Z" transform="translate(38.69 34.12)"/>
        <path id="Fill_145" data-name="Fill 145" class="cls-9" d="M0,2.66l2.68.285L2.966.285.286,0Z" transform="translate(43.688 30.285)"/>
        <path id="Fill_146" data-name="Fill 146" class="cls-7" d="M0,2.071l2.087.222L2.31.222.224,0Z" transform="translate(43.021 34.461)"/>
        <path id="Fill_147" data-name="Fill 147" class="cls-11" d="M0,2.072l2.086.222L2.309.223.223,0Z" transform="translate(47.921 31.742)"/>
        <path id="Fill_148" data-name="Fill 148" class="cls-9" d="M0,2.071l2.086.222L2.31.221.224,0Z" transform="translate(42.949 37.642)"/>
        <path id="Fill_149" data-name="Fill 149" class="cls-8" d="M0,2.071l2.086.222L2.31.221.224,0Z" transform="translate(46.604 34.836)"/>
        <path id="Fill_150" data-name="Fill 150" class="cls-12" d="M0,1.457l1.467.156L1.625.157.157,0Z" transform="translate(46.098 38.024)"/>
        <path id="Fill_151" data-name="Fill 151" class="cls-6" d="M0,1.457l1.469.155L1.625.156.157,0Z" transform="translate(49.767 36.215)"/>
        <path id="Fill_152" data-name="Fill 152" class="cls-13" d="M21.379,12.669a6.924,6.924,0,0,0-1.332-.573,7.975,7.975,0,0,0-3.664-.266,8.9,8.9,0,0,0-1.586.407l-.158.056a8.787,8.787,0,0,0-.84.372c-.239.121-.478.253-.716.395a17.007,17.007,0,0,0-1.6,1.09,33.848,33.848,0,0,1-.164-8.475.012.012,0,0,1,.02-.008c1.266.792.911,3.005.645,3.638-.005.013.014.021.023.011A3.888,3.888,0,0,0,12.491,4.9c-.007-.012.009-.023.02-.015a3.6,3.6,0,0,1,.571.579,3.428,3.428,0,0,1,.716,1.88,5.582,5.582,0,0,1,0,.85c0,.066-.01.129-.015.188,0,.01.007.012.015.01s.007,0,.008,0A3.607,3.607,0,0,0,13.8,5.076a4.144,4.144,0,0,0-.716-.974c-.089-.091-.183-.182-.285-.27a.012.012,0,0,1,.01-.022,2.769,2.769,0,0,1,.275.081,2.686,2.686,0,0,1,.716.374,2.961,2.961,0,0,1,1,1.338,3.362,3.362,0,0,1,.232,1.222.012.012,0,0,0,.025,0,3.032,3.032,0,0,0-.256-2.5,2.946,2.946,0,0,0-1-.959,3.176,3.176,0,0,0-.716-.318,2.053,2.053,0,0,0-.343-.076c-.014,0-.011-.022,0-.025q.177-.016.34-.018a3.528,3.528,0,0,1,.716.058,2.619,2.619,0,0,1,1,.394,2.079,2.079,0,0,1,.67.712c.006.012.025,0,.023-.009A2,2,0,0,0,14.8,2.745a2.578,2.578,0,0,0-1-.522,2.875,2.875,0,0,0-.716-.1,2.271,2.271,0,0,0-.894.159c-.01.005-.021-.008-.014-.019a1.692,1.692,0,0,1,.909-.639,2.066,2.066,0,0,1,.716-.085,1.609,1.609,0,0,1,.587.137.012.012,0,0,0,.014-.02,2.239,2.239,0,0,0-.6-.484,1.932,1.932,0,0,0-.716-.233,1.8,1.8,0,0,0-1.724.85.013.013,0,0,1-.021,0c-.083-.148-.163-.311-.238-.483a5.7,5.7,0,0,1-.39-1.294.011.011,0,0,0-.022,0,5.738,5.738,0,0,1-.393,1.3,5.242,5.242,0,0,1-.236.477.012.012,0,0,1-.021,0A1.852,1.852,0,0,0,7,1.655a.012.012,0,0,0,.014.02,1.888,1.888,0,0,1,2.211.586.012.012,0,0,1-.015.019,2.641,2.641,0,0,0-2.838.7A1.987,1.987,0,0,0,5.9,4.086c0,.014.017.021.024.009a1.956,1.956,0,0,1,.44-.537,2.909,2.909,0,0,1,2.284-.609c.014,0,.018.023,0,.025a3.021,3.021,0,0,0-2.287,1.82,3.241,3.241,0,0,0-.027,2.033.012.012,0,0,0,.024,0c0-.018,0-.038,0-.056A3.013,3.013,0,0,1,8.587,3.81a.013.013,0,0,1,.011.022A3.672,3.672,0,0,0,7.587,8.385a.012.012,0,0,0,.023-.006,3.727,3.727,0,0,1,1.272-3.5c.011-.008.027,0,.02.015a3.889,3.889,0,0,0,.483,4.417c.009.01.028,0,.023-.011-.265-.633-.619-2.846.645-3.638a.012.012,0,0,1,.02.008,33.789,33.789,0,0,1-.164,8.475,12.987,12.987,0,0,0-3.153-1.857c-.132-.049-.261-.093-.388-.134a8.382,8.382,0,0,0-2.979-.421,7.73,7.73,0,0,0-3.075.774c-.119.059-.22.114-.3.159a.03.03,0,0,0,.025.053c.092-.029.183-.054.273-.079a8.55,8.55,0,0,1,3.075-.3,9.207,9.207,0,0,1,2.979.8,15.756,15.756,0,0,1,3.546,2.3A38.787,38.787,0,0,1,6.368,18.45c-.039.022-.077.044-.113.062a.831.831,0,0,0-1.479.291.793.793,0,0,0,.161.712,1.2,1.2,0,0,0,1.43.207c1.04-.435,2.335-1.8,3.925-3.251.132-.121.267-.242.4-.363q.2.18.4.361c.721.655,1.381,1.295,1.983,1.839.249.224.487.432.716.618a6.311,6.311,0,0,0,1,.688,1.3,1.3,0,0,0,1.586-.035c.025-.021.049-.041.073-.065a.914.914,0,0,0,.162-.712.8.8,0,0,0-.235-.4A.822.822,0,0,0,16,18.192a.833.833,0,0,0-.857.32A2.953,2.953,0,0,1,14.8,18.3a11.643,11.643,0,0,1-1-.8c-.225-.2-.464-.41-.716-.638-.491-.443-1.029-.934-1.6-1.43a19.637,19.637,0,0,1,1.6-1.2q.351-.235.716-.454.486-.287,1-.532a10.176,10.176,0,0,1,1.586-.6,8.41,8.41,0,0,1,3.664-.226,9.257,9.257,0,0,1,1.306.305.03.03,0,0,0,.026-.053" transform="translate(44.24 38.902)"/>
      </g>
    </g>
  </g>
</svg>
