<?xml version="1.0" encoding="UTF-8" standalone="no"?>
<!DOCTYPE svg PUBLIC "-//W3C//DTD SVG 1.1//EN"
 "http://www.w3.org/Graphics/SVG/1.1/DTD/svg11.dtd">
<!-- Generated by graphviz version 2.47.3 (20210619.1520)
 -->
<!-- Title: dependencies Pages: 1 -->
<svg width="1012pt" height="174pt"
 viewBox="0.00 0.00 1012.00 173.80" xmlns="http://www.w3.org/2000/svg" xmlns:xlink="http://www.w3.org/1999/xlink">
<g id="graph0" class="graph" transform="scale(1 1) rotate(0) translate(4 169.8)">
<title>dependencies</title>
<polygon fill="white" stroke="transparent" points="-4,4 -4,-169.8 1008,-169.8 1008,4 -4,4"/>
<text text-anchor="middle" x="502" y="-8.2" font-family="sans-serif" font-size="14.00">dependencies</text>
<g id="clust1" class="cluster">
<title>cluster_DashboardModule</title>
<polygon fill="none" stroke="black" stroke-dasharray="1,5" points="8,-32.8 8,-157.8 996,-157.8 996,-32.8 8,-32.8"/>
</g>
<g id="clust2" class="cluster">
<title>cluster_DashboardModule_declarations</title>
<polygon fill="none" stroke="black" points="314,-40.8 314,-92.8 988,-92.8 988,-40.8 314,-40.8"/>
</g>
<g id="clust7" class="cluster">
<title>cluster_DashboardModule_imports</title>
<polygon fill="none" stroke="black" points="16,-40.8 16,-92.8 306,-92.8 306,-40.8 16,-40.8"/>
</g>
<!-- AdsSecctionComponent -->
<g id="node1" class="node">
<title>AdsSecctionComponent</title>
<polygon fill="#ffffb3" stroke="black" points="980.09,-84.8 827.91,-84.8 827.91,-48.8 980.09,-48.8 980.09,-84.8"/>
<text text-anchor="middle" x="904" y="-62.6" font-family="Times,serif" font-size="14.00">AdsSecctionComponent</text>
</g>
<!-- DashboardModule -->
<g id="node5" class="node">
<title>DashboardModule</title>
<polygon fill="#8dd3c7" stroke="black" points="550.19,-149.8 547.19,-153.8 526.19,-153.8 523.19,-149.8 429.81,-149.8 429.81,-113.8 550.19,-113.8 550.19,-149.8"/>
<text text-anchor="middle" x="490" y="-127.6" font-family="Times,serif" font-size="14.00">DashboardModule</text>
</g>
<!-- AdsSecctionComponent&#45;&gt;DashboardModule -->
<g id="edge1" class="edge">
<title>AdsSecctionComponent&#45;&gt;DashboardModule</title>
<path fill="none" stroke="black" d="M904,-85.08C904,-106.12 904,-137.8 904,-137.8 904,-137.8 560.2,-137.8 560.2,-137.8"/>
<polygon fill="black" stroke="black" points="560.2,-134.3 550.2,-137.8 560.2,-141.3 560.2,-134.3"/>
</g>
<!-- MainPageComponent -->
<g id="node2" class="node">
<title>MainPageComponent</title>
<polygon fill="#ffffb3" stroke="black" points="810.09,-84.8 671.91,-84.8 671.91,-48.8 810.09,-48.8 810.09,-84.8"/>
<text text-anchor="middle" x="741" y="-62.6" font-family="Times,serif" font-size="14.00">MainPageComponent</text>
</g>
<!-- MainPageComponent&#45;&gt;DashboardModule -->
<g id="edge2" class="edge">
<title>MainPageComponent&#45;&gt;DashboardModule</title>
<path fill="none" stroke="black" d="M741,-84.82C741,-102.17 741,-125.8 741,-125.8 741,-125.8 560.12,-125.8 560.12,-125.8"/>
<polygon fill="black" stroke="black" points="560.12,-122.3 550.12,-125.8 560.12,-129.3 560.12,-122.3"/>
</g>
<!-- NewsItemUiComponent -->
<g id="node3" class="node">
<title>NewsItemUiComponent</title>
<polygon fill="#ffffb3" stroke="black" points="654.36,-84.8 501.64,-84.8 501.64,-48.8 654.36,-48.8 654.36,-84.8"/>
<text text-anchor="middle" x="578" y="-62.6" font-family="Times,serif" font-size="14.00">NewsItemUiComponent</text>
</g>
<!-- NewsItemUiComponent&#45;&gt;DashboardModule -->
<g id="edge3" class="edge">
<title>NewsItemUiComponent&#45;&gt;DashboardModule</title>
<path fill="none" stroke="black" d="M525.83,-84.91C525.83,-84.91 525.83,-103.79 525.83,-103.79"/>
<polygon fill="black" stroke="black" points="522.33,-103.79 525.83,-113.79 529.33,-103.79 522.33,-103.79"/>
</g>
<!-- NewsSecctionComponent -->
<g id="node4" class="node">
<title>NewsSecctionComponent</title>
<polygon fill="#ffffb3" stroke="black" points="483.91,-84.8 322.09,-84.8 322.09,-48.8 483.91,-48.8 483.91,-84.8"/>
<text text-anchor="middle" x="403" y="-62.6" font-family="Times,serif" font-size="14.00">NewsSecctionComponent</text>
</g>
<!-- NewsSecctionComponent&#45;&gt;DashboardModule -->
<g id="edge4" class="edge">
<title>NewsSecctionComponent&#45;&gt;DashboardModule</title>
<path fill="none" stroke="black" d="M456.81,-84.91C456.81,-84.91 456.81,-103.79 456.81,-103.79"/>
<polygon fill="black" stroke="black" points="453.31,-103.79 456.81,-113.79 460.31,-103.79 453.31,-103.79"/>
</g>
<!-- DashboardRouterModule -->
<g id="node6" class="node">
<title>DashboardRouterModule</title>
<polygon fill="#8dd3c7" stroke="black" points="298.29,-84.8 295.29,-88.8 274.29,-88.8 271.29,-84.8 139.71,-84.8 139.71,-48.8 298.29,-48.8 298.29,-84.8"/>
<text text-anchor="middle" x="219" y="-62.6" font-family="Times,serif" font-size="14.00">DashboardRouterModule</text>
</g>
<!-- DashboardRouterModule&#45;&gt;DashboardModule -->
<g id="edge5" class="edge">
<title>DashboardRouterModule&#45;&gt;DashboardModule</title>
<path fill="none" stroke="black" d="M219,-84.82C219,-102.17 219,-125.8 219,-125.8 219,-125.8 419.86,-125.8 419.86,-125.8"/>
<polygon fill="black" stroke="black" points="419.86,-129.3 429.86,-125.8 419.86,-122.3 419.86,-129.3"/>
</g>
<!-- SharedModule -->
<g id="node7" class="node">
<title>SharedModule</title>
<polygon fill="#8dd3c7" stroke="black" points="122.42,-84.8 119.42,-88.8 98.42,-88.8 95.42,-84.8 23.58,-84.8 23.58,-48.8 122.42,-48.8 122.42,-84.8"/>
<text text-anchor="middle" x="73" y="-62.6" font-family="Times,serif" font-size="14.00">SharedModule</text>
</g>
<!-- SharedModule&#45;&gt;DashboardModule -->
<g id="edge6" class="edge">
<title>SharedModule&#45;&gt;DashboardModule</title>
<path fill="none" stroke="black" d="M73,-85.08C73,-106.12 73,-137.8 73,-137.8 73,-137.8 419.81,-137.8 419.81,-137.8"/>
<polygon fill="black" stroke="black" points="419.81,-141.3 429.81,-137.8 419.81,-134.3 419.81,-141.3"/>
</g>
</g>
</svg>
