<?xml version="1.0" encoding="UTF-8" standalone="no"?>
<!DOCTYPE svg PUBLIC "-//W3C//DTD SVG 1.1//EN"
 "http://www.w3.org/Graphics/SVG/1.1/DTD/svg11.dtd">
<!-- Generated by graphviz version 2.47.3 (20210619.1520)
 -->
<!-- Title: dependencies Pages: 1 -->
<svg width="901pt" height="174pt"
 viewBox="0.00 0.00 901.00 173.80" xmlns="http://www.w3.org/2000/svg" xmlns:xlink="http://www.w3.org/1999/xlink">
<g id="graph0" class="graph" transform="scale(1 1) rotate(0) translate(4 169.8)">
<title>dependencies</title>
<polygon fill="white" stroke="transparent" points="-4,4 -4,-169.8 897,-169.8 897,4 -4,4"/>
<text text-anchor="middle" x="446.5" y="-8.2" font-family="sans-serif" font-size="14.00">dependencies</text>
<g id="clust1" class="cluster">
<title>cluster_ServicesCatalogModule</title>
<polygon fill="none" stroke="black" stroke-dasharray="1,5" points="8,-32.8 8,-157.8 885,-157.8 885,-32.8 8,-32.8"/>
</g>
<g id="clust6" class="cluster">
<title>cluster_ServicesCatalogModule_imports</title>
<polygon fill="none" stroke="black" points="556,-40.8 556,-92.8 877,-92.8 877,-40.8 556,-40.8"/>
</g>
<g id="clust2" class="cluster">
<title>cluster_ServicesCatalogModule_declarations</title>
<polygon fill="none" stroke="black" points="16,-40.8 16,-92.8 548,-92.8 548,-40.8 16,-40.8"/>
</g>
<!-- ServiceCardComponent -->
<g id="node1" class="node">
<title>ServiceCardComponent</title>
<polygon fill="#ffffb3" stroke="black" points="540.02,-84.8 389.98,-84.8 389.98,-48.8 540.02,-48.8 540.02,-84.8"/>
<text text-anchor="middle" x="465" y="-62.6" font-family="Times,serif" font-size="14.00">ServiceCardComponent</text>
</g>
<!-- ServicesCatalogModule -->
<g id="node4" class="node">
<title>ServicesCatalogModule</title>
<polygon fill="#8dd3c7" stroke="black" points="540.02,-149.8 537.02,-153.8 516.02,-153.8 513.02,-149.8 389.98,-149.8 389.98,-113.8 540.02,-113.8 540.02,-149.8"/>
<text text-anchor="middle" x="465" y="-127.6" font-family="Times,serif" font-size="14.00">ServicesCatalogModule</text>
</g>
<!-- ServiceCardComponent&#45;&gt;ServicesCatalogModule -->
<g id="edge1" class="edge">
<title>ServiceCardComponent&#45;&gt;ServicesCatalogModule</title>
<path fill="none" stroke="black" d="M465,-84.91C465,-84.91 465,-103.79 465,-103.79"/>
<polygon fill="black" stroke="black" points="461.5,-103.79 465,-113.79 468.5,-103.79 461.5,-103.79"/>
</g>
<!-- ServiceCatalogComponent -->
<g id="node2" class="node">
<title>ServiceCatalogComponent</title>
<polygon fill="#ffffb3" stroke="black" points="371.36,-84.8 204.64,-84.8 204.64,-48.8 371.36,-48.8 371.36,-84.8"/>
<text text-anchor="middle" x="288" y="-62.6" font-family="Times,serif" font-size="14.00">ServiceCatalogComponent</text>
</g>
<!-- ServiceCatalogComponent&#45;&gt;ServicesCatalogModule -->
<g id="edge2" class="edge">
<title>ServiceCatalogComponent&#45;&gt;ServicesCatalogModule</title>
<path fill="none" stroke="black" d="M288,-84.82C288,-102.17 288,-125.8 288,-125.8 288,-125.8 379.94,-125.8 379.94,-125.8"/>
<polygon fill="black" stroke="black" points="379.94,-129.3 389.94,-125.8 379.94,-122.3 379.94,-129.3"/>
</g>
<!-- ServiceDetailsComponent -->
<g id="node3" class="node">
<title>ServiceDetailsComponent</title>
<polygon fill="#ffffb3" stroke="black" points="186.46,-84.8 23.54,-84.8 23.54,-48.8 186.46,-48.8 186.46,-84.8"/>
<text text-anchor="middle" x="105" y="-62.6" font-family="Times,serif" font-size="14.00">ServiceDetailsComponent</text>
</g>
<!-- ServiceDetailsComponent&#45;&gt;ServicesCatalogModule -->
<g id="edge3" class="edge">
<title>ServiceDetailsComponent&#45;&gt;ServicesCatalogModule</title>
<path fill="none" stroke="black" d="M105,-85.08C105,-106.12 105,-137.8 105,-137.8 105,-137.8 379.97,-137.8 379.97,-137.8"/>
<polygon fill="black" stroke="black" points="379.97,-141.3 389.97,-137.8 379.97,-134.3 379.97,-141.3"/>
</g>
<!-- ServicesCatalogRouterModule -->
<g id="node5" class="node">
<title>ServicesCatalogRouterModule</title>
<polygon fill="#8dd3c7" stroke="black" points="869.12,-84.8 866.12,-88.8 845.12,-88.8 842.12,-84.8 680.88,-84.8 680.88,-48.8 869.12,-48.8 869.12,-84.8"/>
<text text-anchor="middle" x="775" y="-62.6" font-family="Times,serif" font-size="14.00">ServicesCatalogRouterModule</text>
</g>
<!-- ServicesCatalogRouterModule&#45;&gt;ServicesCatalogModule -->
<g id="edge4" class="edge">
<title>ServicesCatalogRouterModule&#45;&gt;ServicesCatalogModule</title>
<path fill="none" stroke="black" d="M775,-85.08C775,-106.12 775,-137.8 775,-137.8 775,-137.8 550.04,-137.8 550.04,-137.8"/>
<polygon fill="black" stroke="black" points="550.04,-134.3 540.04,-137.8 550.04,-141.3 550.04,-134.3"/>
</g>
<!-- SharedModule -->
<g id="node6" class="node">
<title>SharedModule</title>
<polygon fill="#8dd3c7" stroke="black" points="662.42,-84.8 659.42,-88.8 638.42,-88.8 635.42,-84.8 563.58,-84.8 563.58,-48.8 662.42,-48.8 662.42,-84.8"/>
<text text-anchor="middle" x="613" y="-62.6" font-family="Times,serif" font-size="14.00">SharedModule</text>
</g>
<!-- SharedModule&#45;&gt;ServicesCatalogModule -->
<g id="edge5" class="edge">
<title>SharedModule&#45;&gt;ServicesCatalogModule</title>
<path fill="none" stroke="black" d="M613,-84.82C613,-102.17 613,-125.8 613,-125.8 613,-125.8 550.3,-125.8 550.3,-125.8"/>
<polygon fill="black" stroke="black" points="550.3,-122.3 540.3,-125.8 550.3,-129.3 550.3,-122.3"/>
</g>
</g>
</svg>
