<?xml version="1.0" encoding="UTF-8" standalone="no"?>
<!DOCTYPE svg PUBLIC "-//W3C//DTD SVG 1.1//EN"
 "http://www.w3.org/Graphics/SVG/1.1/DTD/svg11.dtd">
<!-- Generated by graphviz version 2.47.3 (20210619.1520)
 -->
<!-- Title: dependencies Pages: 1 -->
<svg width="610pt" height="174pt"
 viewBox="0.00 0.00 610.00 173.80" xmlns="http://www.w3.org/2000/svg" xmlns:xlink="http://www.w3.org/1999/xlink">
<g id="graph0" class="graph" transform="scale(1 1) rotate(0) translate(4 169.8)">
<title>dependencies</title>
<polygon fill="white" stroke="transparent" points="-4,4 -4,-169.8 606,-169.8 606,4 -4,4"/>
<text text-anchor="middle" x="301" y="-8.2" font-family="sans-serif" font-size="14.00">dependencies</text>
<g id="clust1" class="cluster">
<title>cluster_NewsModule</title>
<polygon fill="none" stroke="black" stroke-dasharray="1,5" points="8,-32.8 8,-157.8 594,-157.8 594,-32.8 8,-32.8"/>
</g>
<g id="clust5" class="cluster">
<title>cluster_NewsModule_imports</title>
<polygon fill="none" stroke="black" points="324,-40.8 324,-92.8 586,-92.8 586,-40.8 324,-40.8"/>
</g>
<g id="clust2" class="cluster">
<title>cluster_NewsModule_declarations</title>
<polygon fill="none" stroke="black" points="16,-40.8 16,-92.8 316,-92.8 316,-40.8 16,-40.8"/>
</g>
<!-- NewsComponent -->
<g id="node1" class="node">
<title>NewsComponent</title>
<polygon fill="#ffffb3" stroke="black" points="307.7,-84.8 194.3,-84.8 194.3,-48.8 307.7,-48.8 307.7,-84.8"/>
<text text-anchor="middle" x="251" y="-62.6" font-family="Times,serif" font-size="14.00">NewsComponent</text>
</g>
<!-- NewsModule -->
<g id="node3" class="node">
<title>NewsModule</title>
<polygon fill="#8dd3c7" stroke="black" points="361.92,-149.8 358.92,-153.8 337.92,-153.8 334.92,-149.8 270.08,-149.8 270.08,-113.8 361.92,-113.8 361.92,-149.8"/>
<text text-anchor="middle" x="316" y="-127.6" font-family="Times,serif" font-size="14.00">NewsModule</text>
</g>
<!-- NewsComponent&#45;&gt;NewsModule -->
<g id="edge1" class="edge">
<title>NewsComponent&#45;&gt;NewsModule</title>
<path fill="none" stroke="black" d="M288.95,-84.91C288.95,-84.91 288.95,-103.79 288.95,-103.79"/>
<polygon fill="black" stroke="black" points="285.45,-103.79 288.95,-113.79 292.45,-103.79 285.45,-103.79"/>
</g>
<!-- NewsDetailsComponent -->
<g id="node2" class="node">
<title>NewsDetailsComponent</title>
<polygon fill="#ffffb3" stroke="black" points="176.36,-84.8 23.64,-84.8 23.64,-48.8 176.36,-48.8 176.36,-84.8"/>
<text text-anchor="middle" x="100" y="-62.6" font-family="Times,serif" font-size="14.00">NewsDetailsComponent</text>
</g>
<!-- NewsDetailsComponent&#45;&gt;NewsModule -->
<g id="edge2" class="edge">
<title>NewsDetailsComponent&#45;&gt;NewsModule</title>
<path fill="none" stroke="black" d="M100,-84.91C100,-104.14 100,-131.8 100,-131.8 100,-131.8 260.19,-131.8 260.19,-131.8"/>
<polygon fill="black" stroke="black" points="260.19,-135.3 270.19,-131.8 260.19,-128.3 260.19,-135.3"/>
</g>
<!-- NewsRouterModule -->
<g id="node4" class="node">
<title>NewsRouterModule</title>
<polygon fill="#8dd3c7" stroke="black" points="577.53,-84.8 574.53,-88.8 553.53,-88.8 550.53,-84.8 448.47,-84.8 448.47,-48.8 577.53,-48.8 577.53,-84.8"/>
<text text-anchor="middle" x="513" y="-62.6" font-family="Times,serif" font-size="14.00">NewsRouterModule</text>
</g>
<!-- NewsRouterModule&#45;&gt;NewsModule -->
<g id="edge3" class="edge">
<title>NewsRouterModule&#45;&gt;NewsModule</title>
<path fill="none" stroke="black" d="M513,-84.91C513,-104.14 513,-131.8 513,-131.8 513,-131.8 372.19,-131.8 372.19,-131.8"/>
<polygon fill="black" stroke="black" points="372.19,-128.3 362.19,-131.8 372.19,-135.3 372.19,-128.3"/>
</g>
<!-- SharedModule -->
<g id="node5" class="node">
<title>SharedModule</title>
<polygon fill="#8dd3c7" stroke="black" points="430.42,-84.8 427.42,-88.8 406.42,-88.8 403.42,-84.8 331.58,-84.8 331.58,-48.8 430.42,-48.8 430.42,-84.8"/>
<text text-anchor="middle" x="381" y="-62.6" font-family="Times,serif" font-size="14.00">SharedModule</text>
</g>
<!-- SharedModule&#45;&gt;NewsModule -->
<g id="edge4" class="edge">
<title>SharedModule&#45;&gt;NewsModule</title>
<path fill="none" stroke="black" d="M346.75,-84.91C346.75,-84.91 346.75,-103.79 346.75,-103.79"/>
<polygon fill="black" stroke="black" points="343.25,-103.79 346.75,-113.79 350.25,-103.79 343.25,-103.79"/>
</g>
</g>
</svg>
