<?xml version="1.0" encoding="UTF-8" standalone="no"?>
<!DOCTYPE svg PUBLIC "-//W3C//DTD SVG 1.1//EN"
 "http://www.w3.org/Graphics/SVG/1.1/DTD/svg11.dtd">
<!-- Generated by graphviz version 2.47.3 (20210619.1520)
 -->
<!-- Title: dependencies Pages: 1 -->
<svg width="582pt" height="174pt"
 viewBox="0.00 0.00 582.00 173.80" xmlns="http://www.w3.org/2000/svg" xmlns:xlink="http://www.w3.org/1999/xlink">
<g id="graph0" class="graph" transform="scale(1 1) rotate(0) translate(4 169.8)">
<title>dependencies</title>
<polygon fill="white" stroke="transparent" points="-4,4 -4,-169.8 578,-169.8 578,4 -4,4"/>
<text text-anchor="middle" x="287" y="-8.2" font-family="sans-serif" font-size="14.00">dependencies</text>
<g id="clust1" class="cluster">
<title>cluster_AdsModule</title>
<polygon fill="none" stroke="black" stroke-dasharray="1,5" points="8,-32.8 8,-157.8 566,-157.8 566,-32.8 8,-32.8"/>
</g>
<g id="clust5" class="cluster">
<title>cluster_AdsModule_imports</title>
<polygon fill="none" stroke="black" points="306,-40.8 306,-92.8 558,-92.8 558,-40.8 306,-40.8"/>
</g>
<g id="clust2" class="cluster">
<title>cluster_AdsModule_declarations</title>
<polygon fill="none" stroke="black" points="16,-40.8 16,-92.8 298,-92.8 298,-40.8 16,-40.8"/>
</g>
<!-- AdsComponent -->
<g id="node1" class="node">
<title>AdsComponent</title>
<polygon fill="#ffffb3" stroke="black" points="289.88,-84.8 186.12,-84.8 186.12,-48.8 289.88,-48.8 289.88,-84.8"/>
<text text-anchor="middle" x="238" y="-62.6" font-family="Times,serif" font-size="14.00">AdsComponent</text>
</g>
<!-- AdsModule -->
<g id="node3" class="node">
<title>AdsModule</title>
<polygon fill="#8dd3c7" stroke="black" points="341.1,-149.8 338.1,-153.8 317.1,-153.8 314.1,-149.8 258.9,-149.8 258.9,-113.8 341.1,-113.8 341.1,-149.8"/>
<text text-anchor="middle" x="300" y="-127.6" font-family="Times,serif" font-size="14.00">AdsModule</text>
</g>
<!-- AdsComponent&#45;&gt;AdsModule -->
<g id="edge1" class="edge">
<title>AdsComponent&#45;&gt;AdsModule</title>
<path fill="none" stroke="black" d="M274.45,-84.91C274.45,-84.91 274.45,-103.79 274.45,-103.79"/>
<polygon fill="black" stroke="black" points="270.95,-103.79 274.45,-113.79 277.95,-103.79 270.95,-103.79"/>
</g>
<!-- AdsDetailsComponent -->
<g id="node2" class="node">
<title>AdsDetailsComponent</title>
<polygon fill="#ffffb3" stroke="black" points="167.54,-84.8 24.46,-84.8 24.46,-48.8 167.54,-48.8 167.54,-84.8"/>
<text text-anchor="middle" x="96" y="-62.6" font-family="Times,serif" font-size="14.00">AdsDetailsComponent</text>
</g>
<!-- AdsDetailsComponent&#45;&gt;AdsModule -->
<g id="edge2" class="edge">
<title>AdsDetailsComponent&#45;&gt;AdsModule</title>
<path fill="none" stroke="black" d="M96,-84.91C96,-104.14 96,-131.8 96,-131.8 96,-131.8 248.72,-131.8 248.72,-131.8"/>
<polygon fill="black" stroke="black" points="248.72,-135.3 258.72,-131.8 248.72,-128.3 248.72,-135.3"/>
</g>
<!-- AdsRouterModule -->
<g id="node4" class="node">
<title>AdsRouterModule</title>
<polygon fill="#8dd3c7" stroke="black" points="550.2,-84.8 547.2,-88.8 526.2,-88.8 523.2,-84.8 429.8,-84.8 429.8,-48.8 550.2,-48.8 550.2,-84.8"/>
<text text-anchor="middle" x="490" y="-62.6" font-family="Times,serif" font-size="14.00">AdsRouterModule</text>
</g>
<!-- AdsRouterModule&#45;&gt;AdsModule -->
<g id="edge3" class="edge">
<title>AdsRouterModule&#45;&gt;AdsModule</title>
<path fill="none" stroke="black" d="M490,-84.91C490,-104.14 490,-131.8 490,-131.8 490,-131.8 351.23,-131.8 351.23,-131.8"/>
<polygon fill="black" stroke="black" points="351.23,-128.3 341.23,-131.8 351.23,-135.3 351.23,-128.3"/>
</g>
<!-- SharedModule -->
<g id="node5" class="node">
<title>SharedModule</title>
<polygon fill="#8dd3c7" stroke="black" points="412.42,-84.8 409.42,-88.8 388.42,-88.8 385.42,-84.8 313.58,-84.8 313.58,-48.8 412.42,-48.8 412.42,-84.8"/>
<text text-anchor="middle" x="363" y="-62.6" font-family="Times,serif" font-size="14.00">SharedModule</text>
</g>
<!-- SharedModule&#45;&gt;AdsModule -->
<g id="edge4" class="edge">
<title>SharedModule&#45;&gt;AdsModule</title>
<path fill="none" stroke="black" d="M327.42,-84.91C327.42,-84.91 327.42,-103.79 327.42,-103.79"/>
<polygon fill="black" stroke="black" points="323.92,-103.79 327.42,-113.79 330.92,-103.79 323.92,-103.79"/>
</g>
</g>
</svg>
