<?xml version="1.0" encoding="UTF-8" standalone="no"?>
<!DOCTYPE svg PUBLIC "-//W3C//DTD SVG 1.1//EN"
 "http://www.w3.org/Graphics/SVG/1.1/DTD/svg11.dtd">
<!-- Generated by graphviz version 2.47.3 (20210619.1520)
 -->
<!-- Title: dependencies Pages: 1 -->
<svg width="790pt" height="174pt"
 viewBox="0.00 0.00 790.00 173.80" xmlns="http://www.w3.org/2000/svg" xmlns:xlink="http://www.w3.org/1999/xlink">
<g id="graph0" class="graph" transform="scale(1 1) rotate(0) translate(4 169.8)">
<title>dependencies</title>
<polygon fill="white" stroke="transparent" points="-4,4 -4,-169.8 786,-169.8 786,4 -4,4"/>
<text text-anchor="middle" x="391" y="-8.2" font-family="sans-serif" font-size="14.00">dependencies</text>
<g id="clust1" class="cluster">
<title>cluster_AccountsModule</title>
<polygon fill="none" stroke="black" stroke-dasharray="1,5" points="8,-32.8 8,-157.8 774,-157.8 774,-32.8 8,-32.8"/>
</g>
<g id="clust2" class="cluster">
<title>cluster_AccountsModule_declarations</title>
<polygon fill="none" stroke="black" points="306,-40.8 306,-92.8 766,-92.8 766,-40.8 306,-40.8"/>
</g>
<g id="clust6" class="cluster">
<title>cluster_AccountsModule_imports</title>
<polygon fill="none" stroke="black" points="16,-40.8 16,-92.8 298,-92.8 298,-40.8 16,-40.8"/>
</g>
<!-- AccountsComponent -->
<g id="node1" class="node">
<title>AccountsComponent</title>
<polygon fill="#ffffb3" stroke="black" points="758.2,-84.8 623.8,-84.8 623.8,-48.8 758.2,-48.8 758.2,-84.8"/>
<text text-anchor="middle" x="691" y="-62.6" font-family="Times,serif" font-size="14.00">AccountsComponent</text>
</g>
<!-- AccountsModule -->
<g id="node4" class="node">
<title>AccountsModule</title>
<polygon fill="#8dd3c7" stroke="black" points="430.42,-149.8 427.42,-153.8 406.42,-153.8 403.42,-149.8 317.58,-149.8 317.58,-113.8 430.42,-113.8 430.42,-149.8"/>
<text text-anchor="middle" x="374" y="-127.6" font-family="Times,serif" font-size="14.00">AccountsModule</text>
</g>
<!-- AccountsComponent&#45;&gt;AccountsModule -->
<g id="edge1" class="edge">
<title>AccountsComponent&#45;&gt;AccountsModule</title>
<path fill="none" stroke="black" d="M691,-85.08C691,-106.12 691,-137.8 691,-137.8 691,-137.8 440.31,-137.8 440.31,-137.8"/>
<polygon fill="black" stroke="black" points="440.31,-134.3 430.31,-137.8 440.31,-141.3 440.31,-134.3"/>
</g>
<!-- EntityProfileComponent -->
<g id="node2" class="node">
<title>EntityProfileComponent</title>
<polygon fill="#ffffb3" stroke="black" points="605.66,-84.8 452.34,-84.8 452.34,-48.8 605.66,-48.8 605.66,-84.8"/>
<text text-anchor="middle" x="529" y="-62.6" font-family="Times,serif" font-size="14.00">EntityProfileComponent</text>
</g>
<!-- EntityProfileComponent&#45;&gt;AccountsModule -->
<g id="edge2" class="edge">
<title>EntityProfileComponent&#45;&gt;AccountsModule</title>
<path fill="none" stroke="black" d="M529,-84.82C529,-102.17 529,-125.8 529,-125.8 529,-125.8 440.4,-125.8 440.4,-125.8"/>
<polygon fill="black" stroke="black" points="440.4,-122.3 430.4,-125.8 440.4,-129.3 440.4,-122.3"/>
</g>
<!-- ProfileComponent -->
<g id="node3" class="node">
<title>ProfileComponent</title>
<polygon fill="#ffffb3" stroke="black" points="433.93,-84.8 314.07,-84.8 314.07,-48.8 433.93,-48.8 433.93,-84.8"/>
<text text-anchor="middle" x="374" y="-62.6" font-family="Times,serif" font-size="14.00">ProfileComponent</text>
</g>
<!-- ProfileComponent&#45;&gt;AccountsModule -->
<g id="edge3" class="edge">
<title>ProfileComponent&#45;&gt;AccountsModule</title>
<path fill="none" stroke="black" d="M374,-84.91C374,-84.91 374,-103.79 374,-103.79"/>
<polygon fill="black" stroke="black" points="370.5,-103.79 374,-113.79 377.5,-103.79 370.5,-103.79"/>
</g>
<!-- AccountsRouterModule -->
<g id="node5" class="node">
<title>AccountsRouterModule</title>
<polygon fill="#8dd3c7" stroke="black" points="290.02,-84.8 287.02,-88.8 266.02,-88.8 263.02,-84.8 139.98,-84.8 139.98,-48.8 290.02,-48.8 290.02,-84.8"/>
<text text-anchor="middle" x="215" y="-62.6" font-family="Times,serif" font-size="14.00">AccountsRouterModule</text>
</g>
<!-- AccountsRouterModule&#45;&gt;AccountsModule -->
<g id="edge4" class="edge">
<title>AccountsRouterModule&#45;&gt;AccountsModule</title>
<path fill="none" stroke="black" d="M215,-84.82C215,-102.17 215,-125.8 215,-125.8 215,-125.8 307.49,-125.8 307.49,-125.8"/>
<polygon fill="black" stroke="black" points="307.49,-129.3 317.49,-125.8 307.49,-122.3 307.49,-129.3"/>
</g>
<!-- SharedModule -->
<g id="node6" class="node">
<title>SharedModule</title>
<polygon fill="#8dd3c7" stroke="black" points="122.42,-84.8 119.42,-88.8 98.42,-88.8 95.42,-84.8 23.58,-84.8 23.58,-48.8 122.42,-48.8 122.42,-84.8"/>
<text text-anchor="middle" x="73" y="-62.6" font-family="Times,serif" font-size="14.00">SharedModule</text>
</g>
<!-- SharedModule&#45;&gt;AccountsModule -->
<g id="edge5" class="edge">
<title>SharedModule&#45;&gt;AccountsModule</title>
<path fill="none" stroke="black" d="M73,-85.08C73,-106.12 73,-137.8 73,-137.8 73,-137.8 307.74,-137.8 307.74,-137.8"/>
<polygon fill="black" stroke="black" points="307.74,-141.3 317.74,-137.8 307.74,-134.3 307.74,-141.3"/>
</g>
</g>
</svg>
