<?xml version="1.0" encoding="UTF-8" standalone="no"?>
<!DOCTYPE svg PUBLIC "-//W3C//DTD SVG 1.1//EN"
 "http://www.w3.org/Graphics/SVG/1.1/DTD/svg11.dtd">
<!-- Generated by graphviz version 2.47.3 (20210619.1520)
 -->
<!-- Title: dependencies Pages: 1 -->
<svg width="553pt" height="174pt"
 viewBox="0.00 0.00 553.00 173.80" xmlns="http://www.w3.org/2000/svg" xmlns:xlink="http://www.w3.org/1999/xlink">
<g id="graph0" class="graph" transform="scale(1 1) rotate(0) translate(4 169.8)">
<title>dependencies</title>
<polygon fill="white" stroke="transparent" points="-4,4 -4,-169.8 549,-169.8 549,4 -4,4"/>
<text text-anchor="middle" x="272.5" y="-8.2" font-family="sans-serif" font-size="14.00">dependencies</text>
<g id="clust1" class="cluster">
<title>cluster_NotificationsModule</title>
<polygon fill="none" stroke="black" stroke-dasharray="1,5" points="8,-32.8 8,-157.8 537,-157.8 537,-32.8 8,-32.8"/>
</g>
<g id="clust2" class="cluster">
<title>cluster_NotificationsModule_declarations</title>
<polygon fill="none" stroke="black" points="327,-40.8 327,-92.8 529,-92.8 529,-40.8 327,-40.8"/>
</g>
<g id="clust4" class="cluster">
<title>cluster_NotificationsModule_imports</title>
<polygon fill="none" stroke="black" points="16,-40.8 16,-92.8 319,-92.8 319,-40.8 16,-40.8"/>
</g>
<!-- NotificationsIndexComponent -->
<g id="node1" class="node">
<title>NotificationsIndexComponent</title>
<polygon fill="#ffffb3" stroke="black" points="521.3,-84.8 334.7,-84.8 334.7,-48.8 521.3,-48.8 521.3,-84.8"/>
<text text-anchor="middle" x="428" y="-62.6" font-family="Times,serif" font-size="14.00">NotificationsIndexComponent</text>
</g>
<!-- NotificationsModule -->
<g id="node2" class="node">
<title>NotificationsModule</title>
<polygon fill="#8dd3c7" stroke="black" points="292.14,-149.8 289.14,-153.8 268.14,-153.8 265.14,-149.8 159.86,-149.8 159.86,-113.8 292.14,-113.8 292.14,-149.8"/>
<text text-anchor="middle" x="226" y="-127.6" font-family="Times,serif" font-size="14.00">NotificationsModule</text>
</g>
<!-- NotificationsIndexComponent&#45;&gt;NotificationsModule -->
<g id="edge1" class="edge">
<title>NotificationsIndexComponent&#45;&gt;NotificationsModule</title>
<path fill="none" stroke="black" d="M428,-84.91C428,-104.14 428,-131.8 428,-131.8 428,-131.8 302.42,-131.8 302.42,-131.8"/>
<polygon fill="black" stroke="black" points="302.42,-128.3 292.42,-131.8 302.42,-135.3 302.42,-128.3"/>
</g>
<!-- NotificationsRouterModule -->
<g id="node3" class="node">
<title>NotificationsRouterModule</title>
<polygon fill="#8dd3c7" stroke="black" points="311.25,-84.8 308.25,-88.8 287.25,-88.8 284.25,-84.8 140.75,-84.8 140.75,-48.8 311.25,-48.8 311.25,-84.8"/>
<text text-anchor="middle" x="226" y="-62.6" font-family="Times,serif" font-size="14.00">NotificationsRouterModule</text>
</g>
<!-- NotificationsRouterModule&#45;&gt;NotificationsModule -->
<g id="edge2" class="edge">
<title>NotificationsRouterModule&#45;&gt;NotificationsModule</title>
<path fill="none" stroke="black" d="M226,-84.91C226,-84.91 226,-103.79 226,-103.79"/>
<polygon fill="black" stroke="black" points="222.5,-103.79 226,-113.79 229.5,-103.79 222.5,-103.79"/>
</g>
<!-- SharedModule -->
<g id="node4" class="node">
<title>SharedModule</title>
<polygon fill="#8dd3c7" stroke="black" points="122.42,-84.8 119.42,-88.8 98.42,-88.8 95.42,-84.8 23.58,-84.8 23.58,-48.8 122.42,-48.8 122.42,-84.8"/>
<text text-anchor="middle" x="73" y="-62.6" font-family="Times,serif" font-size="14.00">SharedModule</text>
</g>
<!-- SharedModule&#45;&gt;NotificationsModule -->
<g id="edge3" class="edge">
<title>SharedModule&#45;&gt;NotificationsModule</title>
<path fill="none" stroke="black" d="M73,-84.91C73,-104.14 73,-131.8 73,-131.8 73,-131.8 149.78,-131.8 149.78,-131.8"/>
<polygon fill="black" stroke="black" points="149.78,-135.3 159.78,-131.8 149.78,-128.3 149.78,-135.3"/>
</g>
</g>
</svg>
