<?xml version="1.0" encoding="UTF-8" standalone="no"?>
<!DOCTYPE svg PUBLIC "-//W3C//DTD SVG 1.1//EN"
 "http://www.w3.org/Graphics/SVG/1.1/DTD/svg11.dtd">
<!-- Generated by graphviz version 2.47.3 (20210619.1520)
 -->
<!-- Title: dependencies Pages: 1 -->
<svg width="2266pt" height="174pt"
 viewBox="0.00 0.00 2266.00 173.80" xmlns="http://www.w3.org/2000/svg" xmlns:xlink="http://www.w3.org/1999/xlink">
<g id="graph0" class="graph" transform="scale(1 1) rotate(0) translate(4 169.8)">
<title>dependencies</title>
<polygon fill="white" stroke="transparent" points="-4,4 -4,-169.8 2262,-169.8 2262,4 -4,4"/>
<text text-anchor="middle" x="1129" y="-8.2" font-family="sans-serif" font-size="14.00">dependencies</text>
<g id="clust1" class="cluster">
<title>cluster_RequestsModule</title>
<polygon fill="none" stroke="black" stroke-dasharray="1,5" points="8,-32.8 8,-157.8 2250,-157.8 2250,-32.8 8,-32.8"/>
</g>
<g id="clust14" class="cluster">
<title>cluster_RequestsModule_imports</title>
<polygon fill="none" stroke="black" points="1962,-40.8 1962,-92.8 2242,-92.8 2242,-40.8 1962,-40.8"/>
</g>
<g id="clust2" class="cluster">
<title>cluster_RequestsModule_declarations</title>
<polygon fill="none" stroke="black" points="16,-40.8 16,-92.8 1954,-92.8 1954,-40.8 16,-40.8"/>
</g>
<!-- AnonymousRequestDetailsComponent -->
<g id="node1" class="node">
<title>AnonymousRequestDetailsComponent</title>
<polygon fill="#ffffb3" stroke="black" points="1946.03,-84.8 1711.97,-84.8 1711.97,-48.8 1946.03,-48.8 1946.03,-84.8"/>
<text text-anchor="middle" x="1829" y="-62.6" font-family="Times,serif" font-size="14.00">AnonymousRequestDetailsComponent</text>
</g>
<!-- RequestsModule -->
<g id="node12" class="node">
<title>RequestsModule</title>
<polygon fill="#8dd3c7" stroke="black" points="1154.1,-149.8 1151.1,-153.8 1130.1,-153.8 1127.1,-149.8 1043.9,-149.8 1043.9,-113.8 1154.1,-113.8 1154.1,-149.8"/>
<text text-anchor="middle" x="1099" y="-127.6" font-family="Times,serif" font-size="14.00">RequestsModule</text>
</g>
<!-- AnonymousRequestDetailsComponent&#45;&gt;RequestsModule -->
<g id="edge1" class="edge">
<title>AnonymousRequestDetailsComponent&#45;&gt;RequestsModule</title>
<path fill="none" stroke="black" d="M1829,-85.02C1829,-105.17 1829,-134.8 1829,-134.8 1829,-134.8 1164.17,-134.8 1164.17,-134.8"/>
<polygon fill="black" stroke="black" points="1164.17,-131.3 1154.17,-134.8 1164.17,-138.3 1164.17,-131.3"/>
</g>
<!-- CaseActivitiesComponent -->
<g id="node2" class="node">
<title>CaseActivitiesComponent</title>
<polygon fill="#ffffb3" stroke="black" points="1693.48,-84.8 1530.52,-84.8 1530.52,-48.8 1693.48,-48.8 1693.48,-84.8"/>
<text text-anchor="middle" x="1612" y="-62.6" font-family="Times,serif" font-size="14.00">CaseActivitiesComponent</text>
</g>
<!-- CaseActivitiesComponent&#45;&gt;RequestsModule -->
<g id="edge2" class="edge">
<title>CaseActivitiesComponent&#45;&gt;RequestsModule</title>
<path fill="none" stroke="black" d="M1612,-85.02C1612,-103.63 1612,-129.8 1612,-129.8 1612,-129.8 1164.39,-129.8 1164.39,-129.8"/>
<polygon fill="black" stroke="black" points="1164.39,-126.3 1154.39,-129.8 1164.39,-133.3 1164.39,-126.3"/>
</g>
<!-- DashletFilterComponent -->
<g id="node3" class="node">
<title>DashletFilterComponent</title>
<polygon fill="#ffffb3" stroke="black" points="1512.42,-84.8 1357.58,-84.8 1357.58,-48.8 1512.42,-48.8 1512.42,-84.8"/>
<text text-anchor="middle" x="1435" y="-62.6" font-family="Times,serif" font-size="14.00">DashletFilterComponent</text>
</g>
<!-- DashletFilterComponent&#45;&gt;RequestsModule -->
<g id="edge3" class="edge">
<title>DashletFilterComponent&#45;&gt;RequestsModule</title>
<path fill="none" stroke="black" d="M1435,-84.83C1435,-101.86 1435,-124.8 1435,-124.8 1435,-124.8 1164.11,-124.8 1164.11,-124.8"/>
<polygon fill="black" stroke="black" points="1164.11,-121.3 1154.11,-124.8 1164.11,-128.3 1164.11,-121.3"/>
</g>
<!-- DashletTableComponent -->
<g id="node4" class="node">
<title>DashletTableComponent</title>
<polygon fill="#ffffb3" stroke="black" points="1339.97,-84.8 1184.03,-84.8 1184.03,-48.8 1339.97,-48.8 1339.97,-84.8"/>
<text text-anchor="middle" x="1262" y="-62.6" font-family="Times,serif" font-size="14.00">DashletTableComponent</text>
</g>
<!-- DashletTableComponent&#45;&gt;RequestsModule -->
<g id="edge4" class="edge">
<title>DashletTableComponent&#45;&gt;RequestsModule</title>
<path fill="none" stroke="black" d="M1262,-85.04C1262,-100.37 1262,-119.8 1262,-119.8 1262,-119.8 1164.18,-119.8 1164.18,-119.8"/>
<polygon fill="black" stroke="black" points="1164.18,-116.3 1154.18,-119.8 1164.18,-123.3 1164.18,-116.3"/>
</g>
<!-- MoreInfoComponent -->
<g id="node5" class="node">
<title>MoreInfoComponent</title>
<polygon fill="#ffffb3" stroke="black" points="1166.47,-84.8 1031.53,-84.8 1031.53,-48.8 1166.47,-48.8 1166.47,-84.8"/>
<text text-anchor="middle" x="1099" y="-62.6" font-family="Times,serif" font-size="14.00">MoreInfoComponent</text>
</g>
<!-- MoreInfoComponent&#45;&gt;RequestsModule -->
<g id="edge5" class="edge">
<title>MoreInfoComponent&#45;&gt;RequestsModule</title>
<path fill="none" stroke="black" d="M1099,-84.91C1099,-84.91 1099,-103.79 1099,-103.79"/>
<polygon fill="black" stroke="black" points="1095.5,-103.79 1099,-113.79 1102.5,-103.79 1095.5,-103.79"/>
</g>
<!-- MyRequestsComponent -->
<g id="node6" class="node">
<title>MyRequestsComponent</title>
<polygon fill="#ffffb3" stroke="black" points="1013.82,-84.8 862.18,-84.8 862.18,-48.8 1013.82,-48.8 1013.82,-84.8"/>
<text text-anchor="middle" x="938" y="-62.6" font-family="Times,serif" font-size="14.00">MyRequestsComponent</text>
</g>
<!-- MyRequestsComponent&#45;&gt;RequestsModule -->
<g id="edge6" class="edge">
<title>MyRequestsComponent&#45;&gt;RequestsModule</title>
<path fill="none" stroke="black" d="M938,-85.04C938,-100.37 938,-119.8 938,-119.8 938,-119.8 1033.59,-119.8 1033.59,-119.8"/>
<polygon fill="black" stroke="black" points="1033.59,-123.3 1043.59,-119.8 1033.59,-116.3 1033.59,-123.3"/>
</g>
<!-- RequestComponent -->
<g id="node7" class="node">
<title>RequestComponent</title>
<polygon fill="#ffffb3" stroke="black" points="844.43,-84.8 717.57,-84.8 717.57,-48.8 844.43,-48.8 844.43,-84.8"/>
<text text-anchor="middle" x="781" y="-62.6" font-family="Times,serif" font-size="14.00">RequestComponent</text>
</g>
<!-- RequestComponent&#45;&gt;RequestsModule -->
<g id="edge7" class="edge">
<title>RequestComponent&#45;&gt;RequestsModule</title>
<path fill="none" stroke="black" d="M781,-84.83C781,-101.86 781,-124.8 781,-124.8 781,-124.8 1033.61,-124.8 1033.61,-124.8"/>
<polygon fill="black" stroke="black" points="1033.61,-128.3 1043.61,-124.8 1033.61,-121.3 1033.61,-128.3"/>
</g>
<!-- RequestDetailsComponent -->
<g id="node8" class="node">
<title>RequestDetailsComponent</title>
<polygon fill="#ffffb3" stroke="black" points="700.09,-84.8 533.91,-84.8 533.91,-48.8 700.09,-48.8 700.09,-84.8"/>
<text text-anchor="middle" x="617" y="-62.6" font-family="Times,serif" font-size="14.00">RequestDetailsComponent</text>
</g>
<!-- RequestDetailsComponent&#45;&gt;RequestsModule -->
<g id="edge8" class="edge">
<title>RequestDetailsComponent&#45;&gt;RequestsModule</title>
<path fill="none" stroke="black" d="M617,-85.02C617,-103.63 617,-129.8 617,-129.8 617,-129.8 1033.71,-129.8 1033.71,-129.8"/>
<polygon fill="black" stroke="black" points="1033.71,-133.3 1043.71,-129.8 1033.71,-126.3 1033.71,-133.3"/>
</g>
<!-- RequestQueryComponent -->
<g id="node9" class="node">
<title>RequestQueryComponent</title>
<polygon fill="#ffffb3" stroke="black" points="515.92,-84.8 354.08,-84.8 354.08,-48.8 515.92,-48.8 515.92,-84.8"/>
<text text-anchor="middle" x="435" y="-62.6" font-family="Times,serif" font-size="14.00">RequestQueryComponent</text>
</g>
<!-- RequestQueryComponent&#45;&gt;RequestsModule -->
<g id="edge9" class="edge">
<title>RequestQueryComponent&#45;&gt;RequestsModule</title>
<path fill="none" stroke="black" d="M435,-85.02C435,-105.17 435,-134.8 435,-134.8 435,-134.8 1033.81,-134.8 1033.81,-134.8"/>
<polygon fill="black" stroke="black" points="1033.81,-138.3 1043.81,-134.8 1033.81,-131.3 1033.81,-138.3"/>
</g>
<!-- RequestTaskComponent -->
<g id="node10" class="node">
<title>RequestTaskComponent</title>
<polygon fill="#ffffb3" stroke="black" points="335.65,-84.8 182.35,-84.8 182.35,-48.8 335.65,-48.8 335.65,-84.8"/>
<text text-anchor="middle" x="259" y="-62.6" font-family="Times,serif" font-size="14.00">RequestTaskComponent</text>
</g>
<!-- RequestTaskComponent&#45;&gt;RequestsModule -->
<g id="edge10" class="edge">
<title>RequestTaskComponent&#45;&gt;RequestsModule</title>
<path fill="none" stroke="black" d="M259,-84.84C259,-106.46 259,-139.8 259,-139.8 259,-139.8 1033.89,-139.8 1033.89,-139.8"/>
<polygon fill="black" stroke="black" points="1033.89,-143.3 1043.89,-139.8 1033.89,-136.3 1033.89,-143.3"/>
</g>
<!-- ResultInfoComponent -->
<g id="node11" class="node">
<title>ResultInfoComponent</title>
<polygon fill="#ffffb3" stroke="black" points="164.43,-84.8 23.57,-84.8 23.57,-48.8 164.43,-48.8 164.43,-84.8"/>
<text text-anchor="middle" x="94" y="-62.6" font-family="Times,serif" font-size="14.00">ResultInfoComponent</text>
</g>
<!-- ResultInfoComponent&#45;&gt;RequestsModule -->
<g id="edge11" class="edge">
<title>ResultInfoComponent&#45;&gt;RequestsModule</title>
<path fill="none" stroke="black" d="M94,-84.89C94,-107.93 94,-144.8 94,-144.8 94,-144.8 1033.89,-144.8 1033.89,-144.8"/>
<polygon fill="black" stroke="black" points="1033.89,-148.3 1043.89,-144.8 1033.89,-141.3 1033.89,-148.3"/>
</g>
<!-- RequestsRouterModule -->
<g id="node13" class="node">
<title>RequestsRouterModule</title>
<polygon fill="#8dd3c7" stroke="black" points="2234.2,-84.8 2231.2,-88.8 2210.2,-88.8 2207.2,-84.8 2085.8,-84.8 2085.8,-48.8 2234.2,-48.8 2234.2,-84.8"/>
<text text-anchor="middle" x="2160" y="-62.6" font-family="Times,serif" font-size="14.00">RequestsRouterModule</text>
</g>
<!-- RequestsRouterModule&#45;&gt;RequestsModule -->
<g id="edge12" class="edge">
<title>RequestsRouterModule&#45;&gt;RequestsModule</title>
<path fill="none" stroke="black" d="M2160,-84.89C2160,-107.93 2160,-144.8 2160,-144.8 2160,-144.8 1164.18,-144.8 1164.18,-144.8"/>
<polygon fill="black" stroke="black" points="1164.18,-141.3 1154.18,-144.8 1164.18,-148.3 1164.18,-141.3"/>
</g>
<!-- SharedModule -->
<g id="node14" class="node">
<title>SharedModule</title>
<polygon fill="#8dd3c7" stroke="black" points="2068.42,-84.8 2065.42,-88.8 2044.42,-88.8 2041.42,-84.8 1969.58,-84.8 1969.58,-48.8 2068.42,-48.8 2068.42,-84.8"/>
<text text-anchor="middle" x="2019" y="-62.6" font-family="Times,serif" font-size="14.00">SharedModule</text>
</g>
<!-- SharedModule&#45;&gt;RequestsModule -->
<g id="edge13" class="edge">
<title>SharedModule&#45;&gt;RequestsModule</title>
<path fill="none" stroke="black" d="M2019,-84.84C2019,-106.46 2019,-139.8 2019,-139.8 2019,-139.8 1164.14,-139.8 1164.14,-139.8"/>
<polygon fill="black" stroke="black" points="1164.14,-136.3 1154.14,-139.8 1164.14,-143.3 1164.14,-136.3"/>
</g>
</g>
</svg>
