<?xml version="1.0" encoding="UTF-8" standalone="no"?>
<!DOCTYPE svg PUBLIC "-//W3C//DTD SVG 1.1//EN"
 "http://www.w3.org/Graphics/SVG/1.1/DTD/svg11.dtd">
<!-- Generated by graphviz version 2.47.3 (20210619.1520)
 -->
<!-- Title: dependencies Pages: 1 -->
<svg width="289pt" height="174pt"
 viewBox="0.00 0.00 289.00 173.80" xmlns="http://www.w3.org/2000/svg" xmlns:xlink="http://www.w3.org/1999/xlink">
<g id="graph0" class="graph" transform="scale(1 1) rotate(0) translate(4 169.8)">
<title>dependencies</title>
<polygon fill="white" stroke="transparent" points="-4,4 -4,-169.8 285,-169.8 285,4 -4,4"/>
<text text-anchor="middle" x="140.5" y="-8.2" font-family="sans-serif" font-size="14.00">dependencies</text>
<g id="clust1" class="cluster">
<title>cluster_AppRoutingModule</title>
<polygon fill="none" stroke="black" stroke-dasharray="1,5" points="8,-32.8 8,-157.8 273,-157.8 273,-32.8 8,-32.8"/>
</g>
<g id="clust6" class="cluster">
<title>cluster_AppRoutingModule_providers</title>
<polygon fill="none" stroke="black" points="16,-40.8 16,-92.8 265,-92.8 265,-40.8 16,-40.8"/>
</g>
<!-- AuthGuard -->
<g id="node1" class="node">
<title>AuthGuard</title>
<ellipse fill="#fdb462" stroke="black" cx="203" cy="-66.8" rx="54.46" ry="18"/>
<text text-anchor="middle" x="203" y="-62.6" font-family="Times,serif" font-size="14.00">AuthGuard</text>
</g>
<!-- AppRoutingModule -->
<g id="node3" class="node">
<title>AppRoutingModule</title>
<polygon fill="#8dd3c7" stroke="black" points="204.27,-149.8 201.27,-153.8 180.27,-153.8 177.27,-149.8 75.73,-149.8 75.73,-113.8 204.27,-113.8 204.27,-149.8"/>
<text text-anchor="middle" x="140" y="-127.6" font-family="Times,serif" font-size="14.00">AppRoutingModule</text>
</g>
<!-- AuthGuard&#45;&gt;AppRoutingModule -->
<g id="edge1" class="edge">
<title>AuthGuard&#45;&gt;AppRoutingModule</title>
<path fill="none" stroke="black" d="M176.45,-82.53C176.45,-82.53 176.45,-103.45 176.45,-103.45"/>
<polygon fill="black" stroke="black" points="172.95,-103.45 176.45,-113.45 179.95,-103.45 172.95,-103.45"/>
</g>
<!-- RoleGuard -->
<g id="node2" class="node">
<title>RoleGuard</title>
<ellipse fill="#fdb462" stroke="black" cx="77" cy="-66.8" rx="53.31" ry="18"/>
<text text-anchor="middle" x="77" y="-62.6" font-family="Times,serif" font-size="14.00">RoleGuard</text>
</g>
<!-- RoleGuard&#45;&gt;AppRoutingModule -->
<g id="edge2" class="edge">
<title>RoleGuard&#45;&gt;AppRoutingModule</title>
<path fill="none" stroke="black" d="M103.01,-82.53C103.01,-82.53 103.01,-103.45 103.01,-103.45"/>
<polygon fill="black" stroke="black" points="99.51,-103.45 103.01,-113.45 106.51,-103.45 99.51,-103.45"/>
</g>
</g>
</svg>
